<svg xmlns="http://www.w3.org/2000/svg" width="1254" height="836" viewBox="0 0 1254 836">
<g>
<path d="M 609.25 221.42 C609.24,221.42 609.23,221.43 609.22,221.44 C608.91,221.76 606.55,218.30 603.99,213.76 C596.24,200.01 593.04,194.88 586.68,186.00 C573.53,167.63 552.95,143.08 540.65,131.08 C537.59,128.10 535.25,125.40 535.45,125.08 C535.65,124.76 533.69,124.37 531.10,124.21 C528.64,124.06 526.93,123.93 525.72,124.65 C522.87,126.37 522.89,132.85 522.82,155.13 C522.68,198.48 523.09,214.92 524.51,223.50 C529.81,255.50 541.86,276.96 559.76,286.27 C566.13,289.58 575.81,292.00 582.67,292.00 C585.59,292.00 585.77,292.27 588.45,301.01 C589.97,305.96 590.94,310.71 590.62,311.56 C590.29,312.41 590.40,312.87 590.86,312.58 C591.33,312.30 592.49,314.86 593.46,318.28 C599.51,339.71 601.43,348.50 600.41,350.14 C600.37,350.20 600.34,350.26 600.31,350.32 C596.65,335.11 593.29,322.52 589.83,311.00 C587.60,303.58 585.55,296.49 585.27,295.25 C584.84,293.34 584.11,293.00 580.43,293.00 C556.81,293.00 536.36,273.98 527.64,243.89 C522.24,225.24 521.56,217.12 521.53,170.36 C521.50,129.32 521.59,127.11 523.40,125.11 C524.81,123.55 526.51,123.00 529.90,122.99 C534.45,122.98 534.63,123.11 545.51,134.25 C567.81,157.08 595.92,194.79 606.82,216.50 C607.71,218.27 608.52,219.90 609.25,221.42 ZM 545.95 421.39 C544.46,421.38 538.28,419.74 531.35,417.49 C513.36,411.64 503.72,409.37 486.00,406.82 C468.06,404.23 441.89,404.09 425.50,406.48 C412.78,408.34 394.82,412.53 390.92,414.54 C384.10,418.07 386.53,428.00 394.22,428.00 C395.99,428.00 401.05,427.13 405.47,426.07 C420.33,422.50 430.42,421.01 444.11,420.35 C458.97,419.64 480.77,421.27 487.50,423.59 C488.86,424.06 490.43,424.48 491.72,424.73 C461.97,420.26 426.87,421.39 403.00,427.97 C391.65,431.10 386.00,428.75 386.00,420.88 C386.00,414.87 388.24,413.30 402.02,409.69 C444.42,398.60 493.06,401.89 539.93,419.03 C541.57,419.63 543.63,420.44 545.95,421.39 ZM 547.34 528.61 C547.62,529.12 546.52,530.15 544.79,530.97 C541.91,532.33 541.49,533.03 541.41,536.51 C541.29,541.82 541.66,542.62 544.89,543.96 C546.98,544.82 549.32,544.79 554.57,543.84 C558.38,543.15 563.59,542.57 566.15,542.55 C568.71,542.52 570.63,542.21 570.42,541.86 C569.30,540.06 604.86,536.70 626.00,536.61 C646.93,536.52 676.92,539.67 675.62,541.82 C675.39,542.20 677.11,542.55 679.45,542.62 C681.78,542.68 686.57,543.68 690.09,544.85 C698.77,547.71 713.93,551.52 722.75,553.06 C726.74,553.75 730.00,554.82 730.00,555.44 C730.00,555.49 729.98,555.54 729.93,555.61 C729.63,555.26 728.46,555.00 727.07,555.00 C722.70,555.00 711.67,552.51 694.14,547.58 C665.08,539.39 649.39,537.43 620.20,538.35 C596.43,539.10 587.61,539.93 564.76,543.56 C545.48,546.62 542.39,546.35 540.13,541.39 C538.38,537.54 538.77,535.29 541.75,532.00 C543.06,530.55 544.45,529.56 547.34,528.61 ZM 532.92 435.56 C533.46,435.61 534.04,435.54 534.54,435.35 C535.54,434.96 536.08,435.06 535.76,435.58 C535.45,436.09 536.40,436.54 537.86,436.59 C542.43,436.76 572.48,450.39 594.00,462.06 C608.47,469.91 615.37,472.02 629.96,473.05 C672.43,476.07 697.63,479.37 709.85,483.51 C711.08,483.93 712.28,484.32 713.38,484.67 C699.27,481.16 669.21,477.38 636.00,474.99 C627.47,474.37 618.70,473.44 616.50,472.90 C612.30,471.88 600.22,467.20 598.50,465.93 C595.03,463.37 554.88,444.11 545.20,440.38 C540.56,438.59 535.82,436.73 532.92,435.56 ZM 691.10 528.42 C690.10,528.68 684.05,527.68 677.29,526.11 C659.53,521.98 641.80,520.57 617.50,521.34 C596.97,521.98 581.40,523.55 560.71,527.06 C554.65,528.09 549.15,528.67 547.91,528.43 C551.51,527.33 557.29,526.24 567.50,524.52 C584.62,521.64 593.61,520.92 620.00,520.35 C652.53,519.65 663.89,520.66 691.10,528.42 ZM 609.36 316.37 C609.27,316.36 609.16,316.40 609.04,316.48 C608.52,316.80 607.58,315.13 606.96,312.78 C606.33,310.43 604.90,305.80 603.78,302.50 C602.65,299.20 601.14,294.59 600.42,292.26 L 599.10 288.02 L 603.69 283.76 C613.37,274.76 617.63,259.68 614.94,243.91 C614.24,239.84 613.63,235.31 613.59,233.85 C613.54,232.39 613.18,231.39 612.80,231.63 C612.05,232.08 609.58,224.63 609.68,222.30 C615.60,234.67 616.44,239.43 616.47,252.55 L 616.50 265.60 L 612.70 273.29 C610.19,278.37 607.46,282.19 604.68,284.51 L 600.46 288.04 L 604.69 300.92 C606.25,305.66 607.82,310.88 609.36,316.37 ZM 747.17 502.34 C747.44,502.58 747.73,502.67 747.96,502.53 C748.94,501.92 754.10,509.34 756.43,514.71 C757.71,517.63 758.11,520.32 757.76,523.48 C757.14,528.94 752.58,536.44 750.38,535.59 C749.56,535.28 749.13,535.39 749.41,535.85 C749.69,536.30 748.34,537.42 746.42,538.34 C739.70,541.54 725.55,540.00 704.81,533.81 C698.93,532.05 694.32,530.29 694.56,529.90 C694.80,529.51 694.03,529.44 692.85,529.75 C691.24,530.17 690.89,529.98 691.50,529.00 C691.59,528.85 691.67,528.71 691.72,528.60 C694.77,529.47 698.02,530.43 701.52,531.48 C715.60,535.70 731.51,539.00 737.79,539.00 C750.67,539.00 759.56,527.50 755.52,516.05 C754.28,512.55 750.07,505.87 747.17,502.34 ZM 600.43 350.81 C600.54,350.77 600.67,350.70 600.85,350.60 C601.48,350.20 602.00,350.19 602.00,350.56 C602.00,350.94 603.30,357.15 604.89,364.37 C606.49,371.59 608.09,380.20 608.46,383.50 C608.83,386.80 609.53,391.08 610.02,393.00 C611.76,399.86 615.02,425.36 614.41,427.29 C614.39,427.35 614.37,427.41 614.36,427.47 C613.84,425.24 613.20,421.79 612.61,418.00 C607.51,385.39 604.58,368.50 602.37,359.00 C601.71,356.19 601.06,353.46 600.43,350.81 ZM 604.47 449.23 C604.39,449.27 604.28,449.32 604.17,449.40 C603.54,449.79 594.13,445.61 583.26,440.13 C563.05,429.93 554.24,425.77 550.24,424.55 C548.99,424.17 548.23,423.44 548.54,422.94 C548.85,422.43 548.33,422.32 547.39,422.68 C546.13,423.16 545.89,422.99 546.49,422.02 C546.57,421.89 546.63,421.78 546.68,421.69 C557.97,426.35 575.08,434.13 583.50,438.54 C591.63,442.80 598.85,446.48 604.47,449.23 ZM 883.06 409.03 C881.89,408.05 880.87,407.46 880.65,407.68 C880.40,407.94 878.68,407.36 876.84,406.40 C872.50,404.14 871.36,403.99 853.00,403.40 C837.73,402.90 837.37,402.94 828.62,405.93 C824.36,407.38 820.42,408.39 819.11,408.39 C833.95,401.91 846.24,400.08 860.50,401.75 C867.35,402.55 871.63,403.64 875.19,405.50 C877.95,406.95 880.41,407.92 880.66,407.67 C880.88,407.46 881.89,408.05 883.06,409.03 ZM 624.84 370.30 C623.91,371.91 623.18,372.99 623.00,372.98 C621.26,372.94 620.09,370.91 619.52,366.99 C618.76,361.75 614.88,343.89 611.32,329.20 C609.95,323.54 609.08,318.23 609.40,317.40 C609.46,317.25 609.50,317.11 609.53,316.99 C612.87,329.03 616.03,342.38 618.49,355.00 C619.94,362.42 621.33,369.51 621.58,370.75 C622.15,373.53 622.89,373.61 624.84,370.30 ZM 636.70 457.10 C636.60,457.06 636.53,457.02 636.48,456.99 C635.84,456.45 635.07,456.27 634.76,456.57 C634.05,457.29 632.83,446.67 633.03,441.50 C633.12,439.30 632.24,432.55 631.07,426.50 C629.91,420.45 628.94,411.45 628.92,406.49 C628.94,411.45 629.92,420.45 631.09,426.50 C632.26,432.55 633.81,441.71 634.52,446.86 C635.23,452.01 636.21,456.61 636.68,457.08 C636.69,457.09 636.69,457.09 636.70,457.10 ZM 618.00 454.91 C617.92,455.03 617.83,455.13 617.72,455.19 C616.00,456.29 614.77,456.19 615.49,455.01 C615.83,454.47 615.49,454.26 614.75,454.54 C612.75,455.31 603.82,451.11 604.63,449.79 C604.73,449.63 604.79,449.50 604.82,449.40 C610.87,452.36 615.01,454.22 616.39,454.56 C617.08,454.74 617.61,454.87 618.00,454.91 ZM 801.26 417.59 C801.29,417.66 801.33,417.73 801.38,417.81 C801.80,418.49 800.14,419.91 797.12,421.44 L 792.16 423.95 L 789.31 420.73 C786.89,417.99 785.40,417.00 780.32,416.68 C785.27,416.99 786.80,417.90 788.97,420.31 L 791.50 423.11 L 801.26 417.59 ZM 808.38 413.63 C808.36,413.71 808.39,413.83 808.48,413.97 C809.25,415.22 803.27,418.28 801.82,417.39 C801.78,417.37 801.75,417.35 801.72,417.33 L 803.91 416.09 C805.43,415.23 806.92,414.41 808.38,413.63 ZM 818.34 408.73 C818.39,408.82 818.45,408.91 818.51,409.02 C819.10,409.98 818.87,410.17 817.68,409.71 C816.66,409.32 816.12,409.54 816.26,410.29 C816.39,410.96 815.52,411.47 814.30,411.43 C813.08,411.38 812.37,411.80 812.71,412.35 C813.08,412.94 812.64,413.07 811.61,412.68 C811.17,412.51 810.85,412.43 810.65,412.44 C813.30,411.07 815.86,409.84 818.34,408.73 ZM 493.21 424.96 C493.38,424.98 493.54,424.98 493.67,424.99 C496.21,425.00 511.61,428.48 515.17,429.81 C513.62,429.26 509.06,428.09 504.50,427.08 C500.86,426.28 497.08,425.57 493.21,424.96 ZM 810.41 412.56 C810.36,412.68 810.43,412.89 810.61,413.18 C811.09,413.96 810.77,414.13 809.61,413.68 C809.22,413.53 808.91,413.46 808.69,413.47 C809.27,413.16 809.84,412.86 810.41,412.56 ZM 717.82 485.94 C718.02,485.98 718.16,486.00 718.25,486.00 C718.93,486.00 721.82,487.18 726.57,489.39 C723.49,488.03 720.41,486.80 717.82,485.94 ZM 742.37 498.25 C742.98,499.21 744.06,500.00 744.77,500.00 C745.48,500.00 746.32,500.67 746.64,501.49 C746.71,501.69 746.80,501.86 746.90,502.01 C745.86,500.78 745.02,500.00 744.60,500.00 C743.98,500.00 742.98,499.21 742.37,498.25 ZM 734.47 493.17 C734.93,493.39 735.40,493.62 735.88,493.86 C738.83,495.31 741.75,497.29 742.37,498.25 C741.73,497.25 738.56,495.29 734.47,493.17 ZM 722.37 560.32 C718.71,562.25 714.91,564.00 713.91,564.00 C714.74,564.00 718.62,562.23 722.37,560.32 ZM 616.96 439.37 C617.11,440.36 617.25,441.40 617.39,442.46 C617.64,444.36 617.84,445.98 617.99,447.38 C617.67,445.03 617.30,442.18 616.97,439.52 C616.97,439.47 616.96,439.42 616.96,439.37 ZM 530.18 434.44 C530.53,434.57 530.82,434.70 531.06,434.81 C530.84,434.71 530.65,434.64 530.50,434.57 C530.40,434.53 530.29,434.48 530.18,434.44 ZM 516.18 430.21 C516.60,430.36 517.15,430.54 517.77,430.73 C517.16,430.54 516.62,430.36 516.18,430.21 Z" fill="rgba(142,75,121,1)"/>
<path d="M 612.50 614.38 C607.11,613.56 590.55,609.85 588.50,609.00 C584.71,607.44 566.76,602.00 565.37,602.00 C564.60,602.00 563.19,601.57 562.24,601.03 C561.28,600.50 557.58,598.96 554.00,597.60 C550.42,596.25 543.35,593.53 538.27,591.57 C533.20,589.61 528.45,588.00 527.72,588.00 C526.99,588.00 525.97,587.57 525.45,587.05 C524.93,586.54 520.45,584.53 515.50,582.60 C510.55,580.68 502.90,577.57 498.50,575.70 C494.10,573.83 486.90,570.83 482.50,569.03 C473.84,565.48 467.23,562.58 462.50,560.26 C460.85,559.45 451.85,555.43 442.50,551.32 C417.39,540.29 391.24,527.33 388.45,524.54 C385.30,521.40 385.06,515.16 387.98,512.52 C391.08,509.71 395.86,511.01 413.00,519.29 C448.76,536.56 483.85,552.21 485.09,551.45 C485.59,551.14 486.00,551.28 486.00,551.76 C486.00,552.24 489.49,554.13 493.75,555.95 C498.01,557.78 503.91,560.33 506.86,561.63 C509.80,562.92 512.61,563.74 513.11,563.43 C513.60,563.13 514.00,563.39 514.00,564.00 C514.00,564.61 514.45,564.84 515.00,564.50 C515.55,564.16 516.00,564.29 516.00,564.79 C516.00,565.95 523.99,569.12 525.14,568.41 C525.61,568.12 526.00,568.31 526.00,568.83 C526.00,570.02 533.83,573.23 534.98,572.51 C535.45,572.22 535.98,572.43 536.16,572.97 C536.87,575.02 584.19,591.62 586.06,590.47 C586.58,590.14 587.00,590.29 587.00,590.78 C587.00,591.98 592.25,593.49 605.00,595.96 C618.72,598.62 633.98,598.66 643.50,596.05 C654.24,593.11 655.00,592.83 655.00,591.84 C655.00,591.33 655.56,591.04 656.25,591.19 C658.02,591.59 667.00,588.02 667.00,586.92 C667.00,586.41 667.77,586.00 668.71,586.00 C670.98,586.00 686.00,578.91 686.00,577.84 C686.00,577.38 686.69,577.00 687.53,577.00 C689.65,577.00 704.00,570.10 704.00,569.08 C704.00,568.62 705.30,567.99 706.88,567.67 C708.46,567.36 710.46,566.40 711.31,565.55 C712.16,564.70 713.33,564.00 713.91,564.00 C715.98,564.00 730.00,556.54 730.00,555.44 C730.00,554.82 726.74,553.75 722.75,553.06 C713.93,551.52 698.77,547.71 690.09,544.85 C686.57,543.68 681.78,542.68 679.45,542.62 C677.11,542.55 675.39,542.20 675.62,541.82 C676.92,539.67 646.93,536.52 626.00,536.61 C604.86,536.70 569.30,540.06 570.42,541.86 C570.63,542.21 568.71,542.52 566.15,542.55 C563.59,542.57 558.38,543.15 554.57,543.84 C549.32,544.79 546.98,544.82 544.89,543.96 C541.66,542.62 541.29,541.82 541.41,536.51 C541.49,533.03 541.91,532.33 544.79,530.97 C546.60,530.11 547.72,529.02 547.29,528.55 C546.86,528.07 547.04,527.99 547.71,528.37 C548.37,528.75 554.22,528.16 560.71,527.06 C581.40,523.55 596.97,521.98 617.50,521.34 C641.80,520.57 659.53,521.98 677.29,526.11 C684.32,527.74 690.57,528.76 691.19,528.38 C691.92,527.93 692.03,528.15 691.50,529.00 C690.89,529.98 691.24,530.17 692.85,529.75 C694.03,529.44 694.80,529.51 694.56,529.90 C694.32,530.29 698.93,532.05 704.81,533.81 C725.55,540.00 739.70,541.54 746.42,538.34 C748.34,537.42 749.69,536.30 749.41,535.85 C749.13,535.39 749.56,535.28 750.38,535.59 C752.58,536.44 757.14,528.94 757.76,523.48 C758.11,520.32 757.71,517.63 756.43,514.71 C754.10,509.34 748.94,501.92 747.96,502.53 C747.55,502.78 746.95,502.32 746.64,501.49 C746.32,500.67 745.48,500.00 744.77,500.00 C744.06,500.00 742.98,499.21 742.37,498.25 C741.76,497.29 738.84,495.31 735.88,493.86 C725.60,488.81 719.29,486.00 718.25,486.00 C717.67,486.00 713.89,484.88 709.85,483.51 C697.63,479.37 672.43,476.07 629.96,473.05 C615.37,472.02 608.47,469.91 594.00,462.06 C572.48,450.39 542.43,436.76 537.86,436.59 C536.40,436.54 535.45,436.09 535.76,435.58 C536.08,435.06 535.54,434.96 534.54,435.35 C533.55,435.73 532.24,435.63 531.62,435.12 C531.01,434.62 527.58,433.45 524.00,432.51 C520.42,431.58 516.60,430.42 515.50,429.94 C512.70,428.73 496.30,425.00 493.67,424.99 C492.48,424.98 489.70,424.35 487.50,423.59 C480.77,421.27 458.97,419.64 444.11,420.35 C430.42,421.01 420.33,422.50 405.47,426.07 C401.05,427.13 395.99,428.00 394.22,428.00 C386.53,428.00 384.10,418.07 390.92,414.54 C394.82,412.53 412.78,408.34 425.50,406.48 C441.89,404.09 468.06,404.23 486.00,406.82 C503.72,409.37 513.36,411.64 531.35,417.49 C538.97,419.97 545.68,421.70 546.25,421.34 C546.92,420.93 547.01,421.18 546.49,422.02 C545.89,422.99 546.13,423.16 547.39,422.68 C548.33,422.32 548.85,422.43 548.54,422.94 C548.23,423.44 548.99,424.17 550.24,424.55 C554.24,425.77 563.05,429.93 583.26,440.13 C594.13,445.61 603.54,449.79 604.17,449.40 C604.85,448.98 605.04,449.13 604.63,449.79 C603.82,451.11 612.75,455.31 614.75,454.54 C615.49,454.26 615.83,454.47 615.49,455.01 C614.77,456.19 616.00,456.29 617.72,455.19 C618.68,454.58 618.61,451.83 617.39,442.46 C616.53,435.89 615.37,430.23 614.81,429.88 C614.25,429.53 614.07,428.37 614.41,427.29 C615.02,425.36 611.76,399.86 610.02,393.00 C609.53,391.08 608.83,386.80 608.46,383.50 C608.09,380.20 606.49,371.59 604.89,364.37 C603.30,357.15 602.00,350.94 602.00,350.56 C602.00,350.19 601.48,350.20 600.85,350.60 C600.12,351.04 599.96,350.87 600.41,350.14 C601.43,348.50 599.51,339.71 593.46,318.28 C592.49,314.86 591.33,312.30 590.86,312.58 C590.40,312.87 590.29,312.41 590.62,311.56 C590.94,310.71 589.97,305.96 588.45,301.01 C585.77,292.27 585.59,292.00 582.67,292.00 C575.81,292.00 566.13,289.58 559.76,286.27 C541.86,276.96 529.81,255.50 524.51,223.50 C523.09,214.92 522.68,198.48 522.82,155.13 C522.92,123.43 522.84,123.71 531.10,124.21 C533.69,124.37 535.65,124.76 535.45,125.08 C535.25,125.40 537.59,128.10 540.65,131.08 C552.95,143.08 573.53,167.63 586.68,186.00 C593.04,194.88 596.24,200.01 603.99,213.76 C606.55,218.30 608.91,221.76 609.22,221.44 C609.54,221.13 609.75,221.46 609.69,222.18 C609.49,224.37 612.04,232.09 612.80,231.63 C613.18,231.39 613.54,232.39 613.59,233.85 C613.63,235.31 614.24,239.84 614.94,243.91 C617.63,259.68 613.37,274.76 603.69,283.76 L 599.10 288.02 L 600.42 292.26 C601.14,294.59 602.65,299.20 603.78,302.50 C604.90,305.80 606.33,310.43 606.96,312.78 C607.58,315.13 608.52,316.80 609.04,316.48 C609.55,316.16 609.72,316.57 609.40,317.40 C609.08,318.23 609.95,323.54 611.32,329.20 C614.88,343.89 618.76,361.75 619.52,366.99 C620.09,370.91 621.26,372.94 623.00,372.98 C623.28,372.99 624.77,370.56 626.32,367.59 C627.88,364.62 630.72,360.35 632.65,358.09 C634.58,355.84 635.67,354.00 635.08,354.00 C634.49,354.00 634.10,353.66 634.22,353.25 C634.33,352.84 632.71,349.06 630.61,344.85 C621.49,326.57 621.76,306.27 631.38,288.50 C635.63,280.66 651.15,262.29 653.70,262.09 C654.36,262.04 655.26,261.44 655.70,260.75 C656.14,260.06 657.50,258.94 658.72,258.26 C669.80,252.07 678.68,246.92 679.56,246.17 C681.22,244.76 684.84,242.96 685.71,243.10 C687.87,243.46 690.01,242.85 691.38,241.48 C692.21,240.65 693.25,240.07 693.70,240.19 C695.18,240.62 706.00,236.74 706.00,235.78 C706.00,235.26 706.56,235.03 707.25,235.26 C707.94,235.50 711.42,234.84 715.00,233.81 C749.68,223.76 787.93,217.60 814.00,217.86 C831.54,218.05 835.00,218.27 835.00,219.25 C835.00,219.66 836.03,220.00 837.28,220.00 C839.64,220.00 843.00,224.33 843.00,227.37 C843.00,228.23 840.99,231.19 838.54,233.95 C828.43,245.34 822.07,255.61 810.35,279.53 C806.03,288.33 802.05,296.53 801.50,297.76 C799.99,301.15 789.64,322.09 788.50,324.07 C772.80,351.40 755.28,371.19 738.50,380.56 C726.94,387.01 709.84,392.00 699.50,391.96 C691.35,391.92 676.77,388.84 669.63,385.64 C663.37,382.83 652.79,375.67 649.51,372.03 C645.10,367.13 644.38,367.36 639.19,375.31 C636.54,379.37 633.79,384.22 633.09,386.09 C632.38,387.97 631.43,390.40 630.99,391.50 C629.13,396.09 628.89,397.89 628.92,406.48 C628.94,411.44 629.91,420.45 631.07,426.50 C632.24,432.55 633.12,439.30 633.03,441.50 C632.83,446.67 634.05,457.29 634.76,456.57 C635.07,456.27 635.84,456.45 636.48,456.99 C637.13,457.52 645.44,458.73 654.95,459.67 C671.19,461.28 672.32,461.28 673.48,459.69 C674.16,458.76 675.15,458.00 675.68,458.00 C677.31,458.00 710.00,440.91 710.00,440.06 C710.00,439.61 711.24,439.00 712.76,438.70 C714.28,438.39 716.60,437.21 717.92,436.07 C719.23,434.93 720.94,434.00 721.72,434.00 C722.50,434.00 723.81,433.34 724.62,432.53 C725.43,431.72 727.87,430.57 730.04,429.99 C732.22,429.40 734.00,428.51 734.00,428.00 C734.00,427.49 735.80,426.59 738.00,426.00 C740.20,425.41 742.00,424.53 742.00,424.05 C742.00,423.58 744.52,422.39 747.60,421.43 C750.67,420.46 753.71,419.16 754.35,418.55 C755.86,417.08 760.42,416.56 772.00,416.53 C784.34,416.49 785.91,416.87 789.31,420.73 L 792.16 423.95 L 797.12 421.44 C800.14,419.91 801.80,418.49 801.38,417.81 C800.97,417.14 801.14,416.97 801.82,417.39 C803.27,418.28 809.25,415.22 808.48,413.97 C808.15,413.43 808.63,413.31 809.61,413.68 C810.77,414.13 811.09,413.96 810.61,413.18 C810.13,412.40 810.46,412.24 811.61,412.68 C812.64,413.07 813.08,412.94 812.71,412.35 C812.37,411.80 813.08,411.38 814.30,411.43 C815.52,411.47 816.39,410.96 816.26,410.29 C816.12,409.54 816.66,409.32 817.68,409.71 C818.87,410.17 819.10,409.98 818.51,409.02 C818.00,408.19 818.08,407.93 818.72,408.33 C819.28,408.67 823.74,407.59 828.62,405.93 C837.37,402.94 837.73,402.90 853.00,403.40 C871.36,403.99 872.50,404.14 876.84,406.40 C878.68,407.36 880.40,407.94 880.65,407.68 C880.91,407.42 882.29,408.29 883.72,409.61 C885.15,410.94 886.52,411.82 886.77,411.57 C887.40,410.94 891.40,415.86 893.22,419.50 C895.91,424.89 896.06,429.39 893.67,433.04 C889.41,439.53 889.03,440.57 889.01,445.93 C889.01,449.43 888.23,452.96 886.84,455.82 C884.13,461.42 869.13,477.15 853.50,490.79 C846.90,496.54 841.00,501.87 840.39,502.63 C839.78,503.38 838.89,504.00 838.42,504.00 C837.95,504.00 836.65,504.93 835.54,506.07 C834.42,507.20 827.42,512.61 820.00,518.07 C812.58,523.54 805.45,528.91 804.17,530.01 C802.88,531.10 801.63,532.00 801.38,532.00 C800.68,532.00 779.66,546.21 778.18,547.69 C777.45,548.41 776.39,549.00 775.81,549.00 C775.24,549.00 771.56,550.96 767.64,553.36 C763.71,555.75 753.97,561.24 746.00,565.56 C738.03,569.87 731.35,573.76 731.17,574.20 C730.98,574.64 730.31,575.00 729.67,575.01 C729.03,575.01 727.15,575.72 725.50,576.59 C722.51,578.16 685.75,597.11 681.00,599.53 C674.06,603.06 661.43,608.13 652.50,610.98 C643.71,613.78 640.87,614.20 629.00,614.50 C621.58,614.68 614.15,614.63 612.50,614.38 ZM 782.75 525.39 C788.11,521.76 793.25,517.93 794.16,516.89 C795.07,515.85 796.31,515.00 796.91,515.00 C797.51,515.00 798.00,514.55 798.00,514.00 C798.00,513.45 798.69,513.00 799.53,513.00 C800.37,513.00 801.32,512.33 801.64,511.50 C801.95,510.67 802.85,510.00 803.64,510.00 C804.42,510.00 805.32,509.33 805.64,508.50 C805.95,507.67 806.81,507.00 807.54,507.00 C808.26,507.00 810.42,505.52 812.34,503.72 C814.25,501.91 816.96,499.82 818.36,499.08 C819.75,498.33 823.26,495.53 826.15,492.86 C829.04,490.19 831.72,488.00 832.10,488.00 C832.48,488.00 834.18,486.42 835.87,484.50 C837.56,482.58 839.36,481.00 839.87,481.00 C840.38,481.00 842.18,479.42 843.87,477.50 C845.56,475.58 847.32,474.00 847.78,474.00 C849.31,474.00 871.02,452.84 870.45,451.91 C870.14,451.41 870.35,451.00 870.92,451.00 C872.26,451.00 875.00,445.68 875.00,443.08 C875.00,437.20 859.26,436.12 845.82,441.06 C838.44,443.77 823.34,451.28 822.00,452.90 C821.72,453.23 820.27,454.17 818.76,455.00 C811.73,458.85 800.00,466.48 800.00,467.20 C800.00,467.64 799.33,468.00 798.50,468.00 C797.67,468.00 797.00,468.45 797.00,469.00 C797.00,469.55 796.55,470.00 795.99,470.00 C795.04,470.00 777.73,480.34 770.00,485.53 C768.08,486.82 765.26,488.18 763.74,488.55 C762.22,488.92 760.79,489.53 760.56,489.90 C760.33,490.28 762.40,493.66 765.16,497.42 C771.60,506.20 773.40,512.56 772.59,523.75 C772.26,528.29 772.22,532.00 772.50,532.00 C772.78,532.00 777.39,529.03 782.75,525.39 ZM 753.84 476.30 C757.50,474.27 760.65,472.24 760.83,471.80 C761.02,471.36 762.03,471.00 763.08,471.00 C764.14,471.00 765.90,470.10 767.00,469.00 C768.10,467.90 769.48,467.00 770.07,467.00 C771.73,467.00 780.00,461.92 780.00,460.90 C780.00,460.41 780.67,460.00 781.50,460.00 C782.33,460.00 783.00,459.55 783.00,459.00 C783.00,458.45 783.65,458.00 784.44,458.00 C786.31,458.00 799.00,450.05 799.00,448.89 C799.00,448.40 799.91,448.00 801.03,448.00 C802.15,448.00 803.32,447.33 803.64,446.50 C803.95,445.67 804.84,445.00 805.61,445.00 C806.37,445.00 807.00,444.55 807.00,444.00 C807.00,443.45 807.91,443.00 809.03,443.00 C810.15,443.00 811.32,442.33 811.64,441.50 C811.95,440.67 813.07,440.00 814.11,440.00 C815.15,440.00 816.85,439.15 817.88,438.12 C818.92,437.08 821.39,435.70 823.38,435.04 C825.36,434.39 827.40,433.10 827.92,432.18 C828.43,431.27 829.14,430.81 829.50,431.17 C829.86,431.53 833.16,430.59 836.83,429.08 C845.93,425.35 857.06,423.61 867.74,424.25 C872.56,424.54 877.12,424.94 877.88,425.14 C878.63,425.34 879.45,424.96 879.69,424.30 C879.94,423.61 877.54,421.79 874.10,420.05 C866.30,416.11 856.11,414.60 846.45,415.94 C838.51,417.05 823.00,421.64 823.00,422.89 C823.00,423.32 821.20,424.22 819.00,424.88 C816.80,425.54 815.00,426.51 815.00,427.04 C815.00,427.57 814.44,428.00 813.75,428.00 C813.06,428.00 808.67,430.28 804.00,433.07 C799.33,435.85 789.65,441.34 782.50,445.27 C775.35,449.19 769.28,452.65 769.00,452.95 C768.72,453.25 764.22,455.66 759.00,458.29 C731.08,472.38 730.51,472.71 732.81,473.44 C734.01,473.82 735.00,474.58 735.00,475.13 C735.00,475.67 735.45,475.84 736.00,475.50 C736.55,475.16 737.00,475.39 737.00,476.00 C737.00,476.61 737.45,476.84 738.00,476.50 C738.55,476.16 739.00,476.29 739.00,476.80 C739.00,477.58 743.74,479.58 746.34,479.90 C746.80,479.95 750.17,478.34 753.84,476.30 ZM 721.27 460.88 C727.99,457.52 733.65,454.37 733.83,453.88 C734.02,453.40 734.83,453.00 735.65,453.00 C737.80,453.00 765.00,439.04 765.00,437.93 C765.00,437.42 765.69,437.00 766.53,437.00 C769.18,437.00 778.15,431.96 777.74,430.70 C777.05,428.62 768.63,428.77 762.08,430.97 C758.70,432.11 751.79,435.22 746.72,437.88 C741.65,440.54 736.15,443.40 734.50,444.24 C729.48,446.80 700.65,461.25 698.26,462.41 C695.27,463.86 695.42,464.83 698.75,465.57 C700.26,465.90 701.95,466.33 702.50,466.51 C705.93,467.65 710.42,466.30 721.27,460.88 ZM 711.23 374.07 C719.83,371.87 730.09,367.00 733.67,363.42 C735.00,362.09 736.56,361.00 737.14,361.00 C738.58,361.00 752.05,347.90 751.51,347.02 C751.27,346.63 752.42,345.32 754.07,344.11 C755.71,342.89 756.82,341.52 756.53,341.05 C756.25,340.59 756.65,339.96 757.43,339.67 C761.53,338.09 792.17,283.71 790.49,280.99 C790.16,280.45 790.39,280.00 791.00,280.00 C791.61,280.00 791.84,279.55 791.50,279.00 C791.16,278.45 791.34,278.00 791.91,278.00 C793.10,278.00 794.65,275.37 795.15,272.50 C795.34,271.40 795.78,270.27 796.12,270.00 C797.08,269.23 804.09,255.00 803.51,255.00 C803.23,255.00 803.70,254.21 804.55,253.25 C806.51,251.04 818.00,233.16 818.00,232.32 C818.00,231.17 791.70,232.95 777.50,235.05 C769.80,236.19 758.55,238.27 752.50,239.67 C746.45,241.07 740.60,242.33 739.50,242.48 C738.40,242.62 733.45,243.97 728.50,245.48 C723.55,246.98 716.76,249.02 713.41,250.00 C710.06,250.98 706.46,252.26 705.41,252.84 C704.36,253.42 701.03,254.77 698.00,255.85 C691.18,258.27 675.62,265.96 675.17,267.13 C674.98,267.61 674.37,268.00 673.80,268.00 C670.98,268.00 652.00,284.14 652.00,286.54 C652.00,287.22 651.38,288.02 650.63,288.31 C646.61,289.85 639.00,309.46 639.00,318.26 C639.00,325.77 644.37,343.02 646.69,342.99 C647.35,342.98 666.15,328.28 674.68,321.11 C676.13,319.89 678.37,319.31 681.39,319.36 C685.40,319.42 686.11,319.79 687.60,322.56 C690.29,327.55 688.93,330.20 680.24,336.86 C675.98,340.12 671.51,343.74 670.29,344.90 C669.08,346.05 667.69,347.00 667.21,347.00 C666.73,347.00 665.18,348.29 663.78,349.86 C662.38,351.44 660.23,353.42 659.02,354.27 C656.15,356.29 656.97,358.98 661.51,362.44 C663.40,363.88 665.30,365.14 665.73,365.23 C666.15,365.32 667.36,366.19 668.40,367.16 C669.45,368.13 670.68,368.69 671.15,368.41 C671.62,368.12 672.00,368.32 672.00,368.85 C672.00,369.93 680.99,373.27 681.02,372.19 C681.02,371.81 681.36,372.00 681.77,372.61 C684.07,376.08 700.24,376.88 711.23,374.07 ZM 575.59 267.09 C569.61,254.61 570.07,251.05 577.69,251.02 C582.30,250.99 585.40,254.30 589.39,263.50 C591.30,267.90 593.48,271.63 594.23,271.78 C597.83,272.53 604.30,251.04 601.07,249.04 C600.29,248.56 599.99,247.48 600.36,246.51 C602.39,241.21 592.54,219.00 579.48,199.44 C567.04,180.81 540.10,147.00 537.70,147.00 C536.49,147.00 537.51,214.22 538.81,220.00 C539.37,222.48 540.10,226.30 540.44,228.50 C541.47,235.23 546.04,249.16 549.13,254.98 C552.12,260.61 559.58,270.68 560.46,270.28 C560.73,270.15 562.14,271.16 563.60,272.51 C565.06,273.86 566.65,274.72 567.13,274.42 C567.61,274.13 568.00,274.39 568.00,275.00 C568.00,275.61 568.41,275.86 568.91,275.55 C569.42,275.24 570.00,275.50 570.21,276.12 C570.68,277.54 578.17,278.94 579.43,277.85 C579.98,277.37 578.42,272.98 575.59,267.09 Z" fill="rgba(158,89,151,1)"/>
</g>
</svg>