<svg xmlns="http://www.w3.org/2000/svg" width="1254" height="836" viewBox="0 0 1254 836">
<g>
<path d="M 515.50 741.00 C479.91,732.61 437.76,712.42 404.00,687.60 C362.99,657.45 327.54,614.52 304.00,566.50 C286.38,530.54 277.54,502.05 272.38,464.50 C269.65,444.61 269.84,406.50 272.78,386.00 C279.67,337.90 300.03,286.20 327.90,246.00 C349.50,214.85 382.99,181.61 413.65,160.89 C479.65,116.29 559.85,98.07 644.34,108.50 C713.45,117.02 778.61,148.73 832.24,199.94 C858.26,224.78 877.66,251.14 894.47,284.50 C912.55,320.37 923.48,354.39 929.00,392.00 C931.44,408.65 931.97,442.03 930.03,457.50 C925.75,491.70 919.64,516.46 908.53,544.57 C891.29,588.20 867.62,624.24 834.85,656.73 C794.75,696.49 750.81,722.07 696.50,737.29 C684.18,740.74 668.60,743.37 664.90,742.63 C659.61,741.57 655.48,739.08 653.46,735.73 C651.60,732.66 651.47,729.74 650.92,676.50 L 650.33 620.50 L 647.72 610.50 C646.29,605.00 643.51,596.83 641.56,592.35 C634.74,576.72 637.49,570.04 652.19,566.47 C722.31,549.42 772.25,506.85 787.07,451.50 C789.22,443.49 789.48,440.42 789.49,423.50 C789.49,405.84 789.30,403.83 786.78,395.00 C780.86,374.26 773.18,359.71 758.52,341.50 C754.54,336.55 750.77,331.52 750.14,330.32 C748.39,326.97 748.78,319.95 751.06,313.41 C755.80,299.84 757.08,284.76 754.59,271.84 C752.98,263.49 747.19,248.01 745.43,247.33 C744.23,246.88 737.26,250.36 726.50,256.79 C716.48,262.77 705.93,270.90 697.31,279.28 C686.76,289.53 685.37,289.77 668.50,284.20 C656.31,280.17 652.54,279.26 636.50,276.51 C599.01,270.06 551.44,273.85 518.77,285.89 C512.48,288.21 507.58,288.55 503.41,286.97 C501.91,286.40 496.75,282.18 491.93,277.60 C480.15,266.39 468.22,257.60 456.05,251.16 L 445.95 245.83 L 442.56 253.16 C433.86,272.02 432.86,291.63 439.58,311.77 C440.91,315.77 442.00,321.21 442.00,323.87 C442.00,328.24 441.41,329.49 435.69,337.10 C418.26,360.28 410.64,375.09 404.85,397.00 C402.96,404.16 402.60,408.18 402.55,422.50 C402.50,441.14 404.15,450.56 410.14,465.62 C420.29,491.19 443.62,518.38 470.50,535.97 C484.32,545.01 506.57,555.17 524.09,560.44 C537.01,564.32 539.00,567.31 539.00,582.75 C539.00,607.78 528.84,622.40 508.88,626.08 C495.25,628.59 474.86,622.74 458.24,611.54 C453.98,608.67 444.57,601.84 437.32,596.36 C424.27,586.50 412.94,579.41 414.52,582.11 C417.23,586.73 433.59,608.82 439.62,616.00 C456.50,636.10 467.72,644.02 485.79,648.60 C493.90,650.66 497.63,651.00 511.88,651.00 C538.66,651.01 537.65,649.23 538.37,697.62 C538.82,728.29 538.71,732.07 537.19,735.05 C533.53,742.22 527.60,743.85 515.50,741.00 ZM 689.13 712.01 C694.28,710.36 698.85,709.01 699.28,709.01 C699.72,709.00 705.34,706.92 711.78,704.37 C752.43,688.29 786.46,665.66 817.04,634.36 C883.22,566.60 914.68,466.43 897.39,378.50 C883.62,308.50 843.67,242.62 788.16,198.36 C750.36,168.22 704.48,147.31 656.00,138.13 C618.59,131.04 570.42,131.58 533.04,139.52 C490.47,148.55 452.18,166.28 415.50,193.93 C401.25,204.67 370.47,235.73 359.42,250.50 C305.96,322.01 286.36,405.06 303.96,485.45 C309.43,510.45 321.42,542.24 333.96,565.00 C341.18,578.11 354.65,598.24 364.32,610.36 C373.73,622.17 403.02,651.79 414.26,660.87 C438.07,680.12 467.56,696.22 497.00,706.04 C506.31,709.15 509.88,709.90 509.95,708.75 C509.98,708.34 510.00,701.14 510.00,692.75 L 510.00 677.50 L 498.25 677.44 C461.38,677.24 432.53,656.25 398.01,604.50 C389.10,591.15 378.95,577.97 375.02,574.67 C373.43,573.33 368.87,571.24 364.89,570.03 C356.62,567.52 352.45,563.90 351.40,558.32 C350.52,553.65 352.95,548.59 357.11,546.44 C362.02,543.90 388.45,544.84 400.00,547.96 C421.07,553.65 438.04,562.48 462.50,580.45 C478.56,592.25 497.14,599.69 505.39,597.62 C508.34,596.88 511.01,592.42 510.97,588.30 C510.95,585.64 510.45,585.34 500.72,582.21 C484.11,576.86 460.94,564.42 443.33,551.41 C427.76,539.90 407.53,518.32 397.55,502.56 C371.60,461.60 366.91,412.99 384.64,368.69 C390.87,353.13 398.61,339.56 408.56,326.78 C413.76,320.10 413.78,320.05 412.50,316.28 C410.36,310.00 408.00,294.12 408.00,286.00 C408.00,271.56 412.73,251.35 419.00,238.96 C424.56,228.00 429.96,220.92 434.27,218.97 C439.88,216.42 442.50,216.51 451.73,219.59 C469.17,225.42 487.68,236.68 507.17,253.32 L 512.83 258.16 L 524.37 255.08 C549.69,248.32 568.06,246.03 597.00,246.03 C625.18,246.03 646.99,248.66 668.65,254.68 L 677.81 257.22 L 685.65 250.74 C707.02,233.10 742.08,215.62 752.66,217.33 C757.91,218.18 762.17,222.00 767.59,230.70 C773.39,239.99 778.23,251.78 781.17,263.76 C784.30,276.54 784.12,296.61 780.73,310.93 L 778.26 321.36 L 784.42 329.43 C814.50,368.87 824.84,410.82 815.48,455.45 C809.41,484.37 794.67,510.46 771.06,534.05 C747.17,557.91 722.40,573.12 686.50,585.98 C682.10,587.56 676.79,589.16 674.69,589.55 C671.70,590.09 671.02,590.60 671.54,591.87 C673.71,597.27 677.10,614.19 677.97,624.02 C678.53,630.33 678.99,653.39 678.99,675.25 C679.00,697.11 679.17,715.00 679.38,715.00 C679.59,715.00 683.97,713.65 689.13,712.01 Z" fill="rgba(239,196,253,1)"/>
</g>
</svg>