<svg xmlns="http://www.w3.org/2000/svg" width="1254" height="836" viewBox="0 0 1254 836">
<g>
<path d="M 756.00 589.50 C754.33,591.51 745.00,591.02 745.00,588.93 C745.00,588.42 743.09,588.01 740.75,588.02 C737.64,588.03 736.90,588.29 738.00,589.00 C739.22,589.79 739.09,589.97 737.31,589.98 C736.10,589.99 734.84,589.54 734.49,588.98 C734.14,588.42 733.50,588.19 733.06,588.46 C731.24,589.59 719.17,590.08 718.54,589.06 C717.70,587.71 708.00,587.66 708.00,589.00 C708.00,589.55 706.17,590.00 703.94,590.00 C701.49,590.00 700.13,589.60 700.50,589.00 C700.84,588.45 700.39,588.00 699.50,588.00 C698.60,588.00 698.18,588.48 698.55,589.07 C699.29,590.29 682.23,589.77 678.09,588.45 C676.38,587.90 675.89,588.02 676.40,588.84 C677.34,590.35 675.74,590.34 674.23,588.83 C673.40,588.00 665.33,587.60 646.78,587.46 C632.32,587.36 620.16,587.21 619.75,587.14 C619.34,587.06 619.00,586.12 619.00,585.05 C619.00,583.97 618.44,581.87 617.76,580.38 C616.81,578.29 616.80,577.57 617.71,577.26 C618.54,576.99 618.62,576.14 617.98,574.44 C617.47,573.11 617.25,571.45 617.48,570.76 C617.71,570.07 618.15,566.38 618.46,562.56 C618.76,558.74 619.55,555.28 620.22,554.86 C621.82,553.87 621.19,553.38 617.25,552.54 C614.32,551.91 614.00,552.07 613.98,554.17 C613.98,555.45 613.58,557.11 613.11,557.86 C612.60,558.67 612.77,561.25 613.54,564.16 C614.74,568.69 614.75,574.58 613.57,575.76 C613.30,576.03 613.74,577.52 614.54,579.07 C615.46,580.85 615.63,582.11 615.00,582.50 C614.45,582.84 614.00,583.99 614.00,585.06 C614.00,587.43 611.44,587.81 605.00,586.39 C602.87,585.92 602.73,585.66 604.01,584.67 C604.84,584.03 606.10,582.20 606.80,580.62 C607.89,578.17 607.84,577.48 606.46,575.95 C605.18,574.54 605.08,573.73 605.96,572.08 C606.57,570.94 606.70,570.00 606.25,570.00 C605.80,570.00 605.36,569.10 605.27,568.00 C605.19,566.90 605.60,566.00 606.18,566.00 C606.82,566.00 606.95,565.12 606.50,563.75 C606.10,562.51 605.66,558.95 605.53,555.83 C605.25,548.93 603.31,544.60 598.30,539.69 C591.94,533.44 591.39,532.55 590.17,526.51 C588.69,519.13 588.70,519.00 590.50,519.00 C591.33,519.00 592.06,519.79 592.13,520.75 C593.05,533.36 598.86,541.85 610.47,547.53 C617.06,550.76 628.73,551.97 635.52,550.13 C650.60,546.06 663.14,527.32 659.95,513.64 C656.91,500.64 648.19,489.88 637.90,486.47 C631.04,484.19 617.37,484.80 610.96,487.67 C601.62,491.85 593.29,502.40 592.50,511.03 C592.08,515.60 591.63,516.50 590.19,515.62 C589.62,515.27 589.76,512.88 590.54,509.52 C591.24,506.48 591.66,504.00 591.46,504.00 C591.26,504.00 592.65,502.31 594.55,500.25 C596.44,498.19 597.99,496.12 598.00,495.65 C598.00,494.40 603.91,489.10 607.18,487.41 C608.73,486.61 610.00,485.61 610.00,485.19 C610.00,484.77 610.79,484.38 611.75,484.33 C616.35,484.06 619.00,483.49 619.00,482.78 C619.00,482.35 619.79,481.99 620.75,481.98 C621.98,481.97 622.14,481.74 621.26,481.18 C620.37,480.62 620.28,479.50 620.94,477.20 C621.58,474.99 621.52,474.00 620.76,474.00 C620.16,474.00 619.97,473.70 620.34,473.33 C620.70,472.96 620.25,471.83 619.34,470.82 C617.77,469.09 617.81,468.83 619.94,466.56 C621.19,465.24 621.90,463.65 621.52,463.03 C621.14,462.42 621.37,461.26 622.04,460.46 C622.98,459.32 622.98,458.68 622.01,457.51 C621.33,456.69 620.37,456.27 619.89,456.57 C618.46,457.45 618.87,453.27 620.36,451.79 C621.59,450.55 621.75,448.02 620.84,444.00 C620.56,442.77 621.96,442.47 628.50,442.34 C632.90,442.26 635.71,442.40 634.75,442.67 C633.79,442.93 633.00,443.53 633.00,443.99 C633.00,444.46 632.73,445.55 632.39,446.42 C631.95,447.57 632.79,448.43 635.39,449.52 C638.92,450.99 640.63,452.56 637.34,451.30 C636.22,450.87 635.91,451.04 636.39,451.83 C636.79,452.47 636.61,453.00 636.00,453.00 C635.39,453.00 635.13,453.40 635.43,453.89 C635.73,454.37 635.31,455.33 634.49,456.01 C632.85,457.37 632.40,461.49 634.00,460.50 C635.25,459.73 635.25,460.21 634.02,463.43 C633.37,465.16 633.39,466.00 634.08,466.00 C634.65,466.00 634.87,466.39 634.58,466.88 C634.28,467.36 635.11,467.75 636.41,467.75 C637.89,467.75 639.14,466.94 639.70,465.62 C640.74,463.20 640.72,444.97 639.68,443.28 C639.30,442.67 639.55,441.94 640.24,441.66 C640.93,441.39 619.90,441.11 593.50,441.05 C567.10,440.98 534.47,440.70 521.00,440.42 C497.47,439.92 496.37,439.98 493.19,441.97 C491.32,443.14 489.05,445.88 487.96,448.27 C486.82,450.78 486.04,451.71 486.02,450.56 C486.01,449.50 487.01,447.14 488.25,445.32 C488.87,444.41 489.23,443.64 489.74,442.97 C493.05,438.66 502.40,438.98 624.84,438.99 C704.20,438.99 753.73,439.36 755.17,439.95 C758.70,441.40 761.61,444.15 763.39,447.70 C764.83,450.56 764.99,458.46 764.88,521.20 C764.82,559.87 764.56,590.71 764.31,589.75 C763.73,587.53 757.79,587.35 756.00,589.50 ZM 826.96 615.32 L 822.89 621.00 L 817.11 621.00 C810.38,621.00 809.61,620.54 811.49,617.64 C812.25,616.46 813.58,613.41 814.44,610.85 C815.91,606.50 815.89,605.91 814.12,601.78 C812.10,597.06 807.21,592.28 803.67,591.56 C802.48,591.31 798.27,590.92 794.32,590.69 C789.10,590.39 786.64,589.78 785.32,588.45 C783.56,586.68 783.49,586.70 783.18,588.81 C783.00,590.02 782.48,591.00 782.02,591.00 C781.55,591.00 781.16,559.95 781.14,522.00 C781.11,461.74 781.29,453.00 782.59,453.00 C788.01,453.00 801.88,463.70 807.17,471.96 C808.86,474.61 815.04,491.61 822.42,513.96 C838.88,563.74 841.04,570.14 840.91,576.49 C840.89,577.57 840.80,578.64 840.71,579.92 C839.87,591.24 834.75,604.44 826.96,615.32 ZM 634.66 534.36 C626.98,538.00 614.49,535.30 610.03,529.04 C606.79,524.50 605.81,518.00 607.50,512.32 C610.64,501.74 622.95,496.03 633.30,500.35 C637.72,502.20 642.68,508.11 644.04,513.14 C646.18,521.11 641.83,530.96 634.66,534.36 ZM 658.40 502.15 C657.98,502.83 658.13,503.04 658.75,502.65 C660.04,501.86 659.24,498.10 657.29,495.85 C656.38,494.79 656.24,493.97 656.89,493.57 C658.06,492.84 657.87,482.15 656.66,480.23 C656.21,479.52 656.22,479.01 656.68,479.09 C658.55,479.42 659.42,478.92 658.26,478.18 C657.28,477.56 657.28,476.72 658.24,474.18 C659.20,471.63 659.19,470.54 658.19,468.94 C657.50,467.83 657.20,466.49 657.53,465.96 C657.85,465.43 657.59,465.00 656.94,465.00 C656.06,465.00 656.04,464.65 656.87,463.66 C657.48,462.92 657.72,462.05 657.39,461.72 C657.06,461.40 657.48,460.15 658.33,458.95 C659.49,457.28 659.73,455.03 659.34,449.42 L 658.83 442.07 L 669.16 441.75 C675.65,441.54 672.98,441.37 662.00,441.27 C650.38,441.18 645.28,441.44 646.81,442.05 C648.09,442.57 648.94,443.32 648.72,443.74 C645.98,448.81 645.97,451.83 648.67,456.91 C650.31,459.99 650.69,461.57 649.91,462.06 C649.28,462.45 649.19,463.00 649.70,463.32 C650.21,463.63 650.73,465.94 650.86,468.46 C651.03,471.88 650.69,473.18 649.49,473.64 C648.61,473.98 648.11,474.85 648.39,475.56 C648.66,476.28 648.58,477.05 648.19,477.27 C647.81,477.49 648.03,477.55 648.67,477.40 C649.32,477.24 650.54,478.18 651.39,479.47 C652.74,481.53 652.74,481.97 651.46,483.03 C650.66,483.70 650.00,485.09 650.00,486.12 C650.00,488.36 649.17,488.44 646.56,486.47 C643.53,484.18 642.41,484.75 645.37,487.07 C646.81,488.21 648.00,489.71 648.00,490.40 C648.00,491.98 652.44,496.23 653.25,495.42 C653.58,495.09 654.57,496.21 655.45,497.91 C656.33,499.61 657.52,501.00 658.08,501.00 C658.65,501.00 658.80,501.52 658.40,502.15 ZM 683.80 346.58 C683.59,348.26 681.08,347.86 680.63,346.08 C680.41,345.21 680.39,339.77 680.60,334.00 C681.01,322.25 681.03,321.51 680.93,319.75 C680.89,319.06 680.96,311.16 681.10,302.19 C681.31,287.48 681.52,285.79 683.19,284.90 C685.44,283.70 688.51,286.22 687.63,288.53 C687.32,289.34 687.40,290.00 687.81,290.00 C688.22,290.00 688.55,291.54 688.53,293.41 C688.51,295.57 688.13,296.52 687.50,296.00 C686.88,295.49 686.44,296.15 686.35,297.74 C686.24,299.52 686.45,299.89 687.04,298.93 C687.74,297.81 688.01,297.86 688.53,299.23 C688.89,300.15 688.89,301.38 688.53,301.95 C688.17,302.53 688.36,303.00 688.94,303.00 C690.77,303.00 690.10,305.83 687.75,308.02 C686.32,309.36 686.09,309.90 687.12,309.50 C688.31,309.05 688.88,309.60 689.26,311.57 C689.65,313.64 689.32,314.36 687.80,314.76 C686.29,315.16 686.14,315.47 687.17,316.12 C688.15,316.75 687.98,316.98 686.50,317.00 C684.96,317.02 684.82,317.23 685.89,317.91 C686.99,318.61 686.84,319.01 685.14,319.93 C683.96,320.56 683.04,321.62 683.08,322.29 C683.14,323.21 683.28,323.20 683.66,322.26 C684.01,321.39 684.70,321.31 685.95,321.97 C686.93,322.50 688.02,322.65 688.37,322.30 C689.58,321.09 688.99,323.57 687.60,325.56 C685.98,327.87 686.60,333.34 688.36,332.32 C688.99,331.95 688.70,332.57 687.72,333.69 C686.74,334.81 685.70,336.80 685.42,338.11 C684.75,341.16 683.98,345.19 683.80,346.58 ZM 615.68 532.15 C619.33,533.62 620.15,532.68 620.60,526.50 C620.85,522.99 620.55,519.58 619.87,518.28 C618.99,516.63 618.99,515.72 619.83,514.70 C620.69,513.67 620.61,512.87 619.51,511.42 C618.72,510.36 618.05,508.29 618.03,506.82 C617.99,503.68 620.39,502.56 626.41,502.89 C629.77,503.07 630.15,502.89 629.10,501.62 C628.04,500.34 627.25,500.32 623.49,501.45 C621.08,502.18 618.86,502.52 618.55,502.22 C618.25,501.92 618.00,502.19 618.00,502.83 C618.00,503.48 617.41,504.00 616.69,504.00 C615.96,504.00 614.14,505.28 612.64,506.85 C610.38,509.21 609.81,510.90 609.33,516.63 C608.79,523.09 608.92,523.76 611.43,526.73 C612.90,528.48 614.05,530.25 613.98,530.67 C613.91,531.08 614.67,531.75 615.68,532.15 ZM 593.36 583.77 C594.26,585.23 591.70,587.71 589.75,587.26 C587.22,586.67 586.47,582.46 588.38,579.54 C589.27,578.19 589.57,576.85 589.05,576.53 C588.15,575.98 588.42,567.24 589.50,561.75 C589.80,560.19 589.60,559.00 589.02,559.00 C588.46,559.00 588.00,558.07 588.00,556.94 C588.00,555.81 588.45,555.16 589.00,555.50 C590.60,556.49 590.15,552.37 588.51,551.01 C587.69,550.33 587.29,549.33 587.63,548.79 C587.96,548.25 588.24,545.05 588.24,541.68 C588.24,534.32 588.75,532.54 590.46,533.97 C591.13,534.53 591.94,534.72 592.26,534.41 C592.57,534.09 592.62,538.03 592.37,543.17 C592.11,548.30 591.93,552.95 591.97,553.50 C592.00,554.05 592.20,560.87 592.40,568.66 C592.61,576.45 593.04,583.25 593.36,583.77 ZM 573.97 587.04 C570.27,589.38 567.70,586.54 569.10,581.65 C569.70,579.55 569.54,577.78 568.56,575.82 C567.79,574.27 567.47,573.00 567.86,573.00 C568.59,573.00 569.05,570.61 569.25,565.80 C569.31,564.32 569.70,563.32 570.11,563.57 C570.52,563.82 571.14,563.58 571.49,563.02 C571.84,562.46 571.74,562.00 571.28,562.00 C568.78,562.00 567.83,550.24 569.59,541.21 C570.50,536.59 572.46,537.79 572.68,543.08 C572.78,545.51 573.03,550.34 573.23,553.82 C573.42,557.29 573.26,560.34 572.87,560.58 C572.47,560.83 572.37,562.48 572.65,564.26 C572.93,566.04 573.12,568.17 573.08,569.00 C572.80,575.09 573.21,579.94 574.24,582.78 C575.24,585.55 575.19,586.27 573.97,587.04 ZM 632.26 532.31 C632.94,532.56 635.29,531.03 637.47,528.90 C640.83,525.63 641.53,524.21 642.02,519.76 C642.70,513.51 640.50,508.00 636.24,505.29 C634.73,504.33 633.22,503.15 632.88,502.67 C632.53,502.18 631.96,502.25 631.61,502.82 C631.26,503.39 631.85,504.13 632.92,504.48 C634.01,504.82 635.41,506.71 636.08,508.73 C637.17,512.04 637.08,512.52 635.05,514.16 L 632.83 515.96 L 634.85 518.79 C637.62,522.68 638.43,526.39 636.81,527.74 C636.09,528.34 635.24,528.76 634.93,528.66 C634.61,528.57 633.61,529.25 632.69,530.17 C631.46,531.39 631.35,531.96 632.26,532.31 ZM 731.80 254.88 L 731.50 259.50 L 712.43 259.56 C697.97,259.60 693.07,259.30 692.14,258.31 C691.14,257.23 694.12,257.00 708.76,257.00 C727.98,257.00 729.00,256.74 729.00,251.83 C729.00,249.74 729.38,249.21 730.55,249.66 C731.71,250.10 732.02,251.43 731.80,254.88 ZM 644.02 381.23 C637.01,383.72 628.06,384.73 620.93,383.82 C612.71,382.78 597.87,376.89 592.50,372.54 C591.40,371.64 592.97,372.24 596.00,373.86 C599.03,375.47 602.62,377.12 604.00,377.52 C605.38,377.91 608.46,379.12 610.85,380.19 C613.24,381.26 616.61,382.04 618.35,381.92 C620.08,381.80 623.22,382.05 625.33,382.48 C627.80,382.98 629.94,382.83 631.37,382.07 C632.59,381.42 634.73,381.09 636.13,381.35 C637.68,381.63 641.68,380.50 646.34,378.48 C650.55,376.64 654.01,375.45 654.02,375.82 C654.02,376.20 654.36,376.00 654.77,375.38 C655.56,374.18 660.00,372.51 660.00,373.42 C660.00,374.25 650.27,379.01 644.02,381.23 ZM 651.62 568.22 C652.04,569.66 652.44,569.74 654.06,568.73 C655.13,568.06 656.03,567.18 656.07,566.76 C656.11,566.34 656.17,563.86 656.19,561.25 C656.22,558.64 656.57,556.05 656.96,555.50 C657.36,554.95 656.70,552.79 655.50,550.71 C653.81,547.79 653.07,547.22 652.27,548.21 C651.21,549.51 650.71,565.04 651.62,568.22 ZM 612.17 455.34 C612.25,466.22 609.82,466.11 608.42,455.17 C608.18,453.31 607.76,451.41 607.48,450.96 C607.20,450.51 607.43,449.85 608.00,449.50 C608.57,449.15 608.80,448.49 608.52,448.04 C608.24,447.58 608.85,446.17 609.88,444.90 L 611.75 442.59 L 611.93 445.55 C612.04,447.17 612.14,451.58 612.17,455.34 ZM 679.68 358.22 C676.49,361.37 672.44,364.91 670.68,366.07 C668.29,367.66 668.56,367.23 671.77,364.34 C674.11,362.23 676.02,360.13 676.02,359.68 C675.99,358.18 691.70,340.36 692.41,341.09 C693.26,341.95 685.24,352.73 679.68,358.22 ZM 575.37 170.25 C574.52,172.59 573.44,177.65 572.97,181.50 L 572.12 188.50 L 572.44 179.22 C572.74,170.15 572.70,169.96 570.63,170.61 C569.46,170.97 566.59,172.58 564.25,174.19 C561.91,175.79 560.00,176.65 560.00,176.10 C560.00,174.41 573.25,166.00 575.91,166.00 C576.50,166.00 576.27,167.76 575.37,170.25 ZM 612.08 475.99 C611.90,482.28 611.36,483.12 608.28,481.94 C606.15,481.12 606.12,480.95 607.56,477.50 C608.39,475.53 608.83,473.53 608.54,473.06 C608.25,472.59 608.89,471.15 609.97,469.85 C612.20,467.18 612.31,467.49 612.08,475.99 ZM 591.67 489.87 C591.58,493.79 591.40,497.00 591.29,497.00 C591.17,497.00 590.63,496.18 590.09,495.17 C588.82,492.79 589.21,485.39 590.69,483.91 C591.57,483.03 591.81,484.48 591.67,489.87 ZM 592.15 470.00 C592.07,471.65 591.56,473.00 591.02,473.00 C589.65,473.00 588.68,468.57 589.49,466.02 C590.18,463.85 592.58,463.70 592.40,465.83 C592.34,466.48 592.23,468.35 592.15,470.00 ZM 700.57 320.17 C700.19,322.55 699.26,325.85 698.49,327.50 C697.11,330.45 697.10,330.43 697.57,325.57 C697.83,322.86 698.54,320.05 699.14,319.33 C699.74,318.60 699.98,317.04 699.67,315.86 C699.28,314.34 699.42,314.02 700.18,314.78 C700.84,315.44 700.99,317.52 700.57,320.17 ZM 477.75 527.00 C475.69,527.37 473.04,528.54 471.86,529.59 C469.73,531.49 469.72,531.49 471.08,529.28 C472.78,526.51 477.39,524.52 479.73,525.54 C481.10,526.13 480.65,526.46 477.75,527.00 ZM 687.00 258.28 C687.00,260.07 682.77,260.19 681.21,258.44 C680.11,257.22 680.45,257.00 683.46,257.00 C685.67,257.00 687.00,257.48 687.00,258.28 ZM 637.30 477.37 C636.95,477.72 637.16,478.00 637.77,478.00 C639.09,478.00 640.37,474.41 639.53,473.05 C639.20,472.52 638.28,472.34 637.49,472.64 C636.44,473.05 636.30,473.69 636.98,474.97 C637.50,475.94 637.65,477.02 637.30,477.37 ZM 553.09 582.26 C553.84,583.56 553.73,584.41 552.65,585.49 C551.37,586.77 551.12,586.76 550.60,585.39 C549.70,583.06 549.88,581.81 551.00,582.50 C551.55,582.84 552.01,582.53 552.03,581.81 C552.05,581.01 552.46,581.18 553.09,582.26 ZM 553.90 572.62 C552.42,574.40 551.36,574.37 550.65,572.53 C549.95,570.71 551.29,569.79 553.44,570.61 C554.69,571.09 554.79,571.55 553.90,572.62 ZM 684.01 168.55 C686.21,169.77 686.27,169.93 684.50,169.95 C682.07,169.97 679.45,168.46 680.66,167.71 C681.13,167.42 682.64,167.80 684.01,168.55 ZM 648.00 274.00 C646.08,275.24 645.27,275.24 644.50,274.00 C644.14,273.42 645.07,273.01 646.69,273.02 C648.87,273.03 649.16,273.25 648.00,274.00 Z" fill="rgba(250,244,254,1)"/>
<path d="M 756.00 589.50 C757.79,587.35 763.73,587.53 764.31,589.75 C764.56,590.71 764.82,559.87 764.88,521.20 C764.97,472.08 764.88,456.58 764.16,450.79 C764.89,456.59 765.00,472.11 765.00,520.95 L 765.00 591.00 L 666.25 591.16 C544.24,591.37 488.75,591.02 487.69,590.04 C487.25,589.62 486.80,576.13 486.69,560.06 L 486.50 530.82 L 484.14 528.91 C482.17,527.31 479.53,526.74 477.08,527.14 C477.31,527.08 477.53,527.04 477.75,527.00 C480.65,526.46 481.10,526.13 479.73,525.54 C477.39,524.52 472.78,526.51 471.08,529.28 C469.72,531.49 469.73,531.49 471.86,529.59 C472.35,529.16 473.09,528.70 473.94,528.29 C473.41,528.62 472.90,529.00 472.45,529.45 L 470.00 531.91 L 470.00 560.25 C470.00,580.97 469.68,588.92 468.80,589.80 C468.08,590.52 464.63,591.00 460.24,591.00 C446.52,591.00 440.44,594.14 438.15,602.41 C437.15,606.06 437.93,612.17 439.87,615.77 C440.54,617.02 440.82,618.48 440.49,619.02 C440.15,619.56 437.92,620.00 435.53,620.00 C430.48,620.00 428.58,618.20 422.01,607.14 C413.74,593.21 411.10,580.21 413.98,567.54 C416.33,557.16 427.48,525.45 427.81,528.21 C427.98,529.70 426.75,535.07 425.06,540.13 C422.55,547.69 421.89,549.65 422.22,549.84 C422.35,549.91 422.62,549.73 422.99,549.51 C423.55,549.16 423.72,549.56 423.38,550.44 C423.06,551.29 422.39,551.74 421.90,551.44 C421.40,551.13 421.00,551.47 420.99,552.19 C420.98,552.91 419.83,555.96 418.43,558.97 C414.96,566.43 413.42,577.90 414.81,585.83 C415.41,589.21 416.36,592.54 416.94,593.24 C417.51,593.93 419.74,597.93 421.90,602.13 C429.11,616.16 430.58,618.00 434.51,618.00 C438.35,618.00 438.76,616.96 436.50,613.00 C433.37,607.53 435.31,598.95 440.88,593.62 C444.43,590.22 446.36,589.73 458.25,589.26 L 468.00 588.87 L 468.00 529.18 L 471.08 526.59 C472.77,525.16 474.79,524.00 475.58,524.00 C476.36,524.00 477.00,523.61 477.00,523.12 C477.00,521.61 474.61,520.38 471.86,520.49 C469.60,520.58 469.33,520.29 469.97,518.54 C470.38,517.42 471.79,516.34 473.11,516.15 C476.49,515.65 478.64,512.00 475.55,512.00 C474.75,512.00 472.73,510.54 471.06,508.75 L 468.01 505.50 L 468.00 480.75 C468.00,462.17 467.70,456.00 466.80,456.00 C465.92,456.00 465.90,455.70 466.71,454.89 C469.55,452.05 470.00,455.38 470.00,479.48 L 470.00 503.85 L 472.59 506.92 C475.80,510.74 479.76,510.97 483.69,507.58 L 486.50 505.16 L 486.50 476.33 C486.50,461.66 486.53,454.39 486.86,450.40 C487.16,449.93 487.54,449.21 487.96,448.27 C489.05,445.88 491.32,443.14 493.19,441.97 C496.37,439.98 497.47,439.92 521.00,440.42 C534.47,440.70 567.10,440.98 593.50,441.05 C619.90,441.11 640.93,441.39 640.24,441.66 C639.55,441.94 639.30,442.67 639.68,443.28 C640.72,444.97 640.74,463.20 639.70,465.62 C639.14,466.94 637.89,467.75 636.41,467.75 C635.11,467.75 634.28,467.36 634.58,466.88 C634.87,466.39 634.65,466.00 634.08,466.00 C633.39,466.00 633.37,465.16 634.02,463.43 C635.25,460.21 635.25,459.73 634.00,460.50 C632.40,461.49 632.85,457.37 634.49,456.01 C635.31,455.33 635.73,454.37 635.43,453.89 C635.13,453.40 635.39,453.00 636.00,453.00 C636.61,453.00 636.79,452.47 636.39,451.83 C635.91,451.04 636.22,450.87 637.34,451.30 C640.63,452.56 638.92,450.99 635.39,449.52 C632.79,448.43 631.95,447.57 632.39,446.42 C632.73,445.55 633.00,444.46 633.00,443.99 C633.00,443.53 633.79,442.93 634.75,442.67 C635.71,442.40 632.90,442.26 628.50,442.34 C621.96,442.47 620.56,442.77 620.84,444.00 C621.75,448.02 621.59,450.55 620.36,451.79 C618.87,453.27 618.46,457.45 619.89,456.57 C620.37,456.27 621.33,456.69 622.01,457.51 C622.98,458.68 622.98,459.32 622.04,460.46 C621.37,461.26 621.14,462.42 621.52,463.03 C621.90,463.65 621.19,465.24 619.94,466.56 C617.81,468.83 617.77,469.09 619.34,470.82 C620.25,471.83 620.70,472.96 620.34,473.33 C619.97,473.70 620.16,474.00 620.76,474.00 C621.52,474.00 621.58,474.99 620.94,477.20 C620.28,479.50 620.37,480.62 621.26,481.18 C622.14,481.74 621.98,481.97 620.75,481.98 C619.79,481.99 619.00,482.35 619.00,482.78 C619.00,483.49 616.35,484.06 611.75,484.33 C610.79,484.38 610.00,484.77 610.00,485.19 C610.00,485.61 608.73,486.61 607.18,487.41 C603.91,489.10 598.00,494.40 598.00,495.65 C597.99,496.12 596.44,498.19 594.55,500.25 C592.65,502.31 591.26,504.00 591.46,504.00 C591.66,504.00 591.24,506.48 590.54,509.52 C589.76,512.88 589.62,515.27 590.19,515.62 C591.04,516.14 591.54,516.04 591.90,514.93 C591.83,516.64 591.88,518.43 592.05,520.32 C591.83,519.56 591.20,519.00 590.50,519.00 C588.70,519.00 588.69,519.13 590.17,526.51 C591.39,532.55 591.94,533.44 598.30,539.69 C603.31,544.60 605.25,548.93 605.53,555.83 C605.66,558.95 606.10,562.51 606.50,563.75 C606.95,565.12 606.82,566.00 606.18,566.00 C605.60,566.00 605.19,566.90 605.27,568.00 C605.36,569.10 605.80,570.00 606.25,570.00 C606.70,570.00 606.57,570.94 605.96,572.08 C605.08,573.73 605.18,574.54 606.46,575.95 C607.84,577.48 607.89,578.17 606.80,580.62 C606.10,582.20 604.84,584.03 604.01,584.67 C602.73,585.66 602.87,585.92 605.00,586.39 C611.44,587.81 614.00,587.43 614.00,585.06 C614.00,583.99 614.45,582.84 615.00,582.50 C615.63,582.11 615.46,580.85 614.54,579.07 C613.74,577.52 613.30,576.03 613.57,575.76 C614.75,574.58 614.74,568.69 613.54,564.16 C612.77,561.25 612.60,558.67 613.11,557.86 C613.58,557.11 613.98,555.45 613.98,554.17 C614.00,552.07 614.32,551.91 617.25,552.54 C621.19,553.38 621.82,553.87 620.22,554.86 C619.55,555.28 618.76,558.74 618.46,562.56 C618.15,566.38 617.71,570.07 617.48,570.76 C617.25,571.45 617.47,573.11 617.98,574.44 C618.62,576.14 618.54,576.99 617.71,577.26 C616.80,577.57 616.81,578.29 617.76,580.38 C618.44,581.87 619.00,583.97 619.00,585.05 C619.00,586.12 619.34,587.06 619.75,587.14 C620.16,587.21 632.32,587.36 646.78,587.46 C665.33,587.60 673.40,588.00 674.23,588.83 C675.74,590.34 677.34,590.35 676.40,588.84 C675.89,588.02 676.38,587.90 678.09,588.45 C682.23,589.77 699.29,590.29 698.55,589.07 C698.18,588.48 698.60,588.00 699.50,588.00 C700.39,588.00 700.84,588.45 700.50,589.00 C700.13,589.60 701.49,590.00 703.94,590.00 C706.17,590.00 708.00,589.55 708.00,589.00 C708.00,587.66 717.70,587.71 718.54,589.06 C719.17,590.08 731.24,589.59 733.06,588.46 C733.50,588.19 734.14,588.42 734.49,588.98 C734.84,589.54 736.10,589.99 737.31,589.98 C739.09,589.97 739.22,589.79 738.00,589.00 C736.90,588.29 737.64,588.03 740.75,588.02 C743.09,588.01 745.00,588.42 745.00,588.93 C745.00,591.02 754.33,591.51 756.00,589.50 ZM 679.68 358.22 C682.05,355.88 684.86,352.59 687.25,349.50 C686.60,350.42 685.99,351.26 685.42,351.97 C679.30,359.72 669.90,367.56 659.95,373.54 C659.98,373.49 660.00,373.45 660.00,373.42 C660.00,372.51 655.56,374.18 654.77,375.38 C654.36,376.00 654.02,376.20 654.02,375.82 C654.01,375.45 650.55,376.64 646.34,378.48 C641.68,380.50 637.68,381.63 636.13,381.35 C634.73,381.09 632.59,381.42 631.37,382.07 C629.94,382.83 627.80,382.98 625.33,382.48 C623.22,382.05 620.08,381.80 618.35,381.92 C616.61,382.04 613.24,381.26 610.85,380.19 C608.46,379.12 605.38,377.91 604.00,377.52 C602.62,377.12 599.03,375.47 596.00,373.86 C593.67,372.61 592.20,371.97 592.15,372.15 C583.73,366.68 575.83,359.75 569.90,352.24 C564.36,345.23 557.30,333.00 558.79,333.00 C559.32,333.00 560.32,334.35 561.00,336.01 C561.69,337.66 563.54,340.47 565.11,342.26 L 567.97 345.50 L 567.98 342.81 C567.99,341.33 567.58,339.86 567.07,339.54 C565.56,338.61 563.00,328.58 563.00,323.60 C563.00,321.07 562.66,319.05 562.25,319.12 C561.84,319.18 560.58,319.18 559.45,319.12 C557.46,319.00 557.40,318.41 557.22,295.25 C556.99,266.99 557.27,265.40 561.71,269.75 C562.69,270.71 563.41,271.34 563.31,271.14 C563.21,270.95 563.55,270.27 564.08,269.64 C564.60,269.01 566.07,266.92 567.33,265.00 C569.52,261.67 571.08,261.08 575.00,262.11 C575.83,262.32 576.83,262.95 577.23,263.50 C577.64,264.06 577.98,263.67 577.98,262.63 C578.00,261.04 578.24,260.95 579.57,262.05 C580.86,263.13 581.61,263.07 583.93,261.70 C585.46,260.80 587.08,260.38 587.52,260.78 C587.96,261.17 588.08,260.83 587.79,260.00 C587.02,257.81 588.70,254.00 590.43,254.00 C592.30,254.00 594.00,257.06 594.00,260.43 C594.00,261.85 594.38,263.00 594.83,263.00 C595.29,263.00 595.67,263.58 595.67,264.28 C595.67,265.89 598.97,271.00 600.01,271.00 C601.04,271.00 602.00,268.38 602.00,265.54 C602.00,262.60 604.07,260.80 606.03,262.04 C606.84,262.55 608.44,262.98 609.58,262.98 C610.77,262.99 612.24,264.08 613.00,265.50 C613.94,267.26 615.11,267.97 616.92,267.87 C618.34,267.79 620.40,268.05 621.50,268.44 L 623.50 269.15 L 621.50 267.90 C620.40,267.21 619.04,266.02 618.47,265.27 C617.91,264.51 616.68,263.78 615.74,263.64 C613.47,263.30 608.06,259.03 599.26,250.61 L 592.03 243.69 L 586.62 248.59 C576.75,257.54 571.66,260.03 563.39,259.94 C558.84,259.89 558.01,259.67 559.75,258.97 C560.99,258.47 562.58,258.28 563.28,258.55 C565.45,259.39 575.91,255.23 580.96,251.53 C583.60,249.59 586.98,246.41 588.47,244.45 C589.96,242.49 591.55,241.03 591.99,241.20 C592.44,241.36 596.33,244.83 600.63,248.91 C604.94,252.98 610.94,257.87 613.98,259.78 C617.02,261.68 621.08,264.29 623.01,265.59 C627.44,268.55 636.70,271.78 644.50,273.08 C644.71,273.11 644.92,273.15 645.15,273.18 C644.54,273.36 644.28,273.65 644.50,274.00 C645.27,275.24 646.08,275.24 648.00,274.00 C648.16,273.90 648.29,273.81 648.39,273.72 C651.09,274.17 654.01,274.66 656.00,275.00 C659.03,275.51 670.61,275.97 681.75,276.03 C693.56,276.09 702.00,276.52 702.00,277.07 C702.00,277.58 701.33,278.00 700.50,278.00 C699.30,278.00 699.00,279.51 699.00,285.56 C699.00,290.34 699.37,292.89 700.00,292.50 C700.63,292.11 700.99,294.24 700.98,298.19 C700.97,302.63 700.68,304.06 700.00,303.00 C699.26,301.85 699.03,302.20 699.03,304.50 C699.03,306.60 699.29,307.09 699.91,306.12 C700.52,305.14 700.97,305.89 701.44,308.67 C701.83,310.96 701.48,314.96 700.71,319.10 C700.93,316.97 700.75,315.35 700.18,314.78 C699.42,314.02 699.28,314.34 699.67,315.86 C699.98,317.04 699.74,318.60 699.14,319.33 C698.54,320.05 697.83,322.86 697.57,325.57 C697.10,330.43 697.11,330.45 698.49,327.50 C698.58,327.29 698.68,327.06 698.78,326.81 C698.24,328.49 697.65,329.98 697.04,331.15 C695.93,333.27 695.24,335.00 695.50,335.00 C696.01,335.00 694.56,337.87 692.47,341.40 C692.49,341.25 692.47,341.15 692.41,341.09 C691.70,340.36 675.99,358.18 676.02,359.68 C676.02,360.13 674.11,362.23 671.77,364.34 C668.56,367.23 668.29,367.66 670.68,366.07 C672.44,364.91 676.49,361.37 679.68,358.22 ZM 687.00 258.28 C687.00,257.48 685.67,257.00 683.46,257.00 C680.45,257.00 680.11,257.22 681.21,258.44 C681.74,259.03 682.57,259.41 683.44,259.58 C671.00,259.58 661.42,259.49 660.00,259.35 C655.16,258.89 645.92,256.93 644.05,255.98 C643.20,255.54 640.47,254.65 638.00,253.98 C626.65,250.95 610.73,238.38 602.44,225.91 C593.59,212.60 588.06,191.69 590.06,179.12 C591.24,171.72 594.63,165.11 598.75,162.18 C603.49,158.81 608.92,158.01 627.00,158.01 C645.24,158.01 661.08,159.75 667.58,162.47 C669.60,163.31 671.98,164.00 672.87,164.01 C674.53,164.02 678.01,165.49 682.12,167.77 C681.45,167.59 680.91,167.56 680.66,167.71 C679.45,168.46 682.07,169.97 684.50,169.95 C685.10,169.94 685.49,169.92 685.66,169.85 C687.99,171.29 690.41,172.91 692.73,174.61 C700.31,180.20 712.07,191.60 714.18,195.40 C715.08,197.03 714.94,197.22 713.16,196.75 C709.41,195.77 709.57,200.78 713.35,202.56 C715.43,203.54 715.57,203.42 715.19,200.81 C714.96,199.26 715.18,198.00 715.68,198.00 C717.13,198.00 723.68,210.96 725.54,217.50 C726.47,220.80 727.63,223.99 728.10,224.58 C729.33,226.13 731.70,244.18 731.82,251.97 C731.70,250.60 731.30,249.94 730.55,249.66 C729.38,249.21 729.00,249.74 729.00,251.83 C729.00,256.74 727.98,257.00 708.76,257.00 C694.12,257.00 691.14,257.23 692.14,258.31 C692.85,259.07 695.89,259.42 703.78,259.53 L 697.50 259.55 C693.39,259.57 689.37,259.58 685.57,259.58 C686.40,259.39 687.00,258.95 687.00,258.28 ZM 463.22 586.14 C461.22,587.16 459.56,587.99 459.54,587.97 C459.52,587.95 458.44,587.05 457.14,585.97 C454.80,584.02 454.82,583.15 457.24,579.72 C458.12,578.48 458.18,577.72 457.43,577.22 C456.10,576.33 454.66,572.67 455.95,573.47 C456.47,573.79 456.78,572.80 456.65,571.27 C456.52,569.75 456.72,566.73 457.10,564.58 C457.59,561.79 457.39,560.25 456.40,559.26 C455.43,558.29 455.29,557.32 455.94,556.11 C456.46,555.14 456.66,552.14 456.39,549.43 C456.12,546.72 455.83,543.49 455.75,542.25 C455.67,541.01 454.95,540.00 454.15,540.00 C452.89,540.00 452.88,539.76 454.10,538.25 C457.01,534.62 458.04,531.95 457.21,530.23 C456.74,529.28 456.49,524.90 456.64,520.50 C456.79,516.10 456.43,510.59 455.83,508.26 C455.00,505.01 455.04,503.66 455.99,502.51 C457.00,501.30 456.99,500.70 455.99,499.49 C454.97,498.26 455.05,496.96 456.39,492.71 C457.72,488.49 457.82,486.79 456.92,484.20 C456.01,481.58 456.11,480.17 457.49,476.74 C458.42,474.41 459.18,472.40 459.18,472.27 C459.18,472.15 459.41,471.14 459.70,470.02 C460.58,466.66 462.00,467.75 462.00,471.80 C462.00,473.89 462.49,476.09 463.10,476.70 C463.89,477.49 463.85,479.32 462.95,483.33 C461.90,488.03 461.94,489.37 463.24,492.19 C464.33,494.57 464.69,498.16 464.51,505.00 C464.37,510.23 464.70,515.06 465.25,515.75 C466.17,516.90 465.90,523.16 464.62,530.50 C463.41,537.42 463.28,541.05 464.21,541.63 C464.82,542.01 464.94,544.70 464.53,548.55 C464.11,552.46 464.26,555.63 464.93,556.87 C465.64,558.20 465.67,559.09 465.00,559.50 C463.69,560.31 463.70,570.30 465.01,571.61 C465.70,572.30 465.69,573.60 464.98,575.63 C464.17,577.94 464.27,579.29 465.40,581.46 C466.83,584.24 466.80,584.32 463.22,586.14 ZM 604.67 226.75 C607.46,230.48 609.00,230.90 609.00,227.95 C609.00,225.29 606.26,220.00 604.88,220.00 C604.21,220.00 603.94,218.10 604.15,215.00 C604.34,212.25 604.12,209.87 603.66,209.72 C602.61,209.37 601.75,193.27 602.76,192.65 C603.17,192.40 603.49,190.16 603.48,187.68 C603.46,185.09 603.86,183.41 604.40,183.74 C604.93,184.07 605.06,183.60 604.70,182.66 C604.35,181.75 604.41,181.00 604.82,181.00 C605.24,181.00 605.57,177.56 605.54,173.35 C605.52,169.01 605.50,166.88 606.55,165.86 C607.56,164.86 609.59,164.90 613.61,164.95 C616.28,164.99 618.62,164.30 620.27,163.00 C623.15,160.73 624.66,160.47 625.22,162.15 C625.47,162.92 627.92,163.18 632.55,162.95 C642.97,162.42 650.09,162.83 651.56,164.05 C653.10,165.33 662.62,164.22 661.31,162.91 C659.53,161.13 640.87,159.87 623.00,160.33 C612.83,160.59 603.93,160.93 603.23,161.07 C602.53,161.21 600.00,163.43 597.60,165.99 C593.79,170.07 593.08,171.56 591.95,177.87 C589.31,192.67 594.72,213.49 604.67,226.75 ZM 424.39 598.43 C422.63,603.01 419.83,595.39 419.85,586.09 C419.86,583.01 419.85,579.60 419.84,578.50 C419.72,566.55 420.24,557.54 421.18,555.27 C422.07,553.09 422.40,552.87 422.73,554.25 C422.96,555.21 423.55,556.00 424.04,556.00 C424.53,556.00 424.67,556.70 424.34,557.55 C424.00,558.43 424.52,559.66 425.55,560.41 C427.38,561.75 427.67,562.55 428.83,569.50 C429.42,573.00 429.87,573.54 432.45,573.84 C434.08,574.02 436.02,574.92 436.77,575.84 C438.00,577.34 438.04,577.31 437.18,575.58 C436.50,574.20 436.72,572.78 437.95,570.58 C438.90,568.88 439.60,566.51 439.51,565.30 C439.41,563.96 439.76,563.35 440.42,563.74 C441.01,564.09 440.90,563.64 440.16,562.74 C438.65,560.87 439.54,558.61 441.49,559.36 C442.33,559.68 442.73,559.05 442.64,557.52 C442.56,556.24 442.23,555.36 441.90,555.56 C440.60,556.37 438.85,548.49 439.78,546.00 C440.29,544.62 440.53,542.98 440.30,542.34 C440.08,541.70 440.38,540.88 440.97,540.52 C441.56,540.15 441.93,540.43 441.77,541.14 C441.58,542.05 442.54,542.34 445.00,542.12 C446.92,541.94 448.73,541.48 449.00,541.08 C449.27,540.68 450.62,540.68 452.00,541.08 C454.41,541.77 454.42,541.80 452.23,541.90 C450.25,541.99 450.00,542.44 450.33,545.41 C450.63,548.19 450.28,549.01 448.41,549.86 C444.37,551.70 446.41,556.18 451.40,556.45 C452.61,556.52 453.08,559.96 451.91,560.12 C451.41,560.19 450.53,560.31 449.96,560.38 C449.39,560.44 448.61,560.97 448.21,561.55 C447.25,562.97 443.00,563.15 443.00,561.77 C443.00,561.16 442.76,560.90 442.48,561.19 C441.52,562.15 443.19,565.00 444.31,564.31 C444.92,563.93 446.48,563.51 447.79,563.37 C449.54,563.19 450.02,563.51 449.60,564.61 C449.28,565.43 449.43,565.85 449.93,565.54 C450.43,565.23 451.53,565.68 452.38,566.53 C453.62,567.76 453.70,568.56 452.80,570.53 C452.18,571.89 451.27,573.00 450.78,573.00 C450.29,573.00 450.16,573.45 450.50,574.00 C450.84,574.55 450.61,575.00 450.00,575.00 C449.39,575.00 449.13,575.40 449.43,575.89 C449.73,576.38 448.34,576.72 446.33,576.64 C444.02,576.55 442.51,577.01 442.21,577.89 C441.92,578.76 442.18,579.01 442.91,578.55 C443.56,578.15 444.74,578.37 445.53,579.03 C446.32,579.68 448.97,580.28 451.40,580.34 C453.84,580.41 455.60,580.84 455.31,581.30 C455.03,581.76 454.19,581.90 453.45,581.62 C452.63,581.31 452.30,581.62 452.60,582.41 C453.40,584.49 446.95,586.49 440.64,586.11 C439.10,586.02 438.85,585.34 439.17,581.98 C439.55,578.06 439.48,577.97 436.53,578.15 C434.86,578.25 432.56,578.03 431.40,577.65 C428.68,576.76 423.87,579.17 424.93,580.89 C425.36,581.58 425.53,583.35 425.31,584.82 C424.20,592.32 424.29,593.02 426.64,595.56 C428.84,597.93 428.87,598.09 427.02,597.51 C425.66,597.08 424.79,597.38 424.39,598.43 ZM 486.22 517.14 C487.93,518.19 489.97,516.99 490.46,514.64 C490.71,513.46 491.40,506.46 492.01,499.07 C493.17,484.81 493.46,483.58 495.32,484.64 C496.00,485.03 496.15,484.93 495.67,484.41 C495.21,483.91 494.33,483.50 493.71,483.50 C492.14,483.50 491.20,479.03 492.09,475.79 C492.50,474.30 492.60,472.17 492.31,471.06 C491.49,467.94 492.77,464.29 494.87,463.74 C496.32,463.36 496.75,462.39 496.67,459.62 C496.59,456.54 496.24,456.00 494.29,456.00 C491.91,456.00 491.57,455.29 492.62,452.56 C493.10,451.29 493.54,451.20 494.65,452.12 C495.76,453.05 496.37,452.89 497.50,451.40 C498.29,450.35 498.95,448.95 498.97,448.27 C498.99,447.37 499.68,447.31 501.62,448.05 C503.52,448.77 504.67,448.69 505.81,447.77 C507.15,446.68 507.27,446.77 506.66,448.39 C506.06,449.99 506.19,450.09 507.47,449.03 C508.30,448.34 508.74,447.39 508.46,446.93 C507.45,445.30 512.89,442.77 516.51,443.19 C518.69,443.45 519.90,443.20 519.68,442.55 C519.45,441.89 514.75,441.50 507.08,441.50 L 494.84 441.50 L 491.42 445.24 L 488.00 448.97 L 487.96 477.24 C487.93,505.49 487.93,505.50 485.55,508.41 C483.60,510.80 483.35,511.78 484.15,513.89 C484.69,515.30 485.62,516.76 486.22,517.14 ZM 658.40 502.15 C658.80,501.52 658.65,501.00 658.08,501.00 C657.52,501.00 656.33,499.61 655.45,497.91 C654.57,496.21 653.58,495.09 653.25,495.42 C652.44,496.23 648.00,491.98 648.00,490.40 C648.00,489.71 646.81,488.21 645.37,487.07 C642.41,484.75 643.53,484.18 646.56,486.47 C649.17,488.44 650.00,488.36 650.00,486.12 C650.00,485.09 650.66,483.70 651.46,483.03 C652.74,481.97 652.74,481.53 651.39,479.47 C650.54,478.18 649.32,477.24 648.67,477.40 C648.03,477.55 647.81,477.49 648.19,477.27 C648.58,477.05 648.66,476.28 648.39,475.56 C648.11,474.85 648.61,473.98 649.49,473.64 C650.69,473.18 651.03,471.88 650.86,468.46 C650.73,465.94 650.21,463.63 649.70,463.32 C649.19,463.00 649.28,462.45 649.91,462.06 C650.69,461.57 650.31,459.99 648.67,456.91 C645.97,451.83 645.98,448.81 648.72,443.74 C648.94,443.32 648.09,442.57 646.81,442.05 C645.28,441.44 650.38,441.18 662.00,441.27 C672.98,441.37 675.65,441.54 669.16,441.75 L 658.83 442.07 L 659.34 449.42 C659.73,455.03 659.49,457.28 658.33,458.95 C657.48,460.15 657.06,461.40 657.39,461.72 C657.72,462.05 657.48,462.92 656.87,463.66 C656.04,464.65 656.06,465.00 656.94,465.00 C657.59,465.00 657.85,465.43 657.53,465.96 C657.20,466.49 657.50,467.83 658.19,468.94 C659.19,470.54 659.20,471.63 658.24,474.18 C657.28,476.72 657.28,477.56 658.26,478.18 C659.42,478.92 658.55,479.42 656.68,479.09 C656.22,479.01 656.21,479.52 656.66,480.23 C657.87,482.15 658.06,492.84 656.89,493.57 C656.24,493.97 656.38,494.79 657.29,495.85 C659.24,498.10 660.04,501.86 658.75,502.65 C658.13,503.04 657.98,502.83 658.40,502.15 ZM 683.80 346.58 C683.98,345.19 684.75,341.16 685.42,338.11 C685.70,336.80 686.74,334.81 687.72,333.69 C688.70,332.57 688.99,331.95 688.36,332.32 C686.60,333.34 685.98,327.87 687.60,325.56 C688.99,323.57 689.58,321.09 688.37,322.30 C688.02,322.65 686.93,322.50 685.95,321.97 C684.70,321.31 684.01,321.39 683.66,322.26 C683.28,323.20 683.14,323.21 683.08,322.29 C683.04,321.62 683.96,320.56 685.14,319.93 C686.84,319.01 686.99,318.61 685.89,317.91 C684.82,317.23 684.96,317.02 686.50,317.00 C687.98,316.98 688.15,316.75 687.17,316.12 C686.14,315.47 686.29,315.16 687.80,314.76 C689.32,314.36 689.65,313.64 689.26,311.57 C688.88,309.60 688.31,309.05 687.12,309.50 C686.09,309.90 686.32,309.36 687.75,308.02 C690.10,305.83 690.77,303.00 688.94,303.00 C688.36,303.00 688.17,302.53 688.53,301.95 C688.89,301.38 688.89,300.15 688.53,299.23 C688.01,297.86 687.74,297.81 687.04,298.93 C686.45,299.89 686.24,299.52 686.35,297.74 C686.44,296.15 686.88,295.49 687.50,296.00 C688.13,296.52 688.51,295.57 688.53,293.41 C688.55,291.54 688.22,290.00 687.81,290.00 C687.40,290.00 687.32,289.34 687.63,288.53 C688.51,286.22 685.44,283.70 683.19,284.90 C681.52,285.79 681.31,287.48 681.10,302.19 C680.96,311.16 680.89,319.06 680.93,319.75 C681.03,321.51 681.01,322.25 680.60,334.00 C680.39,339.77 680.41,345.21 680.63,346.08 C681.08,347.86 683.59,348.26 683.80,346.58 ZM 558.50 234.78 C558.37,234.94 556.90,235.46 555.22,235.94 C553.03,236.57 551.60,236.41 550.14,235.39 C549.02,234.60 547.75,234.04 547.30,234.14 C546.86,234.24 545.60,233.98 544.50,233.56 C543.40,233.15 541.91,232.63 541.19,232.41 C540.46,232.19 540.13,231.60 540.44,231.10 C541.03,230.14 544.79,230.74 546.52,232.07 C547.08,232.51 548.60,232.06 549.90,231.07 C551.47,229.89 551.89,229.05 551.14,228.58 C550.51,228.20 550.00,226.63 550.00,225.11 C550.00,223.58 549.78,222.11 549.51,221.84 C549.24,221.58 546.77,221.64 544.02,222.00 C539.81,222.54 538.93,222.37 538.47,220.90 C537.41,217.57 539.97,211.81 541.17,214.85 C541.35,215.32 543.41,215.95 545.75,216.25 C550.09,216.82 550.94,216.03 549.10,213.12 C548.07,211.50 551.68,204.68 553.10,205.56 C553.59,205.87 554.01,205.53 554.02,204.81 C554.03,203.80 554.24,203.83 554.92,204.91 C555.41,205.68 555.56,207.00 555.24,207.82 C554.86,208.80 555.07,209.08 555.83,208.61 C556.47,208.21 557.00,208.36 557.00,208.94 C557.00,209.52 556.38,210.00 555.62,210.00 C554.86,210.00 554.00,210.90 553.71,212.00 C553.42,213.10 553.59,213.75 554.09,213.44 C554.59,213.13 555.00,213.41 555.00,214.05 C555.00,214.69 555.66,214.96 556.47,214.65 C558.56,213.85 559.42,215.79 557.84,217.74 C556.71,219.13 556.72,219.25 557.92,218.53 C558.97,217.89 559.18,218.08 558.73,219.26 C558.39,220.14 558.75,221.38 559.52,222.02 C560.72,223.01 560.69,223.54 559.34,225.61 C558.14,227.44 557.43,227.77 556.44,226.95 C555.46,226.13 554.84,226.44 553.91,228.19 C552.77,230.32 552.80,230.39 554.41,229.06 C555.92,227.82 556.27,227.82 557.06,229.06 C557.73,230.12 557.97,230.16 557.98,229.21 C558.00,228.16 558.26,228.16 559.39,229.21 C560.62,230.35 560.26,232.62 558.50,234.78 ZM 615.68 532.15 C614.67,531.75 613.91,531.08 613.98,530.67 C614.05,530.25 612.90,528.48 611.43,526.73 C608.92,523.76 608.79,523.09 609.33,516.63 C609.81,510.90 610.38,509.21 612.64,506.85 C614.14,505.28 615.96,504.00 616.69,504.00 C617.41,504.00 618.00,503.48 618.00,502.83 C618.00,502.19 618.25,501.92 618.55,502.22 C618.86,502.52 621.08,502.18 623.49,501.45 C627.25,500.32 628.04,500.34 629.10,501.62 C630.15,502.89 629.77,503.07 626.41,502.89 C620.39,502.56 617.99,503.68 618.03,506.82 C618.05,508.29 618.72,510.36 619.51,511.42 C620.61,512.87 620.69,513.67 619.83,514.70 C618.99,515.72 618.99,516.63 619.87,518.28 C620.55,519.58 620.85,522.99 620.60,526.50 C620.15,532.68 619.33,533.62 615.68,532.15 ZM 593.36 583.77 C593.04,583.25 592.61,576.45 592.40,568.66 C592.20,560.87 592.00,554.05 591.97,553.50 C591.93,552.95 592.11,548.30 592.37,543.17 C592.62,538.03 592.57,534.09 592.26,534.41 C591.94,534.72 591.13,534.53 590.46,533.97 C588.75,532.54 588.24,534.32 588.24,541.68 C588.24,545.05 587.96,548.25 587.63,548.79 C587.29,549.33 587.69,550.33 588.51,551.01 C590.15,552.37 590.60,556.49 589.00,555.50 C588.45,555.16 588.00,555.81 588.00,556.94 C588.00,558.07 588.46,559.00 589.02,559.00 C589.60,559.00 589.80,560.19 589.50,561.75 C588.42,567.24 588.15,575.98 589.05,576.53 C589.57,576.85 589.27,578.19 588.38,579.54 C586.47,582.46 587.22,586.67 589.75,587.26 C591.70,587.71 594.26,585.23 593.36,583.77 ZM 573.97 587.04 C575.19,586.27 575.24,585.55 574.24,582.78 C573.21,579.94 572.80,575.09 573.08,569.00 C573.12,568.17 572.93,566.04 572.65,564.26 C572.37,562.48 572.47,560.83 572.87,560.58 C573.26,560.34 573.42,557.29 573.23,553.82 C573.03,550.34 572.78,545.51 572.68,543.08 C572.46,537.79 570.50,536.59 569.59,541.21 C567.83,550.24 568.78,562.00 571.28,562.00 C571.74,562.00 571.84,562.46 571.49,563.02 C571.14,563.58 570.52,563.82 570.11,563.57 C569.70,563.32 569.31,564.32 569.25,565.80 C569.05,570.61 568.59,573.00 567.86,573.00 C567.47,573.00 567.79,574.27 568.56,575.82 C569.54,577.78 569.70,579.55 569.10,581.65 C567.70,586.54 570.27,589.38 573.97,587.04 ZM 488.00 529.45 L 488.00 589.00 L 492.75 588.86 C495.49,588.79 496.44,588.53 495.00,588.27 C489.81,587.33 489.48,586.26 489.73,571.32 C489.86,563.72 490.31,553.98 490.74,549.68 C491.16,545.39 491.19,541.31 490.81,540.63 C490.43,539.95 490.48,537.82 490.91,535.90 C491.87,531.65 490.80,528.39 488.17,527.55 C486.73,527.10 486.25,526.11 486.36,523.82 C486.44,521.96 485.94,520.52 485.11,520.23 C484.26,519.93 483.99,520.18 484.42,520.87 C484.82,521.53 484.46,522.00 483.56,522.00 C481.35,522.00 482.04,524.04 485.25,526.95 L 488.00 529.45 ZM 575.37 170.25 C575.44,170.06 575.50,169.88 575.56,169.70 C575.38,170.43 575.16,171.24 574.90,172.09 C571.73,182.25 572.75,196.95 577.55,210.31 C580.90,219.62 580.78,225.38 577.12,231.15 C573.82,236.35 569.94,239.40 563.94,241.52 C559.13,243.22 553.57,243.50 554.50,242.00 C554.84,241.45 555.71,241.00 556.44,241.00 C557.17,241.00 560.07,240.26 562.88,239.35 C566.63,238.14 569.36,236.25 573.11,232.29 L 578.23 226.88 L 577.80 220.69 C577.52,216.56 576.40,212.50 574.45,208.50 C571.65,202.75 571.53,201.98 571.72,190.00 C571.83,183.12 572.21,175.77 572.57,173.65 C572.57,173.63 572.57,173.61 572.58,173.59 C572.58,174.91 572.52,176.73 572.44,179.22 L 572.12 188.50 L 572.97 181.50 C573.44,177.65 574.52,172.59 575.37,170.25 ZM 632.26 532.31 C631.35,531.96 631.46,531.39 632.69,530.17 C633.61,529.25 634.61,528.57 634.93,528.66 C635.24,528.76 636.09,528.34 636.81,527.74 C638.43,526.39 637.62,522.68 634.85,518.79 L 632.83 515.96 L 635.05 514.16 C637.08,512.52 637.17,512.04 636.08,508.73 C635.41,506.71 634.01,504.82 632.92,504.48 C631.85,504.13 631.26,503.39 631.61,502.82 C631.96,502.25 632.53,502.18 632.88,502.67 C633.22,503.15 634.73,504.33 636.24,505.29 C640.50,508.00 642.70,513.51 642.02,519.76 C641.53,524.21 640.83,525.63 637.47,528.90 C635.29,531.03 632.94,532.56 632.26,532.31 ZM 557.44 327.25 C558.34,332.42 557.47,331.95 555.61,326.25 C552.82,317.66 552.02,308.79 552.01,286.38 C552.00,265.38 552.11,264.13 554.11,261.58 C555.28,260.10 556.47,259.14 556.77,259.44 C557.08,259.74 556.46,260.94 555.41,262.10 C553.64,264.07 553.51,265.94 553.57,288.36 C553.63,307.15 554.00,313.72 555.22,318.00 C556.09,321.02 557.09,325.19 557.44,327.25 ZM 651.62 568.22 C650.71,565.04 651.21,549.51 652.27,548.21 C653.07,547.22 653.81,547.79 655.50,550.71 C656.70,552.79 657.36,554.95 656.96,555.50 C656.57,556.05 656.22,558.64 656.19,561.25 C656.17,563.86 656.11,566.34 656.07,566.76 C656.03,567.18 655.13,568.06 654.06,568.73 C652.44,569.74 652.04,569.66 651.62,568.22 ZM 451.25 507.19 C448.06,509.93 447.31,509.96 444.95,507.45 C441.93,504.23 441.70,502.30 444.08,499.92 C445.13,498.87 446.00,497.33 446.00,496.50 C446.00,495.67 446.43,495.00 446.96,495.00 C448.23,495.00 450.11,498.55 449.29,499.38 C448.93,499.73 449.63,500.93 450.82,502.05 C453.46,504.50 453.52,505.24 451.25,507.19 ZM 654.00 256.09 C659.05,256.81 682.56,257.23 681.92,256.59 C681.40,256.07 671.40,254.95 663.77,254.56 C660.62,254.39 657.02,253.61 655.77,252.83 C653.95,251.69 652.82,251.63 650.10,252.55 C645.98,253.94 647.29,255.13 654.00,256.09 ZM 612.17 455.34 C612.14,451.58 612.04,447.17 611.93,445.55 L 611.75 442.59 L 609.88 444.90 C608.85,446.17 608.24,447.58 608.52,448.04 C608.80,448.49 608.57,449.15 608.00,449.50 C607.43,449.85 607.20,450.51 607.48,450.96 C607.76,451.41 608.18,453.31 608.42,455.17 C609.82,466.11 612.25,466.22 612.17,455.34 ZM 572.25 217.46 C572.02,222.43 571.35,226.95 570.77,227.50 C570.04,228.19 569.88,227.99 570.27,226.87 C570.59,225.98 570.47,224.85 570.02,224.37 C569.56,223.89 568.98,221.86 568.72,219.86 C568.46,217.85 567.94,215.71 567.57,215.11 C567.19,214.50 567.28,214.00 567.77,214.00 C568.27,214.00 568.67,213.37 568.67,212.61 C568.67,211.84 569.27,209.75 570.02,207.96 C571.16,205.21 571.47,204.99 572.02,206.56 C572.38,207.58 572.48,212.49 572.25,217.46 ZM 612.08 475.99 C612.31,467.49 612.20,467.18 609.97,469.85 C608.89,471.15 608.25,472.59 608.54,473.06 C608.83,473.53 608.39,475.53 607.56,477.50 C606.12,480.95 606.15,481.12 608.28,481.94 C611.36,483.12 611.90,482.28 612.08,475.99 ZM 447.00 521.30 C447.00,522.05 446.41,522.67 445.69,522.67 C443.62,522.67 444.19,515.85 446.47,513.25 C447.56,512.01 448.91,511.01 449.47,511.02 C450.04,511.02 449.83,511.45 449.01,511.97 C447.82,512.72 447.77,513.17 448.76,514.16 C450.46,515.86 450.32,518.66 448.50,519.36 C447.67,519.68 447.00,520.55 447.00,521.30 ZM 620.46 241.90 C623.73,244.16 626.55,246.00 626.71,246.00 C627.61,246.00 626.53,245.00 622.50,242.11 C620.03,240.33 618.00,238.28 618.00,237.56 C618.00,235.87 615.78,234.04 613.10,233.52 C611.05,233.12 611.04,233.18 612.75,235.46 C613.71,236.75 617.18,239.65 620.46,241.90 ZM 598.66 373.70 C599.80,374.69 601.93,375.57 603.40,375.65 L 606.07 375.79 L 603.88 373.90 C602.68,372.85 601.01,372.00 600.18,372.00 C599.35,372.00 596.72,370.86 594.34,369.46 C589.30,366.50 588.41,366.86 593.29,369.87 C595.11,370.99 597.52,372.72 598.66,373.70 ZM 676.82 169.48 C678.04,170.70 678.96,169.87 677.79,168.60 C677.08,167.84 676.16,167.41 675.75,167.66 C675.34,167.91 675.00,167.67 675.00,167.12 C675.00,166.57 674.21,166.17 673.25,166.23 C672.29,166.29 670.43,165.99 669.12,165.56 C667.48,165.03 666.96,165.13 667.43,165.89 C667.81,166.50 667.57,167.00 666.89,167.00 C663.90,167.00 667.11,168.04 671.48,168.48 C674.13,168.75 676.53,169.20 676.82,169.48 ZM 591.67 489.87 C591.81,484.48 591.57,483.03 590.69,483.91 C589.21,485.39 588.82,492.79 590.09,495.17 C590.63,496.18 591.17,497.00 591.29,497.00 C591.40,497.00 591.58,493.79 591.67,489.87 ZM 592.15 470.00 C592.23,468.35 592.34,466.48 592.40,465.83 C592.58,463.70 590.18,463.85 589.49,466.02 C588.68,468.57 589.65,473.00 591.02,473.00 C591.56,473.00 592.07,471.65 592.15,470.00 ZM 807.08 593.17 C803.77,591.52 799.18,591.00 792.13,591.00 L 782.02 591.00 C782.48,591.00 783.00,590.02 783.18,588.81 C783.49,586.70 783.56,586.68 785.32,588.45 C786.64,589.78 789.10,590.39 794.32,590.69 C798.27,590.92 802.48,591.31 803.67,591.56 C804.73,591.77 805.90,592.34 807.08,593.17 ZM 430.43 605.33 C429.76,607.06 429.36,607.19 427.25,606.34 C425.46,605.61 425.71,603.33 427.67,602.57 C429.81,601.75 431.25,603.19 430.43,605.33 ZM 444.48 514.02 C444.24,514.43 443.12,515.00 442.02,515.29 C440.52,515.68 440.00,515.33 440.00,513.91 C440.00,512.86 440.51,512.00 441.12,512.00 C441.87,512.00 441.80,511.41 440.90,510.25 C440.16,509.29 440.77,509.58 442.25,510.90 C443.73,512.21 444.73,513.62 444.48,514.02 ZM 781.17 591.00 L 781.14 522.00 C781.16,559.95 781.55,591.00 782.02,591.00 L 781.17 591.00 ZM 637.30 477.37 C637.65,477.02 637.50,475.94 636.98,474.97 C636.30,473.69 636.44,473.05 637.49,472.64 C638.28,472.34 639.20,472.52 639.53,473.05 C640.37,474.41 639.09,478.00 637.77,478.00 C637.16,478.00 636.95,477.72 637.30,477.37 ZM 553.09 582.26 C552.46,581.18 552.05,581.01 552.03,581.81 C552.01,582.53 551.55,582.84 551.00,582.50 C549.88,581.81 549.70,583.06 550.60,585.39 C551.12,586.76 551.37,586.77 552.65,585.49 C553.73,584.41 553.84,583.56 553.09,582.26 ZM 451.75 525.64 C451.75,526.96 451.29,528.32 450.72,528.67 C450.12,529.04 449.99,528.82 450.41,528.15 C450.81,527.50 450.44,526.72 449.56,526.39 C447.45,525.57 447.59,524.34 449.88,523.74 C451.32,523.36 451.75,523.80 451.75,525.64 ZM 553.90 572.62 C554.79,571.55 554.69,571.09 553.44,570.61 C551.29,569.79 549.95,570.71 550.65,572.53 C551.36,574.37 552.42,574.40 553.90,572.62 ZM 559.29 194.02 C558.71,196.20 557.59,197.26 556.75,196.41 C555.80,195.47 557.20,192.00 558.52,192.00 C559.32,192.00 559.61,192.76 559.29,194.02 ZM 694.97 181.35 C695.81,181.58 696.67,181.82 696.87,181.88 C697.94,182.22 694.39,178.75 692.79,177.89 C691.09,176.98 691.03,177.08 692.18,178.91 C692.87,180.03 694.13,181.13 694.97,181.35 ZM 615.50 380.22 C619.79,381.10 618.87,379.49 614.50,378.45 C612.45,377.97 611.82,378.07 612.50,378.77 C613.05,379.34 614.40,379.99 615.50,380.22 ZM 536.00 442.00 C536.00,442.55 536.70,443.00 537.56,443.00 C538.42,443.00 538.84,442.55 538.50,442.00 C538.16,441.45 537.46,441.00 536.94,441.00 C536.42,441.00 536.00,441.45 536.00,442.00 ZM 600.21 495.69 C603.30,492.30 607.04,489.42 610.96,487.67 C615.20,485.77 622.62,484.86 629.14,485.12 C627.60,485.08 625.94,485.11 624.14,485.20 C613.76,485.72 608.32,487.89 601.80,494.10 C601.25,494.63 600.72,495.16 600.21,495.69 ZM 636.13 485.98 C636.76,486.12 637.35,486.28 637.90,486.47 C642.76,488.08 647.26,491.33 650.99,495.67 C650.20,494.80 649.36,493.96 648.47,493.14 C644.28,489.32 640.63,487.08 636.13,485.98 ZM 605.67 379.43 C611.03,381.56 616.74,383.28 620.84,383.81 C616.09,383.21 610.92,381.68 605.67,379.43 ZM 606.88 545.57 C602.83,543.11 599.66,540.19 597.30,536.75 C599.75,540.05 603.10,543.14 606.88,545.57 ZM 635.36 550.18 C632.16,551.01 627.92,551.18 623.64,550.80 C627.90,551.04 632.42,550.84 635.36,550.18 ZM 489.94 442.72 C491.91,440.38 495.87,439.50 523.10,439.17 C496.59,439.50 491.97,440.39 489.94,442.72 ZM 659.95 513.64 C661.78,521.50 658.43,531.02 652.38,538.48 C658.38,531.00 661.76,521.42 659.95,513.64 ZM 487.59 446.38 C487.83,445.75 488.13,445.28 488.50,444.78 C488.86,444.30 489.13,443.85 489.41,443.44 C489.05,444.00 488.72,444.62 488.25,445.32 C488.02,445.66 487.80,446.01 487.59,446.38 ZM 564.25 174.19 C566.59,172.58 569.46,170.97 570.63,170.61 C570.67,170.60 570.71,170.58 570.75,170.57 C569.41,171.02 566.53,172.62 564.25,174.19 ZM 575.86 166.00 C574.63,166.04 571.33,167.73 568.05,169.73 C571.35,167.71 574.67,166.00 575.85,166.00 C575.85,166.00 575.86,166.00 575.86,166.00 ZM 592.79 525.73 C592.59,524.75 592.44,523.74 592.31,522.71 C592.44,523.69 592.60,524.69 592.79,525.73 ZM 814.44 610.85 C815.22,608.56 815.56,607.29 815.49,606.03 C815.58,607.30 815.22,608.55 814.44,610.85 ZM 644.05 381.22 C645.37,380.75 646.86,380.16 648.37,379.52 C646.91,380.15 645.47,380.71 644.05,381.22 Z" fill="rgba(253,247,254,1)"/>
<path d="M 892.25 652.92 C896.81,648.03 895.04,640.25 888.88,638.11 C886.59,637.31 812.64,637.00 622.82,637.00 C411.39,637.00 365.74,636.80 355.44,639.06 C355.62,638.95 355.81,638.85 356.00,638.75 C359.25,637.13 365.56,637.00 444.17,637.00 C490.74,637.00 529.55,636.73 530.41,636.40 C531.28,636.06 531.74,635.39 531.44,634.90 C531.13,634.40 532.60,633.96 534.69,633.92 C536.79,633.88 537.95,633.62 537.29,633.35 C534.74,632.32 540.37,625.47 544.72,624.31 C547.34,623.62 547.24,623.53 543.00,622.76 C540.53,622.31 521.40,621.69 500.50,621.38 C469.36,620.91 462.08,620.54 460.17,619.33 C460.15,619.32 460.14,619.31 460.13,619.30 C466.01,621.19 507.37,621.55 658.00,621.19 C772.55,620.92 789.80,620.68 791.80,619.38 C794.74,617.47 797.99,612.15 798.00,609.25 L 798.00 607.00 L 626.00 607.00 C489.05,607.00 454.00,607.25 454.02,608.25 C454.00,607.26 469.61,606.96 528.25,606.80 C566.49,606.70 595.15,606.47 595.15,606.29 C595.15,606.28 595.02,606.27 594.75,606.26 C590.49,606.07 587.00,605.48 587.00,604.96 C587.00,603.48 579.01,603.77 578.92,605.25 C578.86,606.25 578.74,606.25 578.34,605.25 C578.06,604.56 576.41,603.99 574.67,603.98 C570.47,603.96 568.41,602.72 570.20,601.28 C570.92,600.71 572.46,599.95 573.63,599.59 C574.80,599.23 576.78,598.06 578.03,596.97 L 580.30 595.01 L 577.16 594.38 C575.44,594.04 574.28,593.36 574.58,592.88 C574.73,592.63 575.12,592.45 575.11,592.31 C575.06,591.82 569.96,591.83 531.50,591.33 C518.53,591.16 506.74,590.91 498.67,590.65 C520.30,591.15 574.45,591.32 666.25,591.16 L 765.00 591.00 L 765.00 520.95 C765.00,458.59 764.82,450.55 763.39,447.70 C761.61,444.15 758.70,441.40 755.17,439.95 C753.73,439.36 704.20,438.99 624.84,438.99 C520.74,438.99 498.56,438.79 492.19,441.20 C496.87,438.98 508.65,439.03 554.35,438.98 C590.19,438.93 612.00,438.55 612.00,437.95 C612.00,437.43 615.71,436.92 620.25,436.83 L 628.50 436.66 L 622.50 436.00 C619.20,435.63 617.24,435.26 618.14,435.17 C619.03,435.08 620.52,433.86 621.43,432.47 C622.34,431.08 623.45,430.16 623.89,430.43 C625.03,431.14 627.38,426.42 626.56,425.10 C626.10,424.35 618.21,424.00 601.94,424.00 C588.78,424.00 578.02,423.61 578.00,423.12 C578.04,423.61 599.59,424.00 627.01,424.00 L 676.02 424.00 L 673.08 418.75 C671.03,415.11 669.44,409.83 667.87,401.50 C666.63,394.90 665.48,389.33 665.33,389.11 C665.18,388.90 661.99,390.34 658.23,392.31 C644.39,399.58 627.69,402.14 613.96,399.09 C613.07,398.89 612.09,398.64 611.07,398.35 C611.30,398.40 611.52,398.46 611.74,398.51 C616.04,399.51 617.18,399.49 618.09,398.39 C618.94,397.37 619.70,397.31 621.23,398.12 C622.45,398.77 623.00,398.80 622.62,398.20 C622.28,397.65 623.12,395.24 624.48,392.85 L 626.96 388.50 L 624.29 388.00 C622.82,387.73 621.81,387.16 622.06,386.74 C622.60,385.81 619.10,383.97 613.73,382.32 C616.17,383.02 618.55,383.52 620.84,383.81 C628.06,384.73 636.98,383.73 644.05,381.22 C658.98,375.91 676.05,363.84 685.42,351.97 C689.54,346.75 696.52,335.00 695.50,335.00 C695.24,335.00 695.93,333.27 697.04,331.15 C699.78,325.89 702.15,314.00 701.49,309.00 L 701.50 309.00 C701.78,309.00 702.00,302.02 702.00,293.50 C702.00,280.39 701.77,278.00 700.50,278.00 C701.33,278.00 702.00,277.58 702.00,277.07 C702.00,276.52 693.56,276.09 681.75,276.03 C670.61,275.97 659.03,275.51 656.00,275.00 C652.97,274.49 647.80,273.62 644.50,273.08 C637.53,271.92 629.39,269.22 624.58,266.54 C624.91,266.50 625.12,266.12 625.40,265.40 C625.76,264.47 625.92,263.63 625.77,263.53 C625.62,263.42 624.39,262.59 623.03,261.67 C621.67,260.75 621.08,260.00 621.72,260.00 C622.36,260.00 623.16,260.45 623.50,261.00 C623.84,261.55 624.64,262.00 625.28,262.00 C625.92,262.00 625.47,261.32 624.29,260.49 C620.75,258.01 622.70,252.51 626.34,254.69 C626.98,255.07 626.88,254.62 626.13,253.69 C624.93,252.22 625.00,252.00 626.63,251.96 C628.17,251.94 628.06,251.69 626.00,250.55 C624.62,249.78 623.50,248.73 623.50,248.21 C623.50,247.68 621.25,245.47 618.50,243.28 C612.93,238.86 608.19,233.93 604.22,228.44 C610.00,236.19 618.41,243.72 626.51,248.71 C625.78,248.32 624.95,248.03 624.50,248.03 C623.95,248.03 624.17,248.47 625.00,249.00 C625.83,249.53 626.95,249.97 627.50,249.97 C628.01,249.97 627.85,249.59 627.16,249.11 C630.96,251.39 634.68,253.10 638.00,253.98 C640.47,254.65 643.20,255.54 644.05,255.98 C645.92,256.93 655.16,258.89 660.00,259.35 C661.92,259.54 678.80,259.63 697.50,259.55 L 731.50 259.41 L 731.80 253.77 C732.13,247.48 729.44,226.26 728.10,224.58 C727.63,223.99 726.47,220.80 725.54,217.50 C723.68,210.96 717.13,198.00 715.68,198.00 C715.48,198.00 715.33,198.19 715.23,198.52 C714.94,197.66 714.39,197.18 713.50,196.93 C711.26,196.29 710.24,197.62 710.51,199.24 C710.14,197.60 711.01,196.19 713.16,196.75 C714.94,197.22 715.08,197.03 714.18,195.40 C712.07,191.60 700.31,180.20 692.73,174.61 C684.89,168.84 675.88,164.03 672.87,164.01 C671.98,164.00 669.60,163.31 667.58,162.47 C661.08,159.75 645.24,158.01 627.00,158.01 C614.25,158.01 607.79,158.41 603.43,159.82 C607.29,158.51 612.36,157.99 619.50,157.94 C626.02,157.89 628.80,157.56 627.50,157.00 C625.90,156.31 626.29,156.10 629.50,155.94 L 633.50 155.74 L 630.00 155.00 C628.08,154.59 627.29,154.20 628.25,154.13 C629.21,154.06 630.00,153.39 630.00,152.64 C630.00,151.89 631.11,149.64 632.47,147.64 L 634.94 144.00 L 632.50 142.41 C632.06,142.12 631.61,141.89 631.06,141.71 C632.07,141.72 633.06,141.73 634.03,141.75 C634.01,141.83 634.00,141.91 634.00,142.00 C634.00,142.55 634.20,143.00 634.44,143.00 C634.68,143.00 635.16,142.55 635.50,142.00 C635.55,141.92 635.58,141.85 635.61,141.77 C654.24,142.16 664.53,143.88 676.35,148.17 C715.16,162.26 742.30,196.91 747.07,238.48 C747.71,244.04 747.99,270.83 747.80,308.34 L 747.50 369.18 L 745.14 371.09 C741.65,373.92 737.38,373.53 733.92,370.08 L 731.00 367.15 L 731.00 345.04 C731.00,323.39 730.96,322.95 729.04,323.98 C727.96,324.56 724.52,325.61 721.40,326.32 L 715.72 327.61 L 713.06 335.15 C708.44,348.24 702.47,357.51 691.35,368.88 L 681.20 379.26 L 682.59 387.93 C684.69,400.92 687.56,410.91 689.95,413.44 C691.45,415.05 694.91,416.34 701.79,417.89 C707.13,419.08 713.78,420.72 716.57,421.53 C719.36,422.33 723.75,423.28 726.32,423.63 L 731.00 424.27 L 731.00 408.09 C731.00,387.84 732.10,384.97 739.83,385.02 C743.00,385.03 744.05,385.68 746.31,388.97 C747.73,391.05 748.00,394.07 748.00,407.72 L 748.00 424.00 L 751.82 424.00 C757.93,424.00 765.43,426.72 771.13,431.00 C774.04,433.19 778.91,435.67 781.96,436.52 C785.01,437.37 789.42,438.77 791.77,439.62 C803.39,443.86 817.73,457.37 823.47,469.47 C828.78,480.66 855.95,563.36 857.19,572.11 C858.07,578.31 857.97,581.32 856.66,588.41 C854.97,597.50 849.43,610.63 844.58,617.00 L 841.91 620.50 L 866.71 621.00 C890.12,621.47 891.76,621.63 896.24,623.83 C905.15,628.22 911.00,637.41 911.00,647.00 C911.00,654.10 908.77,659.36 903.57,664.53 C902.32,665.78 901.75,666.84 900.99,667.75 C896.07,673.66 883.26,673.00 623.14,672.96 C571.29,672.95 529.56,672.94 495.94,672.92 C531.05,672.80 549.00,672.49 549.00,672.00 C549.00,671.40 544.47,670.93 537.75,670.84 C528.81,670.71 527.63,670.54 532.00,670.03 L 537.50 669.39 L 527.50 668.50 L 527.78 665.05 C528.12,660.84 528.10,660.86 532.74,659.96 L 536.50 659.23 L 533.00 658.90 C531.08,658.72 538.05,658.31 548.50,658.00 C558.95,657.69 534.20,657.32 493.50,657.19 C414.24,656.93 379.70,656.64 365.10,655.84 C366.29,655.89 367.64,655.94 369.16,656.00 C376.50,656.28 496.58,656.36 636.00,656.18 L 889.50 655.87 ZM 826.96 615.32 C834.75,604.44 839.87,591.24 840.71,579.92 C840.80,578.64 840.89,577.57 840.91,576.49 C841.04,570.14 838.88,563.74 822.42,513.96 C815.04,491.61 808.86,474.61 807.17,471.96 C801.88,463.70 788.01,453.00 782.59,453.00 C781.29,453.00 781.11,461.74 781.14,522.00 L 781.17 591.00 L 792.13 591.00 C806.40,591.00 810.60,593.15 814.40,602.37 C815.85,605.89 815.86,606.66 814.44,610.87 C813.58,613.42 812.25,616.46 811.49,617.64 C809.61,620.54 810.38,621.00 817.11,621.00 L 822.89 621.00 ZM 615.25 549.54 C610.78,548.14 606.43,545.63 602.79,542.55 C602.67,542.35 602.47,542.07 602.18,541.72 C601.58,541.00 601.47,539.85 601.93,539.11 C602.39,538.38 602.53,536.91 602.25,535.86 C601.98,534.80 602.49,533.11 603.40,532.11 C604.71,530.66 604.84,529.72 604.03,527.57 C603.46,526.09 603.06,522.54 603.13,519.68 C603.25,514.83 603.31,514.73 604.00,518.00 L 604.74 521.50 L 604.87 517.19 C604.95,514.49 605.39,513.12 606.04,513.52 C606.72,513.95 606.85,513.19 606.40,511.33 C606.02,509.78 605.58,508.33 605.40,508.13 C605.23,507.92 605.90,506.12 606.90,504.13 C608.02,501.90 608.64,498.76 608.50,496.00 C608.38,493.52 608.78,490.83 609.39,490.02 C610.20,488.93 609.77,489.00 607.75,490.29 C606.24,491.26 605.00,491.78 605.00,491.45 C605.00,491.39 604.95,491.39 604.87,491.42 C610.19,487.24 615.42,485.64 624.14,485.20 C635.50,484.63 641.18,486.48 648.47,493.14 C654.27,498.45 657.92,504.97 659.95,513.64 C663.09,527.09 650.69,545.93 636.03,550.01 C631.13,551.37 620.34,551.13 615.25,549.54 ZM 634.66 534.36 C641.83,530.96 646.18,521.11 644.04,513.14 C642.68,508.11 637.72,502.20 633.30,500.35 C622.95,496.03 610.64,501.74 607.50,512.32 C605.81,518.00 606.79,524.50 610.03,529.04 C614.49,535.30 626.98,538.00 634.66,534.36 ZM 727.72 308.80 L 730.50 307.48 L 730.78 292.50 C731.10,275.28 730.97,275.00 722.81,275.00 L 718.00 275.00 L 718.00 311.26 L 721.47 310.70 C723.38,310.39 726.20,309.54 727.72,308.80 ZM 581.00 595.00 C581.00,595.55 582.15,596.00 583.56,596.00 C585.01,596.00 585.85,595.57 585.50,595.00 C585.16,594.45 584.01,594.00 582.94,594.00 C581.87,594.00 581.00,594.45 581.00,595.00 ZM 555.36 158.98 C562.39,154.37 569.98,150.60 578.00,147.82 C587.86,144.40 594.65,142.83 605.57,142.15 C589.70,143.64 577.99,146.98 565.00,153.47 C561.68,155.12 558.47,156.97 555.36,158.98 ZM 599.48 539.38 C597.31,537.02 595.57,534.48 594.45,531.93 C595.01,532.69 595.95,533.82 596.99,534.99 C598.64,536.84 599.76,538.57 599.49,538.84 C599.40,538.94 599.40,539.13 599.48,539.38 ZM 561.26 339.21 C563.55,343.27 566.94,348.50 569.90,352.24 C571.21,353.90 572.61,355.53 574.10,357.12 C572.20,355.12 570.41,353.05 568.75,350.93 C566.39,347.93 563.38,343.10 561.26,339.21 ZM 595.63 165.26 C592.97,168.70 590.92,173.70 590.06,179.12 C589.94,179.84 589.85,180.59 589.79,181.36 C590.19,176.35 591.46,171.91 593.56,168.32 C594.22,167.19 594.90,166.17 595.63,165.26 ZM 586.01 367.83 C594.23,374.08 603.37,379.04 611.92,381.77 C603.27,379.06 594.23,374.13 586.01,367.83 ZM 593.70 529.90 C593.58,529.49 593.47,529.09 593.38,528.69 C591.33,519.33 591.33,512.09 593.65,505.87 C591.37,512.11 591.34,519.39 593.40,528.50 C593.50,528.98 593.61,529.47 593.70,529.90 ZM 614.10 259.85 C614.06,259.83 614.02,259.80 613.98,259.78 C610.94,257.87 604.94,252.98 600.63,248.91 C599.69,248.02 598.78,247.16 597.91,246.36 C598.90,247.27 599.95,248.25 601.04,249.27 C605.05,253.04 610.56,257.49 614.10,259.85 ZM 700.06 305.90 C700.77,304.83 700.96,304.97 700.98,306.58 C700.70,305.71 700.41,305.51 700.06,305.90 ZM 622.83 265.46 C621.19,264.37 618.26,262.48 615.64,260.82 C618.62,262.61 621.65,264.56 622.83,265.46 ZM 593.01 205.16 C594.37,209.69 596.10,214.18 598.13,218.33 C596.08,214.21 594.38,209.83 593.01,205.16 ZM 351.86 650.40 C352.24,651.18 352.76,651.93 353.41,652.69 C353.81,653.16 354.14,653.54 354.49,653.87 C353.30,652.89 352.43,651.70 351.86,650.40 ZM 456.16 614.04 C454.96,611.85 454.04,609.54 454.02,608.25 C454.04,609.38 454.99,611.77 456.16,614.04 ZM 435.53 620.00 C437.02,620.00 438.45,619.83 439.39,619.57 C438.56,619.87 437.29,620.00 435.53,620.00 ZM 440.63 618.27 C440.60,617.58 440.33,616.62 439.87,615.77 C440.44,616.82 440.70,617.64 440.63,618.27 ZM 589.65 184.71 C589.64,187.21 589.85,189.89 590.23,192.67 C589.83,189.92 589.64,187.25 589.65,184.71 ZM 593.66 391.35 C593.36,391.17 593.09,391.00 592.85,390.83 C591.49,389.89 590.00,389.12 589.39,389.01 C590.00,389.12 591.49,389.89 592.85,390.82 C593.09,390.99 593.37,391.17 593.66,391.35 Z" fill="rgba(204,175,254,1)"/>
<path d="M 353.33 671.15 C346.21,668.69 341.96,665.17 338.58,658.96 C336.22,654.63 335.71,652.51 335.74,647.09 C335.78,639.60 336.56,637.20 340.82,631.37 C342.82,628.64 345.96,626.18 350.08,624.12 L 356.32 621.00 L 412.06 621.00 L 408.12 615.75 C397.30,601.36 393.25,579.94 397.92,561.91 C398.98,557.83 402.36,547.08 405.44,538.00 C408.52,528.92 411.21,520.83 411.43,520.00 C412.33,516.50 425.25,478.93 427.69,472.70 C429.16,468.96 431.07,465.49 431.93,464.98 C432.79,464.47 433.12,464.05 432.66,464.03 C430.91,463.97 440.35,453.44 446.70,448.38 C453.26,443.15 461.49,439.08 469.68,437.02 C471.98,436.44 475.80,434.33 478.18,432.33 C484.30,427.18 490.04,424.92 498.58,424.27 L 506.00 423.71 L 506.00 332.98 C506.00,247.95 506.12,241.56 507.92,231.37 C513.85,197.76 535.52,168.19 565.00,153.47 C580.50,145.73 594.19,142.47 615.28,141.49 C627.92,140.91 630.41,141.04 632.50,142.41 L 634.94 144.00 L 632.47 147.64 C631.11,149.64 630.00,151.89 630.00,152.64 C630.00,153.39 629.21,154.06 628.25,154.13 C627.29,154.20 628.08,154.59 630.00,155.00 L 633.50 155.74 L 629.50 155.94 C626.29,156.10 625.90,156.31 627.50,157.00 C628.80,157.56 626.02,157.89 619.50,157.94 C603.98,158.05 598.21,160.36 593.56,168.32 C589.77,174.79 588.69,183.98 590.50,194.35 C594.15,215.25 603.26,231.18 618.50,243.28 C621.25,245.47 623.50,247.68 623.50,248.21 C623.50,248.73 624.62,249.78 626.00,250.55 C628.06,251.69 628.17,251.94 626.63,251.96 C625.00,252.00 624.93,252.22 626.13,253.69 C626.88,254.62 626.98,255.07 626.34,254.69 C622.70,252.51 620.75,258.01 624.29,260.49 C625.47,261.32 625.92,262.00 625.28,262.00 C624.64,262.00 623.84,261.55 623.50,261.00 C623.16,260.45 622.36,260.00 621.72,260.00 C621.08,260.00 621.67,260.75 623.03,261.67 C624.39,262.59 625.62,263.42 625.77,263.53 C625.92,263.63 625.76,264.47 625.40,265.40 C624.84,266.85 624.53,266.89 623.13,265.70 C622.23,264.94 618.76,262.68 615.40,260.68 C612.05,258.68 605.58,253.54 601.04,249.27 C596.49,245.00 592.41,241.36 591.98,241.20 C591.54,241.03 589.96,242.49 588.47,244.45 C586.98,246.41 583.60,249.59 580.96,251.53 C575.91,255.23 565.45,259.39 563.28,258.55 C562.58,258.28 560.99,258.47 559.75,258.97 C558.77,259.36 558.61,259.60 559.47,259.75 C557.77,259.87 556.95,260.33 556.00,261.39 C556.67,260.49 557.01,259.68 556.77,259.44 C556.47,259.14 555.28,260.10 554.11,261.58 C552.11,264.13 552.00,265.38 552.01,286.38 C552.02,308.79 552.82,317.66 555.61,326.25 C557.11,330.84 557.96,332.04 557.77,329.62 C558.14,331.57 558.61,333.00 558.93,333.00 C559.06,333.00 559.28,333.19 559.54,333.52 C559.25,333.19 558.99,333.00 558.79,333.00 C557.48,333.00 564.28,345.24 568.75,350.93 C580.10,365.38 597.29,377.49 613.00,382.10 C618.78,383.80 622.62,385.77 622.06,386.74 C621.81,387.16 622.82,387.73 624.29,388.00 L 626.96 388.50 L 624.48 392.85 C623.12,395.24 622.28,397.65 622.62,398.20 C623.00,398.80 622.45,398.77 621.23,398.12 C619.70,397.31 618.94,397.37 618.09,398.39 C617.18,399.49 616.04,399.51 611.74,398.51 C605.62,397.08 596.63,393.42 592.85,390.82 C591.39,389.82 589.77,389.00 589.26,389.00 C588.75,389.00 587.51,393.61 586.50,399.25 C584.48,410.58 581.70,419.17 579.46,421.03 C578.66,421.70 578.00,422.64 578.00,423.12 C578.00,423.61 588.77,424.00 601.94,424.00 C618.21,424.00 626.10,424.35 626.56,425.10 C627.38,426.42 625.03,431.14 623.89,430.43 C623.45,430.16 622.34,431.08 621.43,432.47 C620.52,433.86 619.03,435.08 618.14,435.17 C617.24,435.26 619.20,435.63 622.50,436.00 L 628.50 436.66 L 620.25 436.83 C615.71,436.92 612.00,437.43 612.00,437.95 C612.00,438.55 590.19,438.93 554.35,438.98 C501.05,439.04 493.89,438.97 490.32,442.51 C489.68,443.14 489.15,443.89 488.50,444.78 C486.61,447.35 486.50,449.07 486.50,476.33 L 486.50 505.16 L 483.69 507.58 C479.76,510.97 475.80,510.74 472.59,506.92 L 470.00 503.85 L 470.00 479.48 C470.00,455.38 469.55,452.05 466.71,454.89 C466.40,455.20 466.21,455.44 466.14,455.61 C462.06,455.51 449.35,466.88 446.08,473.82 C444.87,476.39 443.46,479.27 442.95,480.21 C442.45,481.15 441.17,484.98 440.11,488.71 C439.05,492.44 435.90,501.99 433.09,509.93 C430.29,517.87 427.99,525.97 427.99,527.93 C427.98,529.89 426.63,535.51 424.99,540.41 C424.08,543.12 423.42,545.09 422.96,546.51 C423.43,545.04 424.11,542.99 425.06,540.13 C426.75,535.07 427.98,529.70 427.81,528.21 C427.48,525.45 416.33,557.16 413.98,567.54 C411.10,580.21 413.74,593.21 422.01,607.14 C428.58,618.20 430.48,620.00 435.53,620.00 C440.54,620.00 441.59,618.97 439.87,615.77 C437.93,612.17 437.15,606.06 438.15,602.41 C440.44,594.14 446.52,591.00 460.24,591.00 C464.63,591.00 468.08,590.52 468.80,589.80 C469.68,588.92 470.00,580.97 470.00,560.25 L 470.00 531.91 L 472.45 529.45 C475.48,526.43 480.77,526.19 484.14,528.91 L 486.50 530.82 L 486.69 560.06 C486.80,576.13 487.25,589.62 487.69,590.03 C488.14,590.44 507.85,591.02 531.50,591.33 C569.96,591.83 575.06,591.82 575.11,592.31 C575.12,592.45 574.73,592.63 574.58,592.88 C574.28,593.36 575.44,594.04 577.16,594.38 L 580.30 595.01 L 578.03 596.97 C576.78,598.06 574.80,599.23 573.63,599.59 C572.46,599.95 570.92,600.71 570.20,601.28 C568.41,602.72 570.47,603.96 574.67,603.98 C576.41,603.99 578.06,604.56 578.34,605.25 C578.74,606.25 578.86,606.25 578.92,605.25 C579.01,603.77 587.00,603.48 587.00,604.96 C587.00,605.48 590.49,606.07 594.75,606.26 C595.02,606.27 595.15,606.28 595.15,606.29 C595.15,606.47 566.49,606.70 528.25,606.80 C469.61,606.96 454.00,607.26 454.02,608.25 C454.07,610.92 457.95,617.92 460.17,619.33 C462.08,620.54 469.36,620.91 500.50,621.38 C521.40,621.69 540.53,622.31 543.00,622.76 C547.24,623.53 547.34,623.62 544.72,624.31 C540.37,625.47 534.74,632.32 537.29,633.35 C537.95,633.62 536.79,633.88 534.69,633.92 C532.60,633.96 531.13,634.40 531.44,634.90 C531.74,635.39 531.28,636.06 530.41,636.40 C529.55,636.73 490.74,637.00 444.17,637.00 C365.56,637.00 359.25,637.13 356.00,638.75 C349.78,641.86 349.41,650.60 355.33,654.48 C358.24,656.39 380.08,656.82 493.50,657.19 C534.20,657.32 558.95,657.69 548.50,658.00 C538.05,658.31 531.08,658.72 533.00,658.90 L 536.50 659.23 L 532.74 659.96 C528.10,660.86 528.12,660.84 527.78,665.05 L 527.50 668.50 L 537.50 669.39 L 532.00 670.03 C527.63,670.54 528.81,670.71 537.75,670.84 C544.47,670.93 549.00,671.40 549.00,672.00 C549.00,672.66 516.61,672.99 453.75,672.97 C364.95,672.94 358.15,672.81 353.33,671.15 ZM 540.50 420.89 C547.65,419.17 555.27,417.32 557.43,416.79 C565.29,414.86 568.48,408.06 571.26,387.29 L 572.37 378.93 L 564.60 371.21 C552.87,359.56 542.13,341.98 539.54,330.17 C538.96,327.54 538.37,327.00 536.08,327.00 C534.56,327.00 531.11,326.33 528.41,325.51 C525.71,324.69 523.39,324.02 523.25,324.01 C523.11,324.00 523.00,346.50 523.00,374.00 L 523.00 424.00 L 525.25 424.01 C526.49,424.01 533.35,422.60 540.50,420.89 ZM 563.94 241.52 C569.94,239.40 573.82,236.35 577.12,231.15 C580.78,225.38 580.90,219.62 577.55,210.31 C572.75,196.95 571.73,182.25 574.90,172.09 C575.94,168.74 576.37,166.00 575.85,166.00 C573.24,166.00 560.00,174.44 560.00,176.10 C560.00,176.65 561.91,175.79 564.25,174.19 C566.59,172.58 569.56,170.94 570.85,170.54 C571.81,170.24 572.38,170.09 572.66,170.30 C572.38,170.09 571.81,170.24 570.85,170.54 C567.03,171.75 554.82,180.46 550.39,185.15 C544.59,191.29 538.67,199.09 535.14,205.26 C531.20,212.13 526.30,226.87 525.04,235.59 C523.90,243.48 523.67,257.34 524.67,258.33 C525.81,259.48 532.54,259.06 534.12,257.75 C534.94,257.06 536.77,254.68 538.19,252.45 C540.77,248.40 547.57,244.05 554.75,241.70 C554.65,241.80 554.56,241.90 554.50,242.00 C553.57,243.50 559.13,243.22 563.94,241.52 ZM 600.65 541.17 C599.74,540.16 599.22,539.11 599.49,538.84 C599.76,538.57 598.64,536.84 596.99,534.99 C595.35,533.15 593.97,531.38 593.92,531.07 C593.88,530.76 593.64,529.60 593.40,528.50 C589.99,513.42 592.29,503.34 601.11,494.67 C603.25,492.57 605.00,491.12 605.00,491.45 C605.00,491.78 606.24,491.26 607.75,490.29 C609.77,489.00 610.20,488.93 609.39,490.02 C608.78,490.83 608.38,493.52 608.50,496.00 C608.64,498.76 608.02,501.90 606.90,504.13 C605.90,506.12 605.23,507.92 605.40,508.13 C605.58,508.33 606.02,509.78 606.40,511.33 C606.85,513.19 606.72,513.95 606.04,513.52 C605.39,513.12 604.95,514.49 604.87,517.19 L 604.74 521.50 L 604.00 518.00 C603.31,514.73 603.25,514.83 603.13,519.68 C603.06,522.54 603.46,526.09 604.03,527.57 C604.84,529.72 604.71,530.66 603.40,532.11 C602.49,533.11 601.98,534.80 602.25,535.86 C602.53,536.91 602.39,538.38 601.93,539.11 C601.47,539.85 601.58,541.00 602.18,541.72 C603.83,543.70 602.52,543.23 600.65,541.17 ZM 536.00 275.00 L 531.08 275.00 C527.76,275.00 525.81,274.89 524.65,275.80 C522.87,277.20 523.00,281.04 523.00,291.48 C523.00,303.54 523.30,307.01 524.44,307.95 C526.15,309.37 530.63,310.79 533.75,310.91 L 536.00 311.00 L 536.00 275.00 ZM 581.00 595.00 C581.00,594.45 581.87,594.00 582.94,594.00 C584.01,594.00 585.16,594.45 585.50,595.00 C585.85,595.57 585.01,596.00 583.56,596.00 C582.15,596.00 581.00,595.55 581.00,595.00 ZM 625.00 249.00 C624.17,248.47 623.95,248.03 624.50,248.03 C625.05,248.03 626.17,248.47 627.00,249.00 C627.83,249.53 628.05,249.97 627.50,249.97 C626.95,249.97 625.83,249.53 625.00,249.00 ZM 634.00 142.00 C634.00,141.45 634.48,141.00 635.06,141.00 C635.64,141.00 635.84,141.45 635.50,142.00 C635.16,142.55 634.68,143.00 634.44,143.00 C634.20,143.00 634.00,142.55 634.00,142.00 ZM 567.00 339.49 C567.02,339.51 567.04,339.53 567.07,339.54 C567.58,339.86 567.99,341.33 567.98,342.81 L 567.97 345.50 L 567.06 344.47 C567.54,344.76 567.64,344.25 567.83,343.04 C568.01,341.86 567.67,340.30 567.07,339.59 C567.05,339.56 567.02,339.52 567.00,339.49 ZM 428.42 613.88 C428.58,614.13 428.73,614.36 428.87,614.58 C427.21,612.25 425.13,608.41 421.90,602.13 C424.06,606.33 426.99,611.62 428.42,613.88 ZM 567.87 259.67 C573.30,258.90 577.83,256.31 584.67,250.33 C577.73,256.41 573.16,259.02 567.87,259.67 ZM 563.09 339.64 C562.19,338.32 561.40,336.97 561.00,336.01 C560.89,335.74 560.77,335.48 560.65,335.23 C560.86,335.61 561.07,336.02 561.27,336.44 C561.72,337.38 562.38,338.54 563.09,339.64 ZM 554.21 312.02 C554.45,314.61 554.79,316.43 555.25,318.00 C555.65,319.37 556.08,321.06 556.46,322.74 C556.08,321.14 555.63,319.44 555.22,318.00 C554.78,316.46 554.45,314.62 554.21,312.02 ZM 555.35 262.17 C554.17,263.70 553.74,265.16 553.61,272.82 C553.74,264.91 554.17,263.51 555.35,262.17 ZM 563.04 324.82 C563.22,327.52 563.91,331.13 564.74,334.10 C563.87,331.12 563.20,327.59 563.04,324.82 ZM 575.10 230.19 L 578.22 226.85 L 578.23 226.88 L 575.10 230.19 ZM 563.52 239.13 C564.57,238.74 565.51,238.32 566.39,237.85 C565.48,238.35 564.53,238.77 563.52,239.13 ZM 467.17 456.45 C467.29,456.79 467.40,457.32 467.49,458.08 C467.40,457.36 467.29,456.83 467.17,456.45 ZM 422.99 549.51 C422.62,549.73 422.35,549.91 422.22,549.84 C422.20,549.83 422.18,549.81 422.17,549.78 C422.18,549.81 422.20,549.83 422.22,549.84 C422.35,549.91 422.62,549.74 422.99,549.51 Z" fill="rgba(245,185,246,1)"/>
<path d="M 428.42 613.88 C426.99,611.62 424.06,606.33 421.90,602.13 C419.74,597.93 417.51,593.93 416.94,593.24 C416.36,592.54 415.41,589.21 414.81,585.83 C413.42,577.90 414.96,566.43 418.43,558.97 C419.83,555.96 420.98,552.91 420.99,552.19 C421.00,551.47 421.40,551.13 421.90,551.44 C422.39,551.74 423.06,551.29 423.38,550.44 C423.72,549.56 423.55,549.16 422.99,549.51 C421.64,550.34 421.61,550.47 424.99,540.41 C426.63,535.51 427.98,529.89 427.99,527.93 C427.99,525.97 430.29,517.87 433.09,509.93 C435.90,501.99 439.05,492.44 440.11,488.71 C441.17,484.98 442.45,481.15 442.95,480.21 C443.46,479.27 444.87,476.39 446.08,473.82 C449.51,466.54 463.30,454.41 466.67,455.70 C467.73,456.11 468.00,461.29 468.00,480.86 L 468.01 505.50 L 471.06 508.75 C472.73,510.54 474.75,512.00 475.55,512.00 C478.64,512.00 476.49,515.65 473.11,516.15 C471.79,516.34 470.38,517.42 469.97,518.54 C469.33,520.29 469.60,520.58 471.86,520.49 C474.61,520.38 477.00,521.61 477.00,523.12 C477.00,523.61 476.36,524.00 475.58,524.00 C474.79,524.00 472.77,525.16 471.08,526.59 L 468.00 529.18 L 468.00 559.02 L 468.00 588.87 L 458.25 589.26 C446.36,589.73 444.43,590.22 440.88,593.62 C435.31,598.95 433.37,607.53 436.50,613.00 C438.76,616.96 438.35,618.00 434.51,618.00 C431.51,618.00 430.66,617.42 428.42,613.88 ZM 430.43 605.33 C431.25,603.19 429.81,601.75 427.67,602.57 C425.71,603.33 425.46,605.61 427.25,606.34 C429.36,607.19 429.76,607.06 430.43,605.33 ZM 424.39 598.43 C424.79,597.38 425.66,597.08 427.02,597.51 C428.87,598.09 428.84,597.93 426.64,595.56 C424.29,593.02 424.20,592.32 425.31,584.82 C425.53,583.35 425.36,581.58 424.93,580.89 C423.87,579.17 428.68,576.76 431.40,577.65 C432.56,578.03 434.86,578.25 436.53,578.15 C439.48,577.97 439.55,578.06 439.17,581.98 C438.85,585.34 439.10,586.02 440.64,586.11 C446.95,586.49 453.40,584.49 452.60,582.41 C452.30,581.62 452.63,581.31 453.45,581.62 C454.19,581.90 455.03,581.76 455.31,581.30 C455.60,580.84 453.84,580.41 451.40,580.34 C448.97,580.28 446.32,579.68 445.53,579.03 C444.74,578.37 443.56,578.15 442.91,578.55 C442.18,579.01 441.92,578.76 442.21,577.89 C442.51,577.01 444.02,576.55 446.33,576.64 C448.34,576.72 449.73,576.38 449.43,575.89 C449.13,575.40 449.39,575.00 450.00,575.00 C450.61,575.00 450.84,574.55 450.50,574.00 C450.16,573.45 450.29,573.00 450.78,573.00 C451.27,573.00 452.18,571.89 452.80,570.53 C453.70,568.56 453.62,567.76 452.38,566.53 C451.53,565.68 450.43,565.23 449.93,565.54 C449.43,565.85 449.28,565.43 449.60,564.61 C450.02,563.51 449.54,563.19 447.79,563.37 C446.48,563.51 444.92,563.93 444.31,564.31 C443.19,565.00 441.52,562.15 442.48,561.19 C442.76,560.90 443.00,561.16 443.00,561.77 C443.00,563.15 447.25,562.97 448.21,561.55 C448.61,560.97 449.39,560.44 449.96,560.38 C450.53,560.31 451.41,560.19 451.91,560.12 C453.08,559.96 452.61,556.52 451.40,556.45 C446.41,556.18 444.37,551.70 448.41,549.86 C450.28,549.01 450.63,548.19 450.33,545.41 C450.00,542.44 450.25,541.99 452.23,541.90 C454.42,541.80 454.41,541.77 452.00,541.08 C450.62,540.68 449.27,540.68 449.00,541.08 C448.73,541.48 446.92,541.94 445.00,542.12 C442.54,542.34 441.58,542.05 441.77,541.14 C441.93,540.43 441.56,540.15 440.97,540.52 C440.38,540.88 440.08,541.70 440.30,542.34 C440.53,542.98 440.29,544.62 439.78,546.00 C438.85,548.49 440.60,556.37 441.90,555.56 C442.23,555.36 442.56,556.24 442.64,557.52 C442.73,559.05 442.33,559.68 441.49,559.36 C439.54,558.61 438.65,560.87 440.16,562.74 C440.90,563.64 441.01,564.09 440.42,563.74 C439.76,563.35 439.41,563.96 439.51,565.30 C439.60,566.51 438.90,568.88 437.95,570.58 C436.72,572.78 436.50,574.20 437.18,575.58 C438.04,577.31 438.00,577.34 436.77,575.84 C436.02,574.92 434.08,574.02 432.45,573.84 C429.87,573.54 429.42,573.00 428.83,569.50 C427.67,562.55 427.38,561.75 425.55,560.41 C424.52,559.66 424.00,558.43 424.34,557.55 C424.67,556.70 424.53,556.00 424.04,556.00 C423.55,556.00 422.96,555.21 422.73,554.25 C422.40,552.87 422.07,553.09 421.18,555.27 C420.24,557.54 419.72,566.55 419.84,578.50 C419.85,579.60 419.86,583.01 419.85,586.09 C419.83,595.39 422.63,603.01 424.39,598.43 ZM 463.22 586.14 C466.80,584.32 466.83,584.24 465.40,581.46 C464.27,579.29 464.17,577.94 464.98,575.63 C465.69,573.60 465.70,572.30 465.01,571.61 C463.70,570.30 463.69,560.31 465.00,559.50 C465.67,559.09 465.64,558.20 464.93,556.87 C464.26,555.63 464.11,552.46 464.53,548.55 C464.94,544.70 464.82,542.01 464.21,541.63 C463.28,541.05 463.41,537.42 464.62,530.50 C465.90,523.16 466.17,516.90 465.25,515.75 C464.70,515.06 464.37,510.23 464.51,505.00 C464.69,498.16 464.33,494.57 463.24,492.19 C461.94,489.37 461.90,488.03 462.95,483.33 C463.85,479.32 463.89,477.49 463.10,476.70 C462.49,476.09 462.00,473.89 462.00,471.80 C462.00,467.75 460.58,466.66 459.70,470.02 C459.41,471.14 459.18,472.15 459.18,472.27 C459.18,472.40 458.42,474.41 457.49,476.74 C456.11,480.17 456.01,481.58 456.92,484.20 C457.82,486.79 457.72,488.49 456.39,492.71 C455.05,496.96 454.97,498.26 455.99,499.49 C456.99,500.70 457.00,501.30 455.99,502.51 C455.04,503.66 455.00,505.01 455.83,508.26 C456.43,510.59 456.79,516.10 456.64,520.50 C456.49,524.90 456.74,529.28 457.21,530.23 C458.04,531.95 457.01,534.62 454.10,538.25 C452.88,539.76 452.89,540.00 454.15,540.00 C454.95,540.00 455.67,541.01 455.75,542.25 C455.83,543.49 456.12,546.72 456.39,549.43 C456.66,552.14 456.46,555.14 455.94,556.11 C455.29,557.32 455.43,558.29 456.40,559.26 C457.39,560.25 457.59,561.79 457.10,564.58 C456.72,566.73 456.52,569.75 456.65,571.27 C456.78,572.80 456.47,573.79 455.95,573.47 C454.66,572.67 456.10,576.33 457.43,577.22 C458.18,577.72 458.12,578.48 457.24,579.72 C454.82,583.15 454.80,584.02 457.14,585.97 C458.44,587.05 459.52,587.95 459.54,587.97 C459.56,587.99 461.22,587.16 463.22,586.14 ZM 451.75 525.64 C451.75,523.80 451.32,523.36 449.88,523.74 C447.59,524.34 447.45,525.57 449.56,526.39 C450.44,526.72 450.81,527.50 450.41,528.15 C449.99,528.82 450.12,529.04 450.72,528.67 C451.29,528.32 451.75,526.96 451.75,525.64 ZM 447.00 521.30 C447.00,520.55 447.67,519.68 448.50,519.36 C450.32,518.66 450.46,515.86 448.76,514.16 C447.77,513.17 447.82,512.72 449.01,511.97 C449.83,511.45 450.04,511.02 449.47,511.02 C448.91,511.01 447.56,512.01 446.47,513.25 C444.19,515.85 443.62,522.67 445.69,522.67 C446.41,522.67 447.00,522.05 447.00,521.30 ZM 444.48 514.02 C444.73,513.62 443.73,512.21 442.25,510.90 C440.77,509.58 440.16,509.29 440.90,510.25 C441.80,511.41 441.87,512.00 441.12,512.00 C440.51,512.00 440.00,512.86 440.00,513.91 C440.00,515.33 440.52,515.68 442.02,515.29 C443.12,515.00 444.24,514.43 444.48,514.02 ZM 451.25 507.19 C453.52,505.24 453.46,504.50 450.82,502.05 C449.63,500.93 448.93,499.73 449.29,499.38 C450.11,498.55 448.23,495.00 446.96,495.00 C446.43,495.00 446.00,495.67 446.00,496.50 C446.00,497.33 445.13,498.87 444.08,499.92 C441.70,502.30 441.93,504.23 444.95,507.45 C447.31,509.96 448.06,509.93 451.25,507.19 ZM 488.00 559.22 L 488.00 529.45 L 485.25 526.95 C482.04,524.04 481.35,522.00 483.56,522.00 C484.46,522.00 484.82,521.53 484.42,520.87 C483.99,520.18 484.26,519.93 485.11,520.23 C485.94,520.52 486.44,521.96 486.36,523.82 C486.25,526.11 486.73,527.10 488.17,527.55 C490.80,528.39 491.87,531.65 490.91,535.90 C490.48,537.82 490.43,539.95 490.81,540.63 C491.19,541.31 491.16,545.39 490.74,549.68 C490.31,553.98 489.86,563.72 489.73,571.32 C489.48,586.26 489.81,587.33 495.00,588.27 C496.44,588.53 495.49,588.79 492.75,588.86 L 488.00 589.00 L 488.00 559.22 ZM 486.22 517.14 C485.62,516.76 484.69,515.30 484.15,513.89 C483.35,511.78 483.60,510.80 485.55,508.41 C487.93,505.50 487.93,505.49 487.96,477.24 L 488.00 448.97 L 491.42 445.24 L 494.84 441.50 L 507.08 441.50 C514.75,441.50 519.45,441.89 519.68,442.55 C519.90,443.20 518.69,443.45 516.51,443.19 C512.89,442.77 507.45,445.30 508.46,446.93 C508.74,447.39 508.30,448.34 507.47,449.03 C506.19,450.09 506.06,449.99 506.66,448.39 C507.27,446.77 507.15,446.68 505.81,447.77 C504.67,448.69 503.52,448.77 501.62,448.05 C499.68,447.31 498.99,447.37 498.97,448.27 C498.95,448.95 498.29,450.35 497.50,451.40 C496.37,452.89 495.76,453.05 494.65,452.12 C493.54,451.20 493.10,451.29 492.62,452.56 C491.57,455.29 491.91,456.00 494.29,456.00 C496.24,456.00 496.59,456.54 496.67,459.62 C496.75,462.39 496.32,463.36 494.87,463.74 C492.77,464.29 491.49,467.94 492.31,471.06 C492.60,472.17 492.50,474.30 492.09,475.79 C491.20,479.03 492.14,483.50 493.71,483.50 C494.33,483.50 495.21,483.91 495.67,484.41 C496.15,484.93 496.00,485.03 495.32,484.64 C493.46,483.58 493.17,484.81 492.01,499.07 C491.40,506.46 490.71,513.46 490.46,514.64 C489.97,516.99 487.93,518.19 486.22,517.14 ZM 536.00 442.00 C536.00,441.45 536.42,441.00 536.94,441.00 C537.46,441.00 538.16,441.45 538.50,442.00 C538.84,442.55 538.42,443.00 537.56,443.00 C536.70,443.00 536.00,442.55 536.00,442.00 ZM 615.50 380.22 C614.40,379.99 613.05,379.34 612.50,378.77 C611.82,378.07 612.45,377.97 614.50,378.45 C618.87,379.49 619.79,381.10 615.50,380.22 ZM 598.66 373.70 C597.52,372.72 595.11,370.99 593.29,369.87 C588.41,366.86 589.30,366.50 594.34,369.46 C596.72,370.86 599.35,372.00 600.18,372.00 C601.01,372.00 602.68,372.85 603.88,373.90 L 606.07 375.79 L 603.40 375.65 C601.93,375.57 599.80,374.69 598.66,373.70 ZM 565.21 342.54 C563.94,341.08 562.17,338.34 561.27,336.44 C560.37,334.55 559.31,333.00 558.93,333.00 C558.54,333.00 557.92,330.86 557.54,328.25 C557.16,325.64 556.13,321.02 555.25,318.00 C553.99,313.67 553.63,307.41 553.57,288.48 C553.50,265.90 553.62,264.31 555.50,261.98 C557.28,259.77 558.14,259.53 563.29,259.80 C571.38,260.22 576.52,257.75 586.62,248.59 L 592.03 243.69 L 599.26 250.61 C608.06,259.03 613.47,263.30 615.74,263.64 C616.68,263.78 617.91,264.51 618.47,265.27 C619.04,266.02 620.40,267.21 621.50,267.90 L 623.50 269.15 L 621.50 268.44 C620.40,268.05 618.34,267.79 616.92,267.87 C615.11,267.97 613.94,267.26 613.00,265.50 C612.24,264.08 610.77,262.99 609.58,262.98 C608.44,262.98 606.84,262.55 606.03,262.04 C604.07,260.80 602.00,262.60 602.00,265.54 C602.00,268.38 601.04,271.00 600.01,271.00 C598.97,271.00 595.67,265.89 595.67,264.28 C595.67,263.58 595.29,263.00 594.83,263.00 C594.38,263.00 594.00,261.85 594.00,260.43 C594.00,257.06 592.30,254.00 590.43,254.00 C588.70,254.00 587.02,257.81 587.79,260.00 C588.08,260.83 587.96,261.17 587.52,260.78 C587.08,260.38 585.46,260.80 583.93,261.70 C581.61,263.07 580.86,263.13 579.57,262.05 C578.24,260.95 578.00,261.04 577.98,262.63 C577.98,263.67 577.64,264.06 577.23,263.50 C576.83,262.95 575.83,262.32 575.00,262.11 C571.08,261.08 569.52,261.67 567.33,265.00 C566.07,266.92 564.60,269.01 564.08,269.64 C563.55,270.27 563.21,270.95 563.31,271.14 C563.41,271.34 562.69,270.71 561.71,269.75 C557.27,265.40 556.99,266.99 557.22,295.25 C557.40,318.41 557.46,319.00 559.45,319.12 C560.58,319.18 561.84,319.18 562.25,319.12 C562.66,319.05 563.00,321.14 563.01,323.75 C563.02,328.74 565.23,337.37 567.07,339.59 C567.67,340.30 568.01,341.86 567.83,343.04 C567.51,345.13 567.44,345.12 565.21,342.54 ZM 700.98 306.75 C700.97,304.93 700.78,304.79 700.00,306.00 C699.26,307.15 699.03,306.80 699.03,304.50 C699.03,302.20 699.26,301.85 700.00,303.00 C700.68,304.06 700.97,302.63 700.98,298.19 C700.99,294.24 700.63,292.11 700.00,292.50 C699.37,292.89 699.00,290.34 699.00,285.56 C699.00,279.51 699.30,278.00 700.50,278.00 C701.77,278.00 702.00,280.39 702.00,293.50 C702.00,302.02 701.78,309.00 701.50,309.00 C701.22,309.00 700.99,307.99 700.98,306.75 ZM 524.67 258.33 C523.67,257.34 523.90,243.48 525.04,235.59 C526.30,226.87 531.20,212.13 535.14,205.26 C538.67,199.09 544.59,191.29 550.39,185.15 C554.82,180.46 567.03,171.75 570.85,170.54 C573.11,169.83 573.18,169.96 572.57,173.65 C572.21,175.77 571.83,183.12 571.72,190.00 C571.53,201.98 571.65,202.75 574.45,208.50 C576.40,212.49 577.52,216.56 577.80,220.67 L 578.22 226.85 L 573.41 232.00 C568.36,237.39 565.75,238.85 557.50,240.91 C549.37,242.93 541.09,247.88 538.19,252.45 C536.77,254.68 534.94,257.06 534.12,257.75 C532.54,259.06 525.81,259.48 524.67,258.33 ZM 558.50 234.78 C560.26,232.62 560.62,230.35 559.39,229.21 C558.26,228.16 558.00,228.16 557.98,229.21 C557.97,230.16 557.73,230.12 557.06,229.06 C556.27,227.82 555.92,227.82 554.41,229.06 C552.80,230.39 552.77,230.32 553.91,228.19 C554.84,226.44 555.46,226.13 556.44,226.95 C557.43,227.77 558.14,227.44 559.34,225.61 C560.69,223.54 560.72,223.01 559.52,222.02 C558.75,221.38 558.39,220.14 558.73,219.26 C559.18,218.08 558.97,217.89 557.92,218.53 C556.72,219.25 556.71,219.13 557.84,217.74 C559.42,215.79 558.56,213.85 556.47,214.65 C555.66,214.96 555.00,214.69 555.00,214.05 C555.00,213.41 554.59,213.13 554.09,213.44 C553.59,213.75 553.42,213.10 553.71,212.00 C554.00,210.90 554.86,210.00 555.62,210.00 C556.38,210.00 557.00,209.52 557.00,208.94 C557.00,208.36 556.47,208.21 555.83,208.61 C555.07,209.08 554.86,208.80 555.24,207.82 C555.56,207.00 555.41,205.68 554.92,204.91 C554.24,203.83 554.03,203.80 554.02,204.81 C554.01,205.53 553.59,205.87 553.10,205.56 C551.68,204.68 548.07,211.50 549.10,213.12 C550.94,216.03 550.09,216.82 545.75,216.25 C543.41,215.95 541.35,215.32 541.17,214.85 C539.97,211.81 537.41,217.57 538.47,220.90 C538.93,222.37 539.81,222.54 544.02,222.00 C546.77,221.64 549.24,221.58 549.51,221.84 C549.78,222.11 550.00,223.58 550.00,225.11 C550.00,226.63 550.51,228.20 551.14,228.58 C551.89,229.05 551.47,229.89 549.90,231.07 C548.60,232.06 547.08,232.51 546.52,232.07 C544.79,230.74 541.03,230.14 540.44,231.10 C540.13,231.60 540.46,232.19 541.19,232.41 C541.91,232.63 543.40,233.15 544.50,233.56 C545.60,233.98 546.86,234.24 547.30,234.14 C547.75,234.04 549.02,234.60 550.14,235.39 C551.60,236.41 553.03,236.57 555.22,235.94 C556.90,235.46 558.37,234.94 558.50,234.78 ZM 572.25 217.46 C572.48,212.49 572.38,207.58 572.02,206.56 C571.47,204.99 571.16,205.21 570.02,207.96 C569.27,209.75 568.67,211.84 568.67,212.61 C568.67,213.37 568.27,214.00 567.77,214.00 C567.28,214.00 567.19,214.50 567.57,215.11 C567.94,215.71 568.46,217.85 568.72,219.86 C568.98,221.86 569.56,223.89 570.02,224.37 C570.47,224.85 570.59,225.98 570.27,226.87 C569.88,227.99 570.04,228.19 570.77,227.50 C571.35,226.95 572.02,222.43 572.25,217.46 ZM 559.29 194.02 C559.61,192.76 559.32,192.00 558.52,192.00 C557.20,192.00 555.80,195.47 556.75,196.41 C557.59,197.26 558.71,196.20 559.29,194.02 ZM 654.00 256.09 C647.29,255.13 645.98,253.94 650.10,252.55 C652.82,251.63 653.95,251.69 655.77,252.83 C657.02,253.61 660.62,254.39 663.77,254.56 C671.40,254.95 681.40,256.07 681.92,256.59 C682.56,257.23 659.05,256.81 654.00,256.09 ZM 620.46 241.90 C617.18,239.65 613.71,236.75 612.75,235.46 C611.04,233.18 611.05,233.12 613.10,233.52 C615.78,234.04 618.00,235.87 618.00,237.56 C618.00,238.28 620.03,240.33 622.50,242.11 C626.53,245.00 627.61,246.00 626.71,246.00 C626.55,246.00 623.73,244.16 620.46,241.90 ZM 604.67 226.75 C594.72,213.49 589.31,192.67 591.95,177.87 C593.08,171.56 593.79,170.07 597.60,165.99 C600.00,163.43 602.53,161.21 603.23,161.07 C603.93,160.93 612.83,160.59 623.00,160.33 C640.87,159.87 659.53,161.13 661.31,162.91 C662.62,164.22 653.10,165.33 651.56,164.05 C650.09,162.83 642.97,162.42 632.55,162.95 C627.92,163.18 625.47,162.92 625.22,162.15 C624.66,160.47 623.15,160.73 620.27,163.00 C618.62,164.30 616.28,164.99 613.61,164.95 C605.45,164.84 605.49,164.80 605.54,173.35 C605.57,177.56 605.24,181.00 604.82,181.00 C604.41,181.00 604.35,181.75 604.70,182.66 C605.06,183.60 604.93,184.07 604.40,183.74 C603.86,183.41 603.46,185.09 603.48,187.68 C603.49,190.16 603.17,192.40 602.76,192.65 C601.75,193.27 602.61,209.37 603.66,209.72 C604.12,209.87 604.34,212.25 604.15,215.00 C603.94,218.10 604.21,220.00 604.88,220.00 C606.26,220.00 609.00,225.29 609.00,227.95 C609.00,230.90 607.46,230.48 604.67,226.75 ZM 713.31 202.67 C709.41,200.73 709.58,195.81 713.50,196.93 C714.97,197.35 715.50,198.36 715.51,200.75 C715.51,202.54 715.51,203.94 715.51,203.88 C715.50,203.81 714.52,203.26 713.31,202.67 ZM 694.97 181.35 C694.13,181.13 692.87,180.03 692.18,178.91 C691.03,177.08 691.09,176.98 692.79,177.89 C694.39,178.75 697.94,182.22 696.87,181.88 C696.67,181.82 695.81,181.58 694.97,181.35 ZM 676.82 169.48 C676.53,169.20 674.13,168.75 671.48,168.48 C667.11,168.04 663.90,167.00 666.89,167.00 C667.57,167.00 667.81,166.50 667.43,165.89 C666.96,165.13 667.48,165.03 669.12,165.56 C670.43,165.99 672.29,166.29 673.25,166.23 C674.21,166.17 675.00,166.57 675.00,167.12 C675.00,167.67 675.34,167.91 675.75,167.66 C676.16,167.41 677.08,167.84 677.79,168.60 C678.96,169.87 678.04,170.70 676.82,169.48 Z" fill="rgba(254,251,254,1)"/>
</g>
</svg>