<svg xmlns="http://www.w3.org/2000/svg" width="1254" height="836" viewBox="0 0 1254 836">
<g>
<path d="M 202.00 530.72 C202.00,528.43 202.49,528.12 207.09,527.49 C212.52,526.74 214.71,527.72 213.66,530.43 C213.33,531.29 211.98,532.00 210.66,532.00 C209.33,532.00 206.84,532.28 205.12,532.62 C202.28,533.19 202.00,533.02 202.00,530.72 ZM 219.67 530.33 C218.18,528.85 219.11,526.01 221.25,525.48 C226.87,524.09 229.49,524.44 229.80,526.62 C230.05,528.38 229.34,528.93 225.61,529.87 C221.61,530.88 220.75,531.11 220.20,530.80 C220.02,530.70 219.87,530.54 219.67,530.33 ZM 964.32 298.40 C963.38,295.94 966.62,294.00 971.69,294.00 C974.81,294.00 976.00,294.41 976.00,295.46 C976.00,297.26 973.68,298.52 968.74,299.42 C965.72,299.96 964.85,299.76 964.32,298.40 ZM 980.34 295.43 C979.47,293.19 980.85,292.26 986.25,291.47 C990.83,290.80 991.00,290.86 991.00,293.26 C991.00,295.25 990.37,295.88 987.88,296.38 C982.94,297.36 980.98,297.12 980.34,295.43 ZM 916.67 312.33 C914.70,310.36 916.27,308.10 920.62,306.61 C923.17,305.75 925.64,305.28 926.12,305.58 C928.24,306.88 926.65,309.22 922.42,311.04 C918.56,312.69 917.74,313.08 917.23,312.83 C917.04,312.74 916.90,312.57 916.67,312.33 ZM 1013.38 292.55 C1012.40,290.00 1013.99,289.00 1019.00,289.00 C1024.23,289.00 1025.91,290.20 1023.96,292.54 C1022.33,294.51 1014.13,294.51 1013.38,292.55 ZM 521.55 365.22 C521.25,364.91 521.00,363.90 521.00,362.96 C521.00,361.09 529.00,358.26 530.92,359.45 C532.20,360.24 532.35,362.67 531.16,363.40 C529.62,364.35 522.11,365.77 521.55,365.22 ZM 1030.38 292.55 C1029.40,290.01 1030.98,289.00 1035.95,289.00 C1040.93,289.00 1042.96,290.64 1040.72,292.88 C1039.04,294.56 1031.06,294.31 1030.38,292.55 ZM 299.30 503.34 C298.12,500.27 306.80,495.40 309.19,497.79 C310.65,499.25 309.47,500.72 304.97,503.01 C300.26,505.42 300.10,505.43 299.30,503.34 ZM 369.96 458.45 C368.83,457.09 369.06,456.51 371.57,454.42 C376.36,450.42 377.66,449.88 378.91,451.39 C380.20,452.95 378.22,455.73 373.89,458.42 C371.51,459.91 371.17,459.91 369.96,458.45 ZM 932.18 304.85 C932.52,302.57 939.21,299.48 941.72,300.45 C944.18,301.39 942.97,303.98 939.38,305.49 C934.11,307.69 931.79,307.48 932.18,304.85 ZM 185.35 531.75 C185.64,529.83 186.39,529.45 190.48,529.19 C195.92,528.84 198.01,530.07 196.04,532.46 C195.20,533.46 193.05,534.00 189.88,534.00 C185.40,534.00 185.04,533.82 185.35,531.75 ZM 536.38 360.56 C535.49,358.22 536.79,357.22 541.73,356.43 C545.19,355.87 546.09,356.06 546.62,357.44 C547.51,359.78 546.21,360.78 541.27,361.57 C537.81,362.13 536.91,361.94 536.38,360.56 ZM 342.10 477.62 C341.18,476.51 341.97,475.59 346.07,472.96 C350.24,470.28 351.35,469.93 352.08,471.09 C353.51,473.35 353.24,473.78 348.66,476.46 C343.61,479.42 343.60,479.42 342.10,477.62 ZM 446.65 398.54 C445.98,396.79 452.58,391.00 455.23,391.00 C458.70,391.00 457.18,394.81 452.66,397.46 C447.60,400.43 447.39,400.46 446.65,398.54 ZM 433.67 408.33 C432.21,406.87 433.18,405.15 436.94,402.54 C443.21,398.19 445.73,401.82 439.66,406.45 C436.23,409.06 434.84,409.50 433.67,408.33 ZM 759.67 383.57 C758.90,381.58 760.91,380.20 765.66,379.44 C769.21,378.87 769.78,379.05 770.26,380.88 C770.71,382.60 770.17,383.14 767.15,383.97 C762.17,385.36 760.31,385.26 759.67,383.57 ZM 857.35 337.46 C857.02,336.61 856.92,335.79 857.13,335.63 C863.52,330.83 866.38,329.95 867.36,332.49 C867.73,333.45 866.63,334.86 864.23,336.49 C859.97,339.38 858.18,339.63 857.35,337.46 ZM 830.67 354.33 C829.36,353.02 830.06,351.99 834.05,349.35 C837.82,346.86 838.21,346.78 839.75,348.32 C841.29,349.87 841.27,350.09 839.45,351.52 C835.91,354.33 831.93,355.60 830.67,354.33 ZM 745.74 387.41 C743.75,385.42 745.13,383.24 748.75,382.64 C754.54,381.69 755.00,381.82 755.00,384.50 C755.00,385.95 754.42,387.00 753.62,387.00 C752.87,387.00 750.95,387.26 749.37,387.58 C747.78,387.89 746.15,387.82 745.74,387.41 ZM 314.07 495.13 C312.91,492.97 313.51,492.26 318.78,489.58 C325.36,486.24 325.82,490.68 319.30,494.56 C315.23,496.98 315.07,497.00 314.07,495.13 ZM 268.67 517.33 C266.98,515.65 268.38,513.77 272.67,511.93 C276.37,510.34 277.51,510.19 278.15,511.21 C279.57,513.44 279.12,514.02 274.42,516.04 C270.56,517.69 269.74,518.08 269.23,517.83 C269.04,517.74 268.90,517.57 268.67,517.33 ZM 382.91 448.39 C381.80,447.05 382.18,446.34 385.56,443.45 C390.03,439.62 390.82,439.37 391.66,441.55 C392.00,442.45 391.26,444.17 389.88,445.64 C386.28,449.48 384.43,450.22 382.91,448.39 ZM 886.00 321.95 C886.00,320.51 887.25,319.34 890.21,318.02 C894.77,315.98 896.00,316.16 896.00,318.87 C896.00,319.90 894.53,321.33 892.47,322.31 C887.79,324.54 886.00,324.44 886.00,321.95 ZM 327.65 486.52 C326.89,484.56 335.08,478.81 336.96,479.98 C338.89,481.17 337.56,483.69 333.78,485.99 C329.87,488.38 328.41,488.51 327.65,486.52 ZM 461.57 389.33 C460.91,387.61 461.48,387.02 466.34,384.39 C469.21,382.84 472.00,383.11 472.00,384.93 C472.00,386.11 465.05,391.00 463.37,391.00 C462.74,391.00 461.93,390.25 461.57,389.33 ZM 252.36 521.50 C252.02,520.60 252.13,519.50 252.62,519.05 C254.11,517.68 260.90,515.82 261.98,516.49 C263.86,517.65 263.02,519.75 260.25,520.81 C254.36,523.07 253.01,523.19 252.36,521.50 ZM 407.46 426.94 C406.76,425.80 413.72,419.11 415.69,419.04 C418.37,418.95 418.03,421.37 414.92,424.59 C411.60,428.01 408.69,428.93 407.46,426.94 ZM 997.00 293.11 C997.00,290.82 998.87,290.00 1004.08,290.00 C1006.86,290.00 1008.00,290.43 1008.00,291.46 C1008.00,293.49 1004.82,295.00 1000.57,295.00 C997.73,295.00 997.00,294.61 997.00,293.11 ZM 236.38 525.54 C235.55,523.39 236.62,522.42 241.16,521.20 C243.70,520.51 245.15,520.55 245.91,521.31 C247.60,523.00 247.22,523.96 244.46,525.02 C238.86,527.14 237.04,527.26 236.38,525.54 ZM 357.25 469.34 C355.00,468.43 355.93,466.48 360.14,463.24 C364.24,460.09 366.00,459.86 366.00,462.46 C366.00,463.54 359.49,470.21 358.72,469.92 C358.60,469.88 357.94,469.62 357.25,469.34 ZM 789.00 374.15 C789.00,371.74 796.53,368.13 798.17,369.77 C799.76,371.36 798.46,373.88 795.46,375.02 C791.40,376.56 789.00,376.24 789.00,374.15 ZM 843.64 345.49 C842.94,343.68 850.44,338.57 852.59,339.40 C855.20,340.40 854.03,342.94 850.04,344.98 C845.30,347.40 844.39,347.47 843.64,345.49 ZM 871.74 330.40 C870.52,329.19 872.35,326.86 875.98,325.01 C878.78,323.58 879.99,323.39 880.85,324.25 C882.61,326.01 882.29,326.63 878.44,328.90 C874.83,331.03 872.82,331.48 871.74,330.40 ZM 948.33 301.42 C947.44,299.10 949.30,297.83 954.41,297.26 C958.16,296.83 959.00,297.03 959.00,298.33 C959.00,301.41 949.39,304.18 948.33,301.42 ZM 476.00 381.02 C476.00,378.88 483.29,374.44 485.03,375.52 C486.96,376.71 485.93,378.85 482.44,380.90 C477.99,383.53 476.00,383.57 476.00,381.02 ZM 817.68 362.34 C816.10,360.76 817.26,358.91 821.03,356.98 C825.13,354.90 827.00,355.04 827.00,357.44 C827.00,359.74 819.18,363.85 817.68,362.34 ZM 552.38 357.55 C551.40,354.99 552.99,354.00 558.06,354.00 C562.42,354.00 563.00,354.25 563.00,356.12 C563.00,357.84 562.53,358.14 560.50,357.76 C559.12,357.49 558.00,357.66 558.00,358.14 C558.00,359.61 552.97,359.08 552.38,357.55 ZM 505.64 368.50 C504.92,366.63 508.77,363.98 512.61,363.70 C517.09,363.38 516.98,366.57 512.44,368.46 C507.83,370.39 506.37,370.40 505.64,368.50 ZM 901.67 317.33 C899.48,315.15 904.59,311.00 909.47,311.00 C912.76,311.00 911.02,314.77 906.98,316.39 C903.61,317.74 902.79,318.09 902.26,317.84 C902.06,317.75 901.90,317.57 901.67,317.33 ZM 395.00 437.70 C395.00,436.11 401.14,430.00 402.74,430.00 C405.37,430.00 405.01,432.39 401.92,435.59 C398.59,439.02 395.00,440.12 395.00,437.70 ZM 803.50 369.00 C803.16,368.45 803.16,367.54 803.51,366.99 C804.45,365.47 811.66,361.99 812.38,362.71 C813.97,364.30 812.68,366.78 809.47,368.31 C805.38,370.26 804.35,370.38 803.50,369.00 ZM 284.60 511.27 C283.10,509.76 284.32,507.88 288.03,505.98 C292.17,503.87 294.00,504.04 294.00,506.52 C294.00,508.50 285.91,512.58 284.60,511.27 ZM 420.67 416.57 C419.98,414.78 426.38,409.73 428.77,410.19 C431.46,410.71 430.82,412.68 427.06,415.46 C423.15,418.34 421.46,418.64 420.67,416.57 ZM 774.53 380.05 C773.44,378.28 775.72,376.28 779.67,375.53 C783.96,374.73 786.20,376.25 783.96,378.43 C781.96,380.38 775.42,381.50 774.53,380.05 ZM 490.64 374.50 C489.99,372.81 493.01,370.50 497.25,369.46 C499.59,368.88 500.00,369.10 500.00,370.87 C500.00,372.16 498.88,373.53 497.05,374.47 C493.32,376.40 491.37,376.41 490.64,374.50 ZM 719.25 386.80 C714.62,384.52 717.26,382.51 723.63,383.47 C727.10,383.99 728.05,384.52 727.80,385.82 C727.42,387.85 722.52,388.41 719.25,386.80 ZM 731.67 387.33 C729.63,385.30 731.26,384.00 735.83,384.00 C741.12,384.00 742.14,384.48 741.32,386.60 C740.77,388.04 732.97,388.64 731.67,387.33 ZM 1047.15 294.11 C1046.41,293.64 1045.97,292.41 1046.17,291.38 C1046.48,289.78 1047.29,289.55 1051.52,289.84 C1052.50,289.91 1053.34,289.98 1054.06,290.08 C1053.41,290.18 1052.86,290.42 1052.62,290.80 C1051.96,291.87 1053.16,293.59 1055.00,294.20 C1056.13,294.58 1057.29,293.69 1057.65,292.61 C1057.60,292.83 1057.53,293.07 1057.43,293.33 C1056.73,295.15 1049.64,295.69 1047.15,294.11 ZM 568.36 356.49 C567.39,353.96 569.33,352.84 574.11,353.19 C574.52,353.21 574.89,353.25 575.23,353.28 C575.07,353.49 575.12,353.87 575.34,354.45 C575.69,355.36 575.58,355.86 575.10,355.56 C574.62,355.27 573.75,355.60 573.16,356.30 C572.32,357.32 572.84,357.50 575.60,357.18 C577.00,357.01 577.89,356.78 578.37,356.41 C578.02,357.33 576.88,357.60 573.74,357.81 C570.08,358.04 568.84,357.74 568.36,356.49 Z" fill="rgba(224,108,186,1)"/>
<path d="M 640.50 373.79 C638.35,372.56 637.09,371.17 636.48,369.19 L 636.89 366.50 C637.45,362.80 637.76,362.47 640.98,362.17 C644.34,361.85 644.40,361.90 642.73,363.75 C639.81,366.97 640.87,370.75 644.31,369.43 C646.27,368.68 647.20,364.95 645.84,363.30 C645.13,362.45 645.11,362.00 645.78,362.00 C646.34,362.00 647.72,363.44 648.83,365.20 C650.43,367.72 650.63,368.83 649.78,370.45 C648.75,372.43 648.78,372.44 650.69,370.75 C651.77,369.78 652.87,369.20 653.12,369.45 C653.37,369.71 653.65,369.03 653.73,367.96 C653.81,366.88 653.45,366.00 652.94,366.00 C652.42,366.00 652.00,365.30 652.00,364.45 C652.00,365.49 652.95,366.00 654.88,366.00 C658.26,366.00 660.89,368.51 659.25,370.15 C658.52,370.88 657.26,370.91 655.34,370.26 C652.90,369.43 652.04,369.70 649.22,372.15 C645.68,375.22 643.65,375.60 640.50,373.79 ZM 123.20 532.01 C119.12,531.05 118.58,530.53 119.40,528.41 C119.92,527.03 120.88,526.85 124.73,527.38 C130.09,528.11 131.33,528.97 130.43,531.33 C129.74,533.12 128.40,533.25 123.20,532.01 ZM 107.50 529.47 C105.30,528.68 103.39,528.02 103.25,528.02 C102.63,527.98 103.08,525.07 103.78,524.63 C104.21,524.37 106.69,524.60 109.28,525.16 C113.33,526.02 114.00,526.51 114.00,528.58 C114.00,531.35 113.07,531.48 107.50,529.47 ZM 1066.00 296.12 C1063.36,295.65 1062.51,295.01 1062.52,293.50 C1062.54,291.74 1063.13,291.53 1067.49,291.76 C1072.91,292.05 1074.58,293.04 1073.66,295.43 C1073.04,297.06 1071.90,297.16 1066.00,296.12 ZM 1081.19 298.29 C1079.49,297.96 1078.96,297.27 1079.19,295.67 C1079.45,293.85 1080.04,293.55 1082.91,293.84 C1088.25,294.36 1091.04,295.72 1090.37,297.47 C1089.80,298.97 1086.38,299.28 1081.19,298.29 ZM 1115.16 305.02 C1107.31,303.13 1108.75,299.04 1116.72,300.58 C1120.51,301.31 1121.50,301.91 1121.50,303.49 C1121.50,305.76 1119.90,306.15 1115.16,305.02 ZM 153.25 534.29 C152.56,534.04 152.00,532.97 152.00,531.92 C152.00,530.26 152.75,530.00 157.57,530.00 C162.77,530.00 163.12,530.15 162.82,532.25 C162.55,534.13 161.84,534.52 158.50,534.62 C156.30,534.69 153.94,534.54 153.25,534.29 ZM 1130.33 308.31 C1127.92,307.83 1126.45,305.15 1127.84,303.76 C1128.79,302.81 1134.72,303.59 1136.96,304.98 C1137.69,305.43 1138.02,306.52 1137.68,307.40 C1137.08,308.94 1134.95,309.21 1130.33,308.31 ZM 1099.00 301.60 C1096.67,300.75 1095.50,299.69 1095.50,298.41 C1095.50,296.28 1095.74,296.24 1101.81,297.38 C1105.44,298.07 1106.07,298.53 1105.81,300.34 C1105.43,302.94 1103.62,303.28 1099.00,301.60 ZM 136.56 532.42 C134.06,529.92 135.79,528.73 141.15,529.24 C146.67,529.77 147.50,530.26 146.65,532.46 C145.85,534.55 138.66,534.52 136.56,532.42 ZM 662.41 375.06 C664.41,369.95 664.45,363.59 662.12,358.46 C661.95,358.09 661.77,357.72 661.59,357.37 C663.08,359.94 663.96,362.77 663.98,365.53 C664.00,368.19 664.52,368.74 668.24,370.03 C670.89,370.95 672.61,372.21 672.84,373.40 C673.21,375.34 672.05,375.35 665.40,373.45 C663.95,373.03 663.23,373.37 662.41,375.06 ZM 91.07 525.62 C90.00,525.33 89.11,525.04 88.39,524.72 C88.55,524.43 88.53,523.95 88.32,523.40 C87.99,522.52 88.26,521.46 88.94,521.04 C89.52,520.68 89.69,520.40 89.42,520.12 C90.08,520.30 90.88,520.55 91.86,520.87 C94.62,521.76 96.90,522.84 96.94,523.25 C97.15,525.72 96.91,526.99 96.25,526.90 C95.84,526.85 93.51,526.27 91.07,525.62 ZM 613.96 360.46 C611.98,358.06 614.07,356.83 618.84,357.59 C622.00,358.10 623.00,358.70 623.00,360.13 C623.00,361.64 622.25,362.00 619.12,362.00 C616.85,362.00 614.72,361.36 613.96,360.46 ZM 584.00 356.00 C584.00,354.27 584.67,354.00 589.00,354.00 C593.33,354.00 594.00,354.27 594.00,356.00 C594.00,357.73 593.33,358.00 589.00,358.00 C584.67,358.00 584.00,357.73 584.00,356.00 ZM 705.17 384.94 C701.52,383.48 703.14,381.49 707.89,381.59 C712.30,381.68 714.68,383.08 713.55,384.91 C712.75,386.22 708.39,386.23 705.17,384.94 ZM 693.25 381.76 C691.04,381.05 690.00,380.08 690.00,378.75 C690.00,377.16 690.47,376.90 692.46,377.40 C697.55,378.68 700.15,380.05 699.75,381.26 C699.20,382.90 697.22,383.05 693.25,381.76 ZM 680.25 378.42 C676.72,376.87 676.08,375.29 678.59,374.33 C680.36,373.65 687.00,376.45 687.00,377.88 C687.00,378.61 684.33,380.24 683.67,379.92 C683.58,379.87 682.04,379.20 680.25,378.42 ZM 600.69 359.30 C599.65,359.03 599.03,358.13 599.23,357.17 C599.49,355.90 600.52,355.56 603.48,355.74 C607.71,356.01 609.62,357.19 608.55,358.91 C607.88,360.00 604.11,360.18 600.69,359.30 ZM 169.12 534.10 C166.70,532.56 168.97,531.00 173.63,531.00 C177.29,531.00 178.08,531.31 177.82,532.64 C177.46,534.51 171.37,535.52 169.12,534.10 ZM 1145.28 311.45 C1143.09,310.48 1142.24,309.53 1142.64,308.51 C1143.33,306.70 1143.82,306.67 1149.61,308.13 C1150.24,308.29 1150.80,308.45 1151.28,308.61 C1151.11,308.57 1150.94,308.52 1150.75,308.47 C1148.28,307.85 1148.00,308.05 1148.00,310.39 C1148.00,311.42 1148.11,312.07 1148.46,312.46 C1147.45,312.27 1146.37,311.93 1145.28,311.45 ZM 34.21 512.88 C35.90,513.51 36.01,513.78 34.79,514.25 C33.27,514.83 27.79,512.09 26.59,510.15 C25.33,508.10 27.99,507.99 30.01,510.01 C31.16,511.16 33.05,512.45 34.21,512.88 ZM 1055.00 294.20 C1053.16,293.59 1051.96,291.87 1052.62,290.80 C1053.32,289.67 1056.76,289.81 1057.50,290.99 C1058.44,292.52 1056.69,294.77 1055.00,294.20 ZM 573.16 356.30 C573.75,355.60 574.62,355.27 575.10,355.56 C575.58,355.86 575.69,355.36 575.34,354.45 C574.87,353.22 575.19,352.89 576.59,353.16 C577.63,353.36 578.62,354.25 578.79,355.15 C579.02,356.34 578.17,356.88 575.60,357.18 C572.84,357.50 572.32,357.32 573.16,356.30 ZM 42.00 512.50 C41.32,513.33 39.80,513.98 38.63,513.96 C36.62,513.93 36.65,513.85 39.00,512.50 C42.27,510.63 43.55,510.63 42.00,512.50 ZM 650.97 348.31 C645.76,346.63 639.93,347.29 635.22,349.93 C639.31,347.45 644.41,346.50 649.80,347.94 C650.19,348.05 650.58,348.17 650.97,348.31 ZM 626.34 362.15 C626.12,363.33 626.00,364.57 626.00,365.88 C626.00,369.10 626.76,372.57 628.00,375.00 C625.80,370.69 625.41,366.22 626.34,362.15 ZM 639.24 385.15 C643.28,386.31 648.17,386.01 652.34,384.58 C648.30,386.10 643.62,386.41 639.24,385.15 ZM 637.96 360.64 C639.65,358.77 642.22,357.81 644.77,358.11 C642.72,357.90 640.57,358.55 638.63,360.07 C638.39,360.27 638.16,360.45 637.96,360.64 ZM 636.20 367.96 C636.09,367.31 636.04,366.60 636.03,365.82 C636.03,365.27 636.08,364.75 636.17,364.24 C636.12,364.83 636.11,365.52 636.14,366.32 L 636.20 367.96 ZM 86.78 519.97 C86.20,520.54 85.92,521.58 86.14,522.73 C85.94,522.12 86.01,521.41 86.33,520.58 C86.43,520.31 86.57,520.11 86.78,519.97 Z" fill="rgba(235,132,201,1)"/>
<path d="M 28.19 515.03 C26.37,513.89 24.14,511.66 23.23,510.08 C21.83,507.64 21.10,507.27 18.49,507.70 C14.98,508.26 12.38,506.06 13.41,503.38 C13.88,502.14 14.86,501.88 17.46,502.30 C20.70,502.83 20.96,502.65 22.07,499.18 C25.57,488.21 37.80,484.82 45.21,492.77 C50.98,498.95 50.90,507.85 45.04,513.46 C40.98,517.36 33.07,518.09 28.19,515.03 ZM 1171.00 332.81 C1171.00,332.15 1172.80,328.59 1175.00,324.88 C1177.20,321.18 1179.00,317.50 1179.00,316.69 C1179.00,315.89 1177.89,312.30 1176.54,308.71 C1174.34,302.87 1174.25,302.04 1175.63,300.89 C1176.93,299.82 1179.78,300.92 1193.59,307.80 C1202.61,312.31 1210.00,316.46 1210.00,317.03 C1210.00,318.02 1194.54,325.78 1181.38,331.39 C1174.78,334.20 1171.00,334.72 1171.00,332.81 ZM 649.78 370.45 C650.63,368.83 650.43,367.72 648.83,365.20 C647.72,363.44 646.34,362.00 645.78,362.00 C645.11,362.00 645.13,362.45 645.84,363.30 C647.20,364.95 646.27,368.68 644.31,369.43 C640.87,370.75 639.81,366.97 642.73,363.75 C644.40,361.90 644.34,361.85 640.98,362.17 C637.76,362.47 637.45,362.80 636.89,366.50 L 636.28 370.50 L 636.14 366.32 C636.03,362.91 636.48,361.77 638.63,360.07 C642.20,357.27 646.51,357.42 649.55,360.45 C650.90,361.80 652.00,363.60 652.00,364.45 C652.00,365.30 652.42,366.00 652.94,366.00 C653.45,366.00 653.81,366.88 653.73,367.96 C653.65,369.03 653.37,369.71 653.12,369.45 C652.87,369.20 651.77,369.78 650.69,370.75 C648.78,372.44 648.75,372.43 649.78,370.45 ZM 1165.50 317.28 C1159.68,315.76 1158.90,315.13 1160.22,313.02 C1161.68,310.68 1162.81,310.56 1168.18,312.17 C1171.29,313.10 1172.03,313.77 1171.80,315.42 C1171.49,317.57 1169.19,318.24 1165.50,317.28 ZM 58.25 514.88 C53.92,512.89 52.73,510.42 55.58,509.33 C57.90,508.44 67.20,513.05 66.54,514.77 C66.24,515.54 66.00,516.35 66.00,516.58 C66.00,517.54 62.23,516.71 58.25,514.88 ZM 74.25 520.27 C70.20,518.24 69.58,514.43 73.46,515.40 C79.08,516.81 81.14,518.03 80.81,519.74 C80.36,522.07 78.18,522.24 74.25,520.27 ZM 1148.00 310.39 C1148.00,308.05 1148.28,307.85 1150.75,308.47 C1154.17,309.33 1154.39,309.55 1153.65,311.46 C1153.33,312.31 1151.92,313.00 1150.53,313.00 C1148.47,313.00 1148.00,312.52 1148.00,310.39 ZM 34.21 512.88 C33.05,512.45 31.16,511.16 30.01,510.01 C27.99,507.99 25.33,508.10 26.59,510.15 C27.79,512.09 33.27,514.83 34.79,514.25 C36.01,513.78 35.90,513.51 34.21,512.88 ZM 628.01 366.48 C628.00,366.22 628.00,365.95 628.00,365.68 C628.00,363.21 628.41,360.95 629.19,358.96 C628.88,360.23 629.57,360.94 631.25,361.18 C634.65,361.66 634.16,364.58 630.75,364.18 C628.48,363.91 628.07,364.07 628.01,366.48 ZM 86.36 523.50 C85.46,521.16 86.71,518.95 88.55,519.66 C89.75,520.12 89.85,520.48 88.94,521.04 C88.26,521.46 87.99,522.52 88.32,523.40 C88.66,524.28 88.49,525.00 87.94,525.00 C87.39,525.00 86.68,524.33 86.36,523.50 ZM 42.00 512.50 C43.55,510.63 42.27,510.63 39.00,512.50 C36.65,513.85 36.62,513.93 38.63,513.96 C39.80,513.98 41.32,513.33 42.00,512.50 ZM 647.90 349.27 C649.93,349.46 651.46,350.04 653.50,351.21 C657.97,353.78 660.82,358.43 661.70,363.55 C661.33,361.68 660.68,359.81 659.75,357.97 C657.30,353.12 652.80,350.16 647.90,349.27 ZM 630.00 357.22 C631.31,354.80 633.24,352.86 635.70,351.49 C634.23,352.39 632.88,353.54 631.70,354.94 C630.98,355.80 630.41,356.56 630.00,357.22 ZM 640.14 383.51 C635.84,382.16 632.70,379.92 630.69,376.71 C632.78,379.84 636.02,382.22 640.14,383.51 Z" fill="rgba(244,157,225,1)"/>
<path d="M 112.00 579.17 C112.00,576.31 108.73,572.76 104.88,571.44 L 101.50 570.28 L 105.00 568.79 C109.31,566.96 111.05,564.94 111.94,560.74 L 112.62 557.50 L 114.06 562.00 C115.21,565.60 116.27,566.87 119.33,568.37 L 123.17 570.25 L 119.07 572.08 C115.90,573.50 114.83,574.61 114.35,576.98 C113.65,580.52 112.00,582.05 112.00,579.17 ZM 79.63 572.07 C78.93,567.72 75.41,564.23 70.78,563.31 C67.15,562.58 67.24,561.33 70.97,560.51 C74.52,559.73 78.57,555.22 79.49,551.02 C80.42,546.83 81.38,547.24 82.77,552.41 C84.03,557.15 87.25,560.14 92.50,561.47 C95.50,562.23 95.49,562.23 90.71,563.66 C85.60,565.18 82.01,569.34 82.00,573.75 C82.00,577.48 80.30,576.28 79.63,572.07 ZM 58.00 568.00 C58.00,567.45 58.45,567.00 59.00,567.00 C59.55,567.00 60.00,567.45 60.00,568.00 C60.00,568.55 59.55,569.00 59.00,569.00 C58.45,569.00 58.00,568.55 58.00,568.00 ZM 27.50 541.06 C18.77,538.92 8.58,530.88 4.43,522.86 C1.64,517.46 0.02,510.02 0.01,502.46 C-0.02,484.46 8.56,470.39 22.92,464.87 C40.81,458.01 60.00,467.01 66.92,485.51 C69.11,491.38 69.75,505.43 68.00,509.50 C67.44,510.80 67.12,507.95 67.07,501.34 C67.02,493.47 66.51,489.91 64.85,485.56 C57.71,466.90 36.30,458.91 19.37,468.59 C8.31,474.90 1.99,486.87 2.01,501.44 C2.04,518.81 7.99,529.75 21.22,536.72 C25.97,539.22 27.49,539.50 36.50,539.50 C44.86,539.50 47.17,539.14 50.57,537.32 C54.68,535.12 60.86,529.00 63.00,525.00 C63.64,523.81 64.41,523.07 64.70,523.37 C65.83,524.50 59.69,533.21 55.77,536.05 C48.63,541.22 36.75,543.33 27.50,541.06 ZM 666.62 410.20 C665.83,408.92 667.67,406.68 668.89,407.43 C670.49,408.42 670.26,411.00 668.56,411.00 C667.77,411.00 666.90,410.64 666.62,410.20 ZM 639.24 385.15 C635.56,384.09 630.14,379.19 628.00,375.00 C626.76,372.57 626.00,369.10 626.00,365.88 C626.00,345.87 653.81,340.16 662.12,358.46 C665.55,366.01 663.84,376.22 658.32,381.21 C653.87,385.23 645.52,386.96 639.24,385.15 ZM 650.88 383.44 C655.32,382.13 656.56,381.18 659.06,377.25 C664.63,368.47 661.98,356.08 653.50,351.21 C650.30,349.37 648.35,348.99 643.74,349.27 C634.07,349.87 628.00,356.20 628.00,365.68 C628.00,375.14 631.96,380.95 640.14,383.51 C645.70,385.24 644.81,385.25 650.88,383.44 ZM 607.53 381.05 C606.65,379.63 607.77,378.00 609.63,378.00 C610.51,378.00 611.01,378.70 610.82,379.67 C610.43,381.68 608.44,382.52 607.53,381.05 ZM 1151.45 380.91 C1150.42,379.25 1152.73,377.33 1154.11,378.71 C1155.27,379.87 1154.54,382.00 1153.00,382.00 C1152.51,382.00 1151.82,381.51 1151.45,380.91 ZM 1169.96 367.45 C1169.05,366.36 1168.99,365.61 1169.76,364.84 C1171.04,363.56 1173.00,364.56 1173.00,366.50 C1173.00,368.64 1171.37,369.15 1169.96,367.45 ZM 708.37 360.52 C707.47,358.18 709.77,356.01 711.03,358.01 C711.54,358.83 711.83,359.92 711.67,360.44 C711.13,362.14 709.01,362.19 708.37,360.52 ZM 1136.50 354.72 C1134.52,349.57 1132.17,347.59 1125.50,345.46 C1123.90,344.95 1124.54,344.43 1128.68,342.87 C1133.02,341.23 1134.20,340.21 1135.93,336.64 C1137.07,334.29 1138.00,331.61 1138.00,330.68 C1138.00,327.43 1139.75,329.04 1140.36,332.85 C1141.19,338.04 1144.29,341.71 1149.05,343.13 C1151.22,343.78 1153.00,344.58 1152.99,344.91 C1152.99,345.23 1150.85,346.17 1148.24,347.00 C1143.50,348.50 1142.16,350.10 1139.33,357.72 C1138.59,359.70 1138.28,359.37 1136.50,354.72 Z" fill="rgba(253,247,252,1)"/>
</g>
</svg>