<svg xmlns="http://www.w3.org/2000/svg" width="1254" height="836" viewBox="0 0 1254 836">
<g>
<path d="M 870.87 176.56 L 870.88 176.25 C870.95,174.46 870.66,173.00 870.25,173.00 C869.84,173.00 869.57,170.75 869.65,168.00 C869.74,165.24 869.40,163.25 868.90,163.56 C868.41,163.87 868.00,162.76 868.00,161.09 C868.00,158.71 868.35,158.20 869.62,158.68 C871.04,159.23 871.08,159.02 869.90,156.90 C869.17,155.58 868.67,154.16 868.79,153.75 C869.33,151.83 867.84,153.29 867.00,155.50 C865.82,158.61 864.03,158.76 863.91,155.75 C863.84,153.89 863.67,154.02 862.92,156.50 C861.57,160.97 860.96,179.06 862.09,181.17 C862.77,182.45 862.72,183.00 861.93,183.00 C861.30,183.00 861.05,183.68 861.36,184.50 C861.69,185.35 861.38,186.00 860.66,186.00 C859.75,186.00 859.42,187.79 859.50,192.25 C859.57,195.69 859.30,199.62 858.91,201.00 C858.49,202.46 858.16,199.44 858.10,193.75 C858.04,187.98 857.59,184.00 857.00,184.00 C856.45,184.00 856.00,183.30 856.00,182.44 C856.00,181.58 856.42,181.14 856.94,181.46 C857.50,181.81 857.56,180.93 857.10,179.27 C856.68,177.75 856.53,173.47 856.78,169.76 C857.33,161.56 856.25,153.00 854.93,155.08 C854.29,156.09 854.03,155.53 854.02,153.17 C853.99,148.43 851.92,149.59 849.79,155.53 C848.45,159.30 848.33,160.59 849.27,161.19 C849.98,161.64 848.59,162.05 846.00,162.15 L 841.50 162.33 L 847.00 163.00 C850.03,163.37 794.71,163.75 724.08,163.84 C653.62,163.93 596.16,164.22 596.16,164.49 L 596.16 164.49 C596.41,164.74 645.08,164.96 707.50,165.00 L 626.51 165.00 C503.03,165.00 402.00,165.27 402.00,165.59 C402.00,165.91 403.10,176.38 404.45,188.84 C405.80,201.30 407.83,220.73 408.97,232.00 C410.86,250.78 412.15,263.10 418.02,318.50 C421.11,347.73 426.49,399.53 431.48,448.00 C432.86,461.48 434.92,480.83 436.05,491.00 C437.14,500.78 438.84,516.13 439.91,525.85 C439.59,524.01 439.27,523.61 438.91,524.53 C438.22,526.29 438.13,526.23 438.05,524.00 C437.99,522.20 437.73,521.88 437.11,522.86 C436.59,523.68 436.38,521.99 436.57,518.58 C436.75,515.48 436.54,513.17 436.09,513.44 C435.11,514.05 432.95,501.57 433.13,496.31 L 433.26 492.50 L 434.74 499.50 L 434.87 496.37 C434.94,494.61 434.31,492.68 433.43,491.94 C432.26,490.97 431.96,489.28 432.24,485.32 C432.45,482.39 432.35,480.00 432.03,480.00 C431.37,480.00 428.94,460.94 429.10,457.00 L 429.20 454.50 L 430.02 457.00 C430.53,458.55 430.63,457.23 430.28,453.50 C429.63,446.49 429.00,445.02 429.00,450.50 C429.00,456.60 428.20,454.18 426.92,444.24 C426.27,439.18 425.35,435.28 424.87,435.58 C424.39,435.88 424.00,435.67 424.00,435.12 C424.00,434.57 424.42,433.86 424.93,433.54 C426.54,432.55 424.78,425.70 422.34,423.44 C421.05,422.25 419.99,420.42 419.98,419.39 C419.97,417.80 419.81,417.74 419.00,419.00 C417.64,421.11 417.77,425.37 419.24,426.84 C420.23,427.83 420.22,428.24 419.20,428.87 C418.31,429.43 418.12,430.92 418.59,433.83 C419.08,436.88 418.92,438.00 417.99,438.00 C416.72,438.00 416.74,438.49 418.76,456.00 C419.04,458.48 419.34,463.06 419.42,466.19 C419.49,469.32 419.88,472.21 420.28,472.61 C420.67,473.01 420.94,474.95 420.86,476.92 L 420.72 480.50 L 419.28 472.50 L 419.13 476.00 C419.05,477.92 418.76,481.30 418.50,483.50 C418.46,483.84 418.43,484.15 418.40,484.42 C418.27,483.31 418.14,482.16 418.02,481.00 C416.38,465.16 414.92,452.55 412.97,437.50 C411.90,429.25 410.79,419.35 410.51,415.50 C410.22,411.65 409.33,403.77 408.53,398.00 C406.57,383.87 405.73,376.80 405.77,375.00 C405.79,374.17 405.18,368.77 404.41,363.00 C402.62,349.66 402.21,346.12 401.45,337.50 C401.11,333.65 400.24,326.23 399.51,321.00 C398.78,315.77 397.66,306.77 397.01,301.00 C396.37,295.23 394.99,283.52 393.95,275.00 C392.90,266.48 391.79,256.58 391.49,253.00 C391.18,249.43 390.73,245.15 390.48,243.50 C389.67,237.96 387.89,221.56 387.45,215.50 C387.21,212.20 386.57,206.57 386.01,203.00 C385.46,199.43 384.33,189.75 383.50,181.50 C382.67,173.25 381.56,163.35 381.03,159.50 C380.50,155.65 380.05,151.26 380.03,149.75 L 380.00 147.00 L 627.00 147.00 C824.58,147.00 874.00,147.25 874.00,148.26 C874.00,148.95 873.31,155.36 872.47,162.51 C872.03,166.26 871.44,171.41 870.87,176.56 ZM 777.78 267.68 C777.76,266.30 777.62,264.38 777.38,262.33 C776.67,256.20 776.52,255.86 775.93,259.00 C775.41,261.74 775.23,260.98 775.09,255.50 L 774.92 248.50 L 773.28 251.50 C772.37,253.15 771.53,256.30 771.41,258.50 C771.12,264.00 771.03,265.81 770.65,265.87 C770.46,265.90 770.18,265.47 769.76,264.85 C768.76,263.38 768.39,263.36 766.40,264.66 C764.36,265.99 764.12,265.94 763.52,264.07 C762.73,261.58 763.71,259.72 765.32,260.64 C765.97,261.02 766.15,260.94 765.73,260.47 C765.31,260.01 764.18,259.57 763.23,259.50 C761.86,259.40 761.44,260.32 761.23,263.94 C760.81,271.14 759.94,274.51 758.91,272.88 C758.23,271.81 758.00,271.95 757.88,273.50 C757.80,274.60 757.41,273.92 757.00,272.00 L 756.50 269.62 C756.84,265.76 757.23,261.99 757.49,260.25 L 758.12 256.00 L 627.73 256.00 C556.01,256.00 497.12,256.21 496.86,256.47 C496.60,256.74 497.16,263.82 498.11,272.22 C500.19,290.61 508.08,364.36 509.54,379.00 C509.84,382.02 510.32,385.74 510.62,387.25 L 511.16 390.00 L 613.58 390.00 C549.83,390.01 517.00,390.35 517.00,391.00 C517.00,391.55 518.10,392.00 519.44,392.00 C520.78,392.00 522.16,392.45 522.50,393.00 C522.88,393.62 523.78,393.66 524.81,393.12 C525.80,392.61 527.50,392.61 528.90,393.14 L 531.30 394.05 L 529.01 396.49 C527.74,397.84 526.38,398.74 525.99,398.49 C525.59,398.25 524.45,398.95 523.46,400.05 C520.95,402.82 522.67,404.20 528.11,403.81 L 532.50 403.50 L 532.42 398.35 C532.36,394.17 532.62,393.30 533.84,393.77 C534.80,394.14 535.07,393.93 534.61,393.17 C534.14,392.42 534.62,392.00 535.94,392.00 C538.31,392.00 538.70,393.52 536.55,394.34 C534.85,394.99 535.31,398.95 537.23,400.16 C538.23,400.80 538.23,400.97 537.25,400.98 C536.56,400.99 536.00,401.62 536.00,402.38 C536.00,403.43 538.69,403.93 547.25,404.46 C553.44,404.85 558.95,405.08 559.50,404.96 C560.05,404.85 562.75,404.85 565.50,404.95 C569.28,405.09 570.01,405.35 568.50,406.00 C567.13,406.59 568.54,406.84 573.00,406.80 C578.05,406.75 578.72,406.59 576.00,406.09 C572.76,405.48 572.95,405.38 578.54,404.75 C585.24,404.00 590.06,404.71 587.83,406.12 C586.98,406.67 587.93,406.97 590.50,406.97 C593.31,406.97 594.07,406.70 593.05,406.05 C590.90,404.69 596.10,403.61 600.69,404.47 C603.41,404.98 603.99,405.39 602.93,406.06 C602.06,406.62 615.72,407.07 638.00,407.22 C662.80,407.40 651.26,407.65 602.00,408.00 L 529.50 408.52 L 611.77 408.76 L 694.04 409.00 L 594.05 409.00 C499.84,409.00 494.02,408.90 493.17,407.25 C492.26,405.51 490.51,392.37 489.52,380.00 C488.93,372.61 488.31,367.32 486.94,358.00 C486.42,354.42 485.79,348.80 485.55,345.50 C485.05,338.70 482.21,313.79 481.50,310.00 C481.25,308.62 480.82,304.31 480.55,300.42 C480.28,296.52 479.37,287.97 478.53,281.42 C476.93,268.98 474.00,241.80 474.00,239.39 C474.00,238.21 496.95,238.00 627.48,238.00 L 780.96 238.00 L 780.46 242.25 C779.87,247.25 778.79,257.56 777.78,267.68 ZM 774.02 298.00 C774.27,300.48 774.28,300.49 774.72,298.17 C774.99,296.71 774.51,295.36 773.42,294.57 C771.87,293.43 771.76,292.06 772.36,282.19 C772.99,271.68 774.60,263.52 775.05,268.50 C775.18,269.91 775.46,269.62 776.00,267.50 L 776.76 264.50 L 776.88 267.42 C776.95,268.99 777.25,270.03 777.57,269.76 C776.61,279.37 775.74,288.47 775.45,292.25 L 774.76 301.00 L 548.13 301.00 L 548.55 304.25 C548.79,306.04 549.68,313.58 550.53,321.00 C551.39,328.42 552.33,335.74 552.62,337.25 L 553.16 340.00 L 660.91 340.00 C719.77,340.00 768.21,340.21 769.12,340.46 C768.21,340.21 720.08,340.11 661.58,340.24 L 554.50 340.49 L 652.00 341.00 C693.10,341.22 718.29,341.47 718.29,341.64 C718.29,341.70 715.95,341.74 711.00,341.77 C685.69,341.94 673.01,342.36 674.00,343.00 C675.10,343.71 674.43,343.95 671.50,343.89 C668.03,343.81 667.83,343.69 670.00,343.00 C671.70,342.46 670.10,342.22 665.00,342.26 C657.99,342.31 657.82,342.36 662.50,343.00 C665.83,343.46 662.24,343.74 651.75,343.84 C642.02,343.94 636.00,344.38 636.00,345.00 C636.00,345.55 634.54,345.95 632.75,345.88 L 629.50 345.76 L 632.50 345.00 C635.29,344.29 635.19,344.23 631.15,344.12 C628.22,344.04 625.87,344.67 623.90,346.07 C621.60,347.71 621.00,347.83 621.00,346.65 C621.00,345.83 621.56,344.94 622.25,344.66 C624.09,343.92 618.84,344.09 616.50,344.85 C615.40,345.21 614.50,346.17 614.50,347.00 C614.50,347.87 613.59,348.50 612.34,348.50 C611.15,348.50 609.84,348.84 609.42,349.25 C609.01,349.66 609.15,350.00 609.74,350.00 C610.34,350.00 610.71,350.79 610.57,351.75 C610.42,352.71 609.90,353.27 609.40,353.00 C608.91,352.73 608.62,352.13 608.77,351.68 C608.93,351.22 608.56,351.15 607.96,351.53 C607.36,351.90 606.20,351.37 605.38,350.35 C603.99,348.63 603.96,348.65 604.99,350.77 C605.60,352.02 605.85,353.43 605.56,353.90 C605.27,354.37 606.04,354.76 607.27,354.77 C608.50,354.78 610.17,354.95 611.00,355.14 C612.02,355.39 612.40,354.86 612.17,353.50 C611.87,351.67 611.95,351.64 613.17,353.19 C613.90,354.12 615.85,355.02 617.50,355.19 C619.25,355.37 620.40,356.02 620.25,356.75 C620.11,357.44 620.79,358.10 621.75,358.23 C622.71,358.35 609.55,358.70 592.50,359.00 C573.66,359.33 597.90,359.63 654.34,359.77 L 747.18 360.00 L 747.17 360.01 L 640.85 359.75 L 534.52 359.50 L 533.31 350.00 C532.65,344.77 531.40,333.98 530.54,326.00 C529.67,318.02 528.29,305.42 527.47,298.00 C526.65,290.58 525.98,284.16 525.99,283.75 C526.00,283.34 577.64,282.89 640.75,282.75 L 755.50 282.50 L 756.11 274.45 C756.15,276.57 756.57,276.78 758.10,276.48 C760.03,276.11 760.15,276.39 759.52,279.79 C759.14,281.83 758.19,284.21 757.42,285.08 C756.64,285.95 756.00,287.41 756.00,288.33 C756.00,289.46 755.17,290.00 753.44,290.00 C752.03,290.00 751.14,289.58 751.46,289.07 C752.37,287.59 750.05,286.71 748.55,287.96 C747.61,288.74 746.98,288.77 746.53,288.05 C746.17,287.47 745.21,287.00 744.38,287.00 C743.56,287.00 743.14,287.41 743.44,287.91 C743.75,288.41 743.73,289.55 743.39,290.44 C742.89,291.74 742.48,291.81 741.29,290.83 C740.11,289.84 739.89,289.89 740.16,291.08 C740.35,291.90 740.28,292.58 740.00,292.61 C738.56,292.76 735.00,295.20 735.00,296.04 C735.00,296.57 738.26,297.01 742.25,297.02 C747.30,297.03 749.04,297.32 748.00,298.00 C746.94,298.68 748.37,298.97 752.81,298.98 C756.28,298.99 758.89,298.62 758.60,298.17 C758.32,297.71 758.74,297.33 759.54,297.33 C760.34,297.33 761.00,297.71 761.00,298.17 C761.00,298.62 763.67,299.00 766.93,299.00 C771.73,299.00 772.94,298.67 773.31,297.25 C773.64,295.99 773.84,296.20 774.02,298.00 ZM 500.21 477.66 C499.85,474.60 499.35,472.31 498.94,472.17 C498.42,471.98 498.00,470.13 498.00,468.05 C498.00,465.97 497.56,461.95 497.02,459.12 C496.48,456.28 495.76,450.03 495.40,445.23 C495.05,440.43 494.56,436.16 494.31,435.74 C494.07,435.32 510.21,435.09 530.18,435.24 L 566.50 435.50 L 566.76 439.00 C566.91,441.14 567.85,449.25 568.79,457.01 C568.52,455.83 568.24,455.69 567.92,456.50 L 567.14 458.50 L 567.04 456.50 C566.64,448.60 564.80,439.35 563.43,438.34 C562.02,437.30 562.05,437.12 563.68,436.70 C564.68,436.44 549.75,436.27 530.50,436.31 C509.94,436.36 500.04,436.64 506.50,437.00 L 517.50 437.60 L 507.83 437.80 L 498.15 438.00 L 498.41 446.50 C498.55,451.18 498.97,455.30 499.34,455.67 C499.70,456.03 499.97,457.27 499.93,458.42 C499.87,460.18 499.75,460.23 499.18,458.79 C498.81,457.85 498.44,460.33 498.37,464.29 C498.30,468.26 498.61,471.73 499.06,472.02 C499.41,472.25 499.87,474.59 500.21,477.66 ZM 863.20 246.26 C863.21,244.84 863.08,243.84 862.83,243.75 C862.46,243.61 861.90,240.12 861.60,236.00 C861.23,231.09 861.35,229.36 861.93,231.00 C862.55,232.76 862.70,231.58 862.42,227.00 C862.13,222.20 862.27,221.15 862.96,223.00 C863.77,225.16 863.88,224.93 863.74,221.29 C863.65,218.98 863.90,216.77 864.29,216.38 C864.68,215.99 865.04,214.73 865.10,213.58 C865.19,211.74 865.30,211.78 866.09,214.00 C866.72,215.79 866.84,214.94 866.49,211.00 C866.23,207.98 865.95,204.15 865.88,202.50 C865.74,199.52 865.73,199.52 865.00,203.00 L 864.26 206.50 L 864.13 203.43 C863.96,199.35 865.93,188.74 867.08,187.55 C868.43,186.16 868.20,183.01 866.75,182.92 C865.99,182.87 865.92,182.67 866.57,182.40 C867.16,182.15 867.51,180.50 867.35,178.73 C867.07,175.77 867.12,175.71 867.92,178.00 C868.75,180.37 868.81,180.31 869.02,177.00 L 869.24 173.50 L 870.00 176.50 L 870.61 178.90 C870.19,182.74 869.78,186.46 869.46,189.50 C868.04,202.88 867.13,211.10 863.20,246.26 ZM 423.44 526.23 C423.53,526.13 423.66,525.91 423.82,525.55 C424.56,523.85 424.76,524.04 425.33,526.92 C425.70,528.75 426.00,531.54 426.00,533.12 C426.00,534.71 426.36,536.00 426.79,536.00 C427.22,536.00 427.53,541.41 427.46,548.03 C427.40,554.64 427.68,559.52 428.09,558.86 C428.50,558.19 429.11,559.82 429.46,562.58 C429.82,565.29 430.56,568.33 431.13,569.35 C431.90,570.76 431.85,571.02 430.92,570.45 C430.07,569.92 429.95,570.11 430.53,571.05 C431.00,571.80 431.46,576.93 431.56,582.46 C431.64,586.98 431.78,590.98 431.91,592.43 C431.86,592.29 431.82,592.14 431.76,592.00 C431.46,591.17 430.69,585.33 430.05,579.00 C429.42,572.67 428.48,564.80 427.98,561.50 C427.48,558.20 426.58,550.78 425.98,545.00 C425.39,539.22 424.44,532.14 423.88,529.26 C423.69,528.26 423.54,527.21 423.44,526.23 ZM 853.47 334.96 C853.88,331.35 854.27,327.79 854.46,326.00 C854.72,323.52 855.61,315.38 856.44,307.91 C857.27,300.43 857.74,291.88 857.49,288.91 C857.23,285.87 857.35,284.51 857.76,285.80 C858.17,287.07 858.50,282.41 858.50,275.46 C858.50,268.50 858.78,262.64 859.13,262.42 C859.48,262.20 860.12,258.53 860.57,254.26 C861.24,247.77 861.48,247.07 861.99,250.00 C862.24,251.40 862.39,252.23 862.51,252.42 C861.55,261.14 860.51,270.81 860.04,275.50 C859.49,281.00 858.15,293.15 857.08,302.50 C856.00,311.85 854.85,322.20 854.54,325.50 C854.22,328.78 853.74,333.01 853.47,334.96 ZM 655.55 358.09 C655.89,358.62 650.25,358.93 641.81,358.83 C633.94,358.74 629.27,358.48 631.44,358.26 C634.30,357.97 634.99,357.61 633.94,356.94 C633.47,356.64 633.09,356.43 633.12,356.28 C633.17,355.92 635.57,355.93 644.50,355.88 C654.76,355.83 657.81,356.03 656.24,356.66 C655.55,356.94 655.24,357.58 655.55,358.09 ZM 717.29 296.38 C717.00,296.67 720.70,296.90 725.50,296.90 C730.30,296.90 733.96,296.63 733.63,296.29 C733.29,295.96 733.51,295.09 734.11,294.37 C734.91,293.40 734.82,292.68 733.76,291.61 C732.50,290.36 732.14,290.42 730.94,292.09 C728.29,295.75 726.40,294.17 726.95,288.75 C727.15,286.78 726.21,286.55 724.00,288.03 C722.67,288.92 722.68,289.18 724.06,290.27 C726.21,291.96 727.24,294.98 725.72,295.09 C721.13,295.41 717.73,295.93 717.29,296.38 ZM 441.02 535.84 C442.60,550.03 443.79,560.43 444.65,567.66 C444.52,567.64 444.35,568.29 444.07,569.50 C443.50,572.01 443.26,571.39 442.61,565.75 C442.19,562.04 441.54,559.00 441.17,559.00 C440.80,559.00 440.47,554.39 440.44,548.75 C440.40,542.09 440.65,539.55 441.15,541.50 C441.80,544.02 441.86,543.86 441.51,540.50 C441.39,539.44 441.22,537.74 441.02,535.84 ZM 850.32 180.23 C850.26,181.31 850.14,182.00 849.97,182.00 C849.67,182.00 849.46,189.17 849.50,197.93 C849.54,206.69 849.28,213.67 848.92,213.45 C848.55,213.22 847.94,215.82 847.56,219.21 C847.05,223.72 846.59,225.00 845.87,223.94 C845.85,223.91 845.82,223.87 845.80,223.84 C846.03,220.65 846.43,216.30 846.86,212.50 C847.49,207.00 848.29,197.89 848.65,192.25 C849.01,186.61 849.57,182.00 849.90,181.99 C850.04,181.99 850.18,181.33 850.32,180.23 ZM 418.57 485.81 C418.65,485.62 418.74,485.35 418.86,485.00 C419.54,482.96 419.83,483.74 420.46,489.24 C420.95,493.49 421.61,495.74 422.27,495.33 C422.88,494.95 423.01,495.18 422.57,495.88 C421.56,497.51 423.01,512.11 424.12,511.43 C425.61,510.50 425.09,512.68 423.50,514.00 C422.89,514.50 422.45,515.46 422.21,516.46 C421.99,515.00 421.78,513.20 421.64,511.25 C420.85,500.82 420.11,494.23 419.41,491.50 C419.23,490.79 418.91,488.56 418.57,485.81 ZM 844.08 235.06 C844.06,237.38 844.35,240.63 844.94,243.50 C845.72,247.24 845.79,247.31 846.02,244.50 C846.22,242.12 846.36,241.95 846.70,243.70 C846.93,244.91 846.57,246.93 845.89,248.20 C845.21,249.46 844.51,252.07 844.34,254.00 C844.16,255.93 843.82,258.40 843.58,259.50 C843.35,260.60 843.09,262.85 843.01,264.50 C842.88,267.15 842.75,267.27 841.93,265.50 C841.86,265.33 841.79,265.19 841.72,265.08 C841.74,264.64 841.76,264.20 841.78,263.74 C841.93,259.21 842.49,252.80 843.02,249.50 C843.55,246.20 843.99,240.91 843.99,237.75 C843.99,236.78 844.03,235.87 844.08,235.06 ZM 517.28 458.25 C517.54,461.15 518.49,468.23 519.39,474.00 C520.29,479.77 521.71,490.30 522.54,497.39 C522.96,500.97 523.40,504.32 523.77,506.82 C523.58,506.44 523.33,506.46 523.05,506.91 C521.92,508.75 519.63,492.72 520.37,488.10 C520.71,485.98 520.26,479.58 519.37,473.87 C518.48,468.17 517.54,461.15 517.28,458.25 ZM 850.99 165.81 C852.34,165.89 853.00,165.98 853.00,166.07 C853.00,166.65 853.45,166.84 854.00,166.50 C854.60,166.13 855.00,167.47 855.00,169.88 C855.00,173.87 853.63,176.14 852.66,173.76 C852.39,173.07 852.07,173.85 851.96,175.50 L 851.76 178.50 L 850.94 175.50 C850.86,175.20 850.78,174.94 850.72,174.71 C850.73,174.31 850.75,173.91 850.76,173.49 L 850.99 165.81 ZM 508.41 526.52 C506.33,525.60 506.01,524.64 505.45,521.16 C505.04,518.60 504.53,515.60 504.32,514.50 C504.13,513.52 503.94,512.12 503.68,509.65 C503.74,509.47 503.81,509.25 503.88,509.00 C504.60,506.58 504.64,506.60 505.31,509.88 C505.69,511.73 506.00,514.32 506.00,515.62 C506.00,516.93 506.36,518.00 506.80,518.00 C507.24,518.00 507.41,519.58 507.19,521.50 C506.85,524.39 507.11,525.00 508.64,525.02 C510.23,525.03 510.28,525.19 509.00,526.08 C508.74,526.26 508.54,526.41 508.41,526.52 ZM 569.00 353.47 C569.00,354.49 569.96,355.00 571.91,355.00 C574.30,355.00 574.72,354.66 574.30,353.03 C574.02,351.95 573.07,350.49 572.20,349.78 C571.26,349.02 570.89,348.96 571.30,349.65 C571.68,350.28 571.32,351.05 570.49,351.36 C569.67,351.68 569.00,352.63 569.00,353.47 ZM 530.56 534.01 C520.05,530.51 511.94,527.80 510.35,527.26 C509.80,527.07 509.32,526.89 508.90,526.73 C509.09,526.68 509.33,526.62 509.61,526.54 C511.97,525.88 515.23,526.81 514.53,527.94 C514.36,528.22 520.88,530.66 530.56,534.01 ZM 773.00 246.00 C773.00,247.10 773.40,248.00 773.89,248.00 C775.02,248.00 776.07,245.40 775.26,244.60 C774.06,243.39 773.00,244.05 773.00,246.00 ZM 598.67 401.54 C598.67,402.34 598.63,402.96 598.58,402.92 C598.54,402.88 597.94,402.62 597.25,402.34 C596.56,402.06 596.00,401.21 596.00,400.45 C596.00,399.69 596.60,399.29 597.33,399.57 C598.07,399.86 598.67,400.74 598.67,401.54 ZM 598.00 396.50 C598.00,397.33 597.55,398.00 597.00,398.00 C596.45,398.00 596.00,397.33 596.00,396.50 C596.00,395.67 596.45,395.00 597.00,395.00 C597.55,395.00 598.00,395.67 598.00,396.50 ZM 628.20 345.80 C629.13,346.73 628.87,347.00 627.00,347.00 C625.13,347.00 624.87,346.73 625.80,345.80 C626.73,344.87 627.27,344.87 628.20,345.80 ZM 810.50 160.00 C810.16,160.55 810.58,161.00 811.44,161.00 C812.30,161.00 813.00,160.55 813.00,160.00 C813.00,159.45 812.58,159.00 812.06,159.00 C811.54,159.00 810.84,159.45 810.50,160.00 ZM 773.23 291.00 C773.23,292.92 773.44,293.71 773.69,292.75 C773.94,291.79 773.94,290.21 773.69,289.25 C773.44,288.29 773.23,289.08 773.23,291.00 ZM 444.96 570.25 C445.60,575.49 446.02,578.66 446.28,580.10 C446.24,580.02 446.20,579.94 446.17,579.85 C446.03,579.44 445.99,579.00 445.87,578.43 C445.52,576.82 445.13,573.47 445.00,571.00 C444.99,570.73 444.97,570.48 444.96,570.25 ZM 543.40 517.95 C547.77,518.85 557.12,522.13 557.94,523.13 C557.12,522.28 547.89,519.05 543.40,517.95 ZM 623.09 543.87 C625.19,544.51 626.64,544.91 627.00,544.93 C627.61,544.96 629.24,544.63 631.05,544.12 L 627.35 545.29 L 623.09 543.87 ZM 456.62 585.26 C465.23,588.45 472.94,591.33 479.37,593.79 C478.76,593.55 478.13,593.32 477.50,593.09 C467.86,589.49 461.21,587.03 456.62,585.26 ZM 637.27 542.11 C652.55,537.09 675.54,529.61 694.50,523.50 C681.30,527.75 663.08,533.67 654.00,536.65 C647.96,538.63 641.65,540.69 637.27,542.11 ZM 502.88 501.37 C502.75,499.91 502.60,498.30 502.44,496.50 C502.10,492.66 501.64,489.22 501.42,488.87 C501.80,489.49 502.49,495.89 502.88,501.37 ZM 569.69 464.28 C570.07,467.25 570.41,469.77 570.63,471.31 C570.64,471.39 570.66,471.46 570.67,471.53 C570.33,469.87 570.04,467.57 569.69,464.28 ZM 640.50 645.43 C647.10,642.90 657.00,639.10 662.50,636.98 C657.00,639.10 647.00,642.95 640.28,645.54 C638.61,646.18 636.97,646.78 635.43,647.32 C637.02,646.74 638.74,646.11 640.50,645.43 ZM 423.52 521.93 C423.53,522.47 423.50,523.09 423.42,523.75 C423.38,524.04 423.35,524.31 423.33,524.55 C423.29,523.42 423.34,522.50 423.50,522.01 C423.51,521.98 423.51,521.96 423.52,521.93 ZM 841.30 269.87 C841.24,271.14 841.03,272.00 840.73,272.00 C840.27,272.00 839.91,274.14 839.92,276.75 C839.91,274.14 840.26,272.00 840.70,271.99 C840.90,271.99 841.12,271.18 841.30,269.87 ZM 535.13 514.93 C537.65,515.74 539.53,516.48 539.92,516.83 C539.49,516.53 537.60,515.79 535.13,514.93 ZM 846.54 397.00 C846.85,393.98 847.77,385.88 848.57,379.00 C849.03,375.00 849.60,369.98 850.11,365.45 C849.55,370.46 848.99,375.42 848.57,379.00 C847.77,385.88 846.85,393.98 846.54,397.00 ZM 626.47 649.78 C626.39,649.78 626.33,649.77 626.28,649.76 C626.06,649.70 625.00,649.31 623.24,648.66 C624.76,649.21 625.86,649.59 626.47,649.78 ZM 514.16 606.87 C518.64,608.63 524.65,610.98 529.87,613.02 C524.01,610.74 519.59,609.01 514.16,606.87 ZM 601.00 557.55 C598.66,556.76 595.97,555.85 593.04,554.86 C595.97,555.85 598.66,556.75 601.00,557.55 C609.42,560.40 617.27,562.94 622.27,564.45 C617.27,562.94 609.42,560.40 601.00,557.55 ZM 572.23 475.24 C572.59,475.57 573.02,475.84 573.54,476.09 C573.02,475.85 572.59,475.60 572.23,475.24 ZM 574.22 476.37 C575.59,476.89 577.12,477.22 577.75,477.12 C577.12,477.22 575.59,476.89 574.22,476.37 ZM 498.56 601.44 C499.36,601.81 499.80,602.05 499.84,602.15 C499.80,602.05 499.35,601.81 498.56,601.44 ZM 844.90 231.90 C844.86,231.97 844.81,232.00 844.76,232.00 C844.75,232.00 844.74,232.00 844.74,232.00 C844.74,232.00 844.75,232.00 844.75,232.00 C844.80,232.00 844.85,231.97 844.90,231.90 Z" fill="rgba(239,217,239,1)"/>
<path d="M 618.50 669.41 C615.20,668.01 611.38,666.48 610.00,666.02 C608.62,665.56 604.58,663.95 601.00,662.44 C597.42,660.94 589.10,657.58 582.50,654.98 C568.49,649.46 475.31,611.95 466.50,608.29 C456.99,604.34 443.12,598.89 434.78,595.82 C433.28,595.27 432.10,594.53 432.15,594.16 C432.20,593.80 432.12,593.28 431.99,593.00 C431.85,592.72 431.66,587.98 431.56,582.46 C431.46,576.93 431.00,571.80 430.53,571.05 C429.95,570.11 430.07,569.92 430.92,570.45 C431.85,571.02 431.90,570.76 431.13,569.35 C430.56,568.33 429.82,565.29 429.46,562.58 C429.11,559.82 428.50,558.19 428.09,558.86 C427.68,559.52 427.40,554.64 427.46,548.03 C427.53,541.41 427.22,536.00 426.79,536.00 C426.36,536.00 426.00,534.71 426.00,533.12 C426.00,531.54 425.70,528.75 425.33,526.92 C424.76,524.04 424.56,523.85 423.82,525.55 C423.22,526.91 423.10,526.37 423.42,523.75 C423.67,521.69 423.45,520.00 422.94,520.00 C421.43,520.00 421.86,515.36 423.50,514.00 C425.09,512.68 425.61,510.50 424.12,511.43 C423.01,512.11 421.56,497.51 422.57,495.88 C423.01,495.18 422.88,494.95 422.27,495.33 C421.61,495.74 420.95,493.49 420.46,489.24 C419.83,483.74 419.54,482.96 418.86,485.00 C418.23,486.89 418.14,486.52 418.50,483.50 C418.76,481.30 419.05,477.92 419.13,476.00 L 419.28 472.50 L 420.00 476.50 L 420.72 480.50 L 420.86 476.92 C420.94,474.95 420.67,473.01 420.28,472.61 C419.88,472.21 419.49,469.32 419.42,466.19 C419.34,463.06 419.04,458.48 418.76,456.00 C416.74,438.49 416.72,438.00 417.99,438.00 C418.92,438.00 419.08,436.88 418.59,433.83 C418.12,430.92 418.31,429.43 419.20,428.87 C420.22,428.24 420.23,427.83 419.24,426.84 C417.77,425.37 417.64,421.11 419.00,419.00 C419.81,417.74 419.97,417.80 419.98,419.39 C419.99,420.42 421.05,422.25 422.34,423.44 C424.78,425.70 426.54,432.55 424.93,433.54 C424.42,433.86 424.00,434.57 424.00,435.12 C424.00,435.67 424.39,435.88 424.87,435.58 C425.35,435.28 426.27,439.18 426.92,444.24 C428.20,454.18 429.00,456.60 429.00,450.50 C429.00,445.02 429.63,446.49 430.28,453.50 C430.63,457.23 430.53,458.55 430.02,457.00 L 429.20 454.50 L 429.10 457.00 C428.94,460.94 431.37,480.00 432.03,480.00 C432.35,480.00 432.45,482.39 432.24,485.32 C431.96,489.28 432.26,490.97 433.43,491.94 C434.31,492.68 434.94,494.61 434.87,496.37 L 434.74 499.50 L 434.00 496.00 L 433.26 492.50 L 433.13 496.31 C432.95,501.57 435.11,514.05 436.09,513.44 C436.54,513.17 436.75,515.48 436.57,518.58 C436.38,521.99 436.59,523.68 437.11,522.86 C437.73,521.88 437.99,522.20 438.05,524.00 C438.13,526.23 438.22,526.29 438.91,524.53 C439.44,523.17 439.89,524.70 440.38,529.53 C440.77,533.36 441.27,538.30 441.51,540.50 C441.86,543.86 441.80,544.02 441.15,541.50 C440.65,539.55 440.40,542.09 440.44,548.75 C440.47,554.39 440.80,559.00 441.17,559.00 C441.54,559.00 442.19,562.04 442.61,565.75 C443.26,571.39 443.50,572.01 444.07,569.50 C444.70,566.77 444.78,566.91 445.00,571.00 C445.13,573.47 445.52,576.82 445.87,578.43 C446.59,581.76 444.37,580.73 477.50,593.09 C489.60,597.60 499.65,601.68 499.84,602.15 C500.02,602.62 500.54,602.78 500.99,602.51 C501.44,602.23 507.37,604.19 514.16,606.87 C528.98,612.71 536.19,615.49 586.00,634.54 C607.17,642.64 625.30,649.49 626.28,649.76 C627.25,650.03 633.55,648.13 640.28,645.54 C647.00,642.95 657.00,639.10 662.50,636.98 C668.00,634.87 676.33,631.73 681.00,630.02 C692.79,625.70 699.50,623.19 706.50,620.48 C709.80,619.20 714.97,617.23 718.00,616.10 C721.03,614.97 731.03,611.10 740.24,607.52 C749.45,603.93 757.32,601.00 757.74,601.00 C758.16,601.00 761.20,599.92 764.50,598.59 C773.43,594.99 791.21,588.30 793.50,587.69 C794.60,587.40 798.65,585.84 802.50,584.23 L 809.50 581.31 L 810.71 570.40 C811.95,559.16 816.84,510.36 817.61,501.50 C818.05,496.36 820.23,475.43 821.98,459.50 C823.16,448.78 825.70,422.23 827.16,405.50 C827.74,398.90 828.59,393.36 829.06,393.18 C829.53,393.01 829.64,389.97 829.31,386.43 C828.87,381.75 829.04,380.00 829.91,380.00 C830.58,380.00 830.85,379.56 830.52,379.03 C829.78,377.84 832.06,352.00 832.90,352.00 C833.23,352.00 833.34,349.75 833.15,347.00 C832.96,344.25 833.19,342.00 833.65,342.00 C834.12,342.00 834.52,339.64 834.55,336.75 C834.63,327.75 836.26,312.00 837.10,312.00 C837.54,312.00 837.64,309.75 837.31,307.00 C836.88,303.32 837.06,302.00 837.99,302.00 C838.93,302.00 839.09,300.74 838.62,297.18 C838.27,294.53 838.29,292.04 838.68,291.65 C839.43,290.90 839.96,284.53 839.92,276.75 C839.91,274.14 840.27,272.00 840.73,272.00 C841.18,272.00 841.43,270.09 841.28,267.75 C841.07,264.51 841.23,263.97 841.93,265.50 C842.75,267.27 842.88,267.15 843.01,264.50 C843.09,262.85 843.35,260.60 843.58,259.50 C843.82,258.40 844.16,255.93 844.34,254.00 C844.51,252.07 845.21,249.46 845.89,248.20 C846.57,246.93 846.93,244.91 846.70,243.70 C846.36,241.95 846.22,242.12 846.02,244.50 C845.79,247.31 845.72,247.24 844.94,243.50 C843.88,238.37 843.78,232.00 844.76,232.00 C845.17,232.00 845.37,229.86 845.20,227.25 C844.98,223.90 845.18,222.93 845.87,223.94 C846.59,225.00 847.05,223.72 847.56,219.21 C847.94,215.82 848.55,213.22 848.92,213.45 C849.28,213.67 849.54,206.69 849.50,197.93 C849.46,189.17 849.67,182.00 849.97,182.00 C850.27,182.00 850.42,179.86 850.31,177.25 C850.14,173.18 850.23,172.93 850.94,175.50 L 851.76 178.50 L 851.96 175.50 C852.07,173.85 852.39,173.07 852.66,173.76 C853.63,176.14 855.00,173.87 855.00,169.88 C855.00,167.47 854.60,166.13 854.00,166.50 C853.45,166.84 853.00,166.65 853.00,166.07 C853.00,165.35 813.21,165.02 724.83,165.01 C654.33,165.00 596.43,164.76 596.16,164.49 C595.89,164.22 653.45,163.93 724.08,163.84 C794.71,163.75 850.03,163.37 847.00,163.00 L 841.50 162.33 L 846.00 162.15 C848.59,162.05 849.98,161.64 849.27,161.19 C848.33,160.59 848.45,159.30 849.79,155.53 C851.92,149.59 853.99,148.43 854.02,153.17 C854.03,155.53 854.29,156.09 854.93,155.08 C856.25,153.00 857.33,161.56 856.78,169.76 C856.53,173.47 856.68,177.75 857.10,179.27 C857.56,180.93 857.50,181.81 856.94,181.46 C856.42,181.14 856.00,181.58 856.00,182.44 C856.00,183.30 856.45,184.00 857.00,184.00 C857.59,184.00 858.04,187.98 858.10,193.75 C858.16,199.44 858.49,202.46 858.91,201.00 C859.30,199.62 859.57,195.69 859.50,192.25 C859.42,187.79 859.75,186.00 860.66,186.00 C861.38,186.00 861.69,185.35 861.36,184.50 C861.05,183.68 861.30,183.00 861.93,183.00 C862.72,183.00 862.77,182.45 862.09,181.17 C860.96,179.06 861.57,160.97 862.92,156.50 C863.67,154.02 863.84,153.89 863.91,155.75 C864.03,158.76 865.82,158.61 867.00,155.50 C867.84,153.29 869.33,151.83 868.79,153.75 C868.67,154.16 869.17,155.58 869.90,156.90 C871.08,159.02 871.04,159.23 869.62,158.68 C868.35,158.20 868.00,158.71 868.00,161.09 C868.00,162.76 868.41,163.87 868.90,163.56 C869.40,163.25 869.74,165.24 869.65,168.00 C869.57,170.75 869.84,173.00 870.25,173.00 C870.66,173.00 870.95,174.46 870.88,176.25 L 870.76 179.50 L 870.00 176.50 L 869.24 173.50 L 869.02 177.00 C868.81,180.31 868.75,180.37 867.92,178.00 C867.12,175.71 867.07,175.77 867.35,178.73 C867.51,180.50 867.16,182.15 866.57,182.40 C865.92,182.67 865.99,182.87 866.75,182.92 C868.20,183.01 868.43,186.16 867.08,187.55 C865.93,188.74 863.96,199.35 864.13,203.43 L 864.26 206.50 L 865.00 203.00 C865.73,199.52 865.74,199.52 865.88,202.50 C865.95,204.15 866.23,207.98 866.49,211.00 C866.84,214.94 866.72,215.79 866.09,214.00 C865.30,211.78 865.19,211.74 865.10,213.58 C865.04,214.73 864.68,215.99 864.29,216.38 C863.90,216.77 863.65,218.98 863.74,221.29 C863.88,224.93 863.77,225.16 862.96,223.00 C862.27,221.15 862.13,222.20 862.42,227.00 C862.70,231.58 862.55,232.76 861.93,231.00 C861.35,229.36 861.23,231.09 861.60,236.00 C861.90,240.12 862.46,243.61 862.83,243.75 C863.21,243.89 863.31,246.14 863.06,248.75 C862.62,253.46 862.61,253.47 861.99,250.00 C861.48,247.07 861.24,247.77 860.57,254.26 C860.12,258.53 859.48,262.20 859.13,262.42 C858.78,262.64 858.50,268.50 858.50,275.46 C858.50,282.41 858.17,287.07 857.76,285.80 C857.35,284.51 857.23,285.87 857.49,288.91 C857.74,291.88 857.27,300.43 856.44,307.91 C855.61,315.38 854.72,323.52 854.46,326.00 C854.20,328.48 853.55,334.33 853.01,339.00 C852.47,343.67 851.58,351.77 851.03,357.00 C850.48,362.23 849.37,372.12 848.57,379.00 C847.77,385.88 846.85,393.98 846.54,397.00 C845.08,410.97 841.85,440.07 840.04,455.50 C838.94,464.85 837.11,480.83 835.97,491.00 C833.00,517.41 829.31,548.93 826.99,567.50 C825.90,576.30 825.00,585.33 825.00,587.56 C825.00,589.79 824.44,592.36 823.75,593.27 C822.56,594.85 800.10,603.95 687.50,648.49 C660.00,659.37 635.53,669.11 633.12,670.13 C627.44,672.55 625.72,672.47 618.50,669.41 ZM 601.00 557.55 C587.53,552.98 562.46,544.62 545.29,538.97 C528.12,533.31 514.28,528.35 514.53,527.94 C515.23,526.81 511.97,525.88 509.61,526.54 C507.93,527.01 507.80,526.92 509.00,526.08 C510.28,525.19 510.23,525.03 508.64,525.02 C507.11,525.00 506.85,524.39 507.19,521.50 C507.41,519.58 507.24,518.00 506.80,518.00 C506.36,518.00 506.00,516.93 506.00,515.62 C506.00,514.32 505.69,511.73 505.31,509.88 C504.64,506.60 504.60,506.58 503.88,509.00 C503.27,511.07 503.14,510.80 503.15,507.50 C503.17,502.64 501.97,489.76 501.42,488.87 C501.20,488.52 500.77,484.70 500.45,480.39 C500.14,476.07 499.51,472.31 499.06,472.02 C498.61,471.73 498.30,468.26 498.37,464.29 C498.44,460.33 498.81,457.85 499.18,458.79 C499.75,460.23 499.87,460.18 499.93,458.42 C499.97,457.27 499.70,456.03 499.34,455.67 C498.97,455.30 498.55,451.18 498.41,446.50 L 498.15 438.00 L 507.83 437.80 L 517.50 437.60 L 506.50 437.00 C500.04,436.64 509.94,436.36 530.50,436.31 C549.75,436.27 564.68,436.44 563.68,436.70 C562.05,437.12 562.02,437.30 563.43,438.34 C564.80,439.35 566.64,448.60 567.04,456.50 L 567.14 458.50 L 567.92 456.50 C568.48,455.09 568.91,456.56 569.41,461.50 C570.64,473.77 571.03,475.05 573.87,476.23 C575.32,476.83 577.06,477.23 577.75,477.12 C578.44,477.00 579.00,477.38 579.00,477.96 C579.00,478.53 580.20,479.00 581.66,479.00 C584.83,479.00 595.36,482.15 595.83,483.24 C596.02,483.66 597.31,484.00 598.72,484.00 C602.23,484.00 609.00,486.12 609.00,487.22 C609.00,487.71 609.44,487.84 609.98,487.51 C610.52,487.18 614.62,488.06 619.09,489.47 C628.22,492.35 624.87,492.76 647.50,485.97 C652.45,484.49 658.97,482.58 662.00,481.73 C665.03,480.88 672.28,478.74 678.12,476.96 L 688.74 473.73 L 689.36 467.11 C689.70,463.48 689.99,458.81 689.99,456.75 C690.00,454.69 690.38,453.00 690.83,453.00 C691.29,453.00 691.46,449.40 691.21,445.00 C690.95,440.60 691.14,437.00 691.62,437.00 C692.10,436.99 692.58,431.77 692.67,425.38 C692.76,419.00 693.11,412.70 693.44,411.39 L 694.04 409.00 L 611.77 408.76 L 529.50 408.52 L 602.00 408.00 C651.26,407.65 662.80,407.40 638.00,407.22 C615.72,407.07 602.06,406.62 602.93,406.06 C603.99,405.39 603.41,404.98 600.69,404.47 C596.10,403.61 590.90,404.69 593.05,406.05 C594.07,406.70 593.31,406.97 590.50,406.97 C587.93,406.97 586.98,406.67 587.83,406.12 C590.06,404.71 585.24,404.00 578.54,404.75 C572.95,405.38 572.76,405.48 576.00,406.09 C578.72,406.59 578.05,406.75 573.00,406.80 C568.54,406.84 567.13,406.59 568.50,406.00 C570.01,405.35 569.28,405.09 565.50,404.95 C562.75,404.85 560.05,404.85 559.50,404.96 C558.95,405.08 553.44,404.85 547.25,404.46 C538.69,403.93 536.00,403.43 536.00,402.38 C536.00,401.62 536.56,400.99 537.25,400.98 C538.23,400.97 538.23,400.80 537.23,400.16 C535.31,398.95 534.85,394.99 536.55,394.34 C538.70,393.52 538.31,392.00 535.94,392.00 C534.62,392.00 534.14,392.42 534.61,393.17 C535.07,393.93 534.80,394.14 533.84,393.77 C532.62,393.30 532.36,394.17 532.42,398.35 L 532.50 403.50 L 528.11 403.81 C522.67,404.20 520.95,402.82 523.46,400.05 C524.45,398.95 525.59,398.25 525.99,398.49 C526.38,398.74 527.74,397.84 529.01,396.49 L 531.30 394.05 L 528.90 393.14 C527.50,392.61 525.80,392.61 524.81,393.12 C523.78,393.66 522.88,393.62 522.50,393.00 C522.16,392.45 520.78,392.00 519.44,392.00 C518.10,392.00 517.00,391.55 517.00,391.00 C517.00,390.34 550.83,390.00 616.50,390.00 C671.22,390.00 715.99,390.34 715.98,390.75 C715.97,391.16 715.29,399.15 714.47,408.50 C713.65,417.85 712.54,431.35 712.01,438.50 C711.47,445.65 710.79,453.52 710.49,456.00 C710.20,458.48 709.55,466.49 709.05,473.81 C708.55,481.13 707.63,487.74 707.00,488.50 C706.38,489.25 704.43,490.17 702.68,490.54 C700.93,490.90 690.28,494.03 679.00,497.50 C667.72,500.96 653.55,505.23 647.50,506.98 C641.45,508.73 634.58,510.77 632.24,511.52 C628.71,512.65 627.18,512.66 623.24,511.58 C615.16,509.36 584.79,499.94 579.00,497.86 C575.97,496.77 571.70,495.48 569.50,494.99 C564.63,493.90 551.11,489.18 552.50,489.06 C553.05,489.01 552.96,488.63 552.30,488.20 C551.54,487.73 550.85,483.15 550.43,475.97 C550.07,469.66 549.35,463.70 548.83,462.71 C548.31,461.73 548.17,460.04 548.51,458.96 C548.87,457.85 548.67,457.00 548.07,457.00 C547.48,457.00 547.00,456.10 547.00,455.00 C547.00,453.09 546.33,453.00 531.91,453.00 L 516.81 453.00 L 517.28 458.25 C517.54,461.14 518.47,468.17 519.37,473.87 C520.26,479.58 520.71,485.98 520.37,488.10 C519.63,492.72 521.92,508.75 523.05,506.91 C523.56,506.09 523.95,506.68 524.17,508.58 C524.47,511.26 525.11,511.70 532.00,513.89 C536.12,515.21 539.72,516.56 540.00,516.89 C540.28,517.23 540.95,517.54 541.50,517.58 C544.39,517.81 558.00,522.48 558.00,523.24 C558.00,523.72 558.41,523.87 558.91,523.56 C560.02,522.87 597.37,534.95 597.84,536.15 C598.02,536.62 598.52,536.80 598.94,536.53 C599.37,536.27 605.94,538.13 613.54,540.67 L 627.35 545.29 L 632.43 543.68 C635.22,542.79 644.92,539.63 654.00,536.65 C663.08,533.67 681.30,527.75 694.50,523.50 C733.81,510.84 731.26,511.85 732.13,508.59 C732.56,507.02 733.20,501.62 733.57,496.61 C733.93,491.60 734.60,487.36 735.06,487.19 C735.51,487.01 735.66,486.29 735.39,485.58 C735.12,484.87 735.38,479.84 735.96,474.40 C736.54,468.95 737.51,457.98 738.11,450.00 C738.71,442.02 739.53,435.38 739.93,435.22 C740.33,435.07 740.46,432.48 740.21,429.47 C739.96,426.46 740.15,424.00 740.63,423.99 C741.11,423.99 741.65,419.83 741.83,414.74 C742.01,409.66 742.56,402.58 743.06,399.00 C744.71,387.17 744.97,384.57 745.32,376.50 C745.51,372.10 746.01,366.59 746.42,364.25 L 747.18 360.00 L 654.34 359.77 C597.90,359.63 573.66,359.33 592.50,359.00 C609.55,358.70 622.71,358.35 621.75,358.23 C620.79,358.10 620.11,357.44 620.25,356.75 C620.40,356.02 619.25,355.37 617.50,355.19 C615.85,355.02 613.90,354.12 613.17,353.19 C611.95,351.64 611.87,351.67 612.17,353.50 C612.40,354.86 612.02,355.39 611.00,355.14 C610.17,354.95 608.50,354.78 607.27,354.77 C606.04,354.76 605.27,354.37 605.56,353.90 C605.85,353.43 605.60,352.02 604.99,350.77 C603.96,348.65 603.99,348.63 605.38,350.35 C606.20,351.37 607.36,351.90 607.96,351.53 C608.56,351.15 608.93,351.22 608.77,351.68 C608.62,352.13 608.91,352.73 609.40,353.00 C609.90,353.27 610.42,352.71 610.57,351.75 C610.71,350.79 610.34,350.00 609.74,350.00 C609.15,350.00 609.01,349.66 609.42,349.25 C609.84,348.84 611.15,348.50 612.34,348.50 C613.59,348.50 614.50,347.87 614.50,347.00 C614.50,346.17 615.40,345.21 616.50,344.85 C618.84,344.09 624.09,343.92 622.25,344.66 C621.56,344.94 621.00,345.83 621.00,346.65 C621.00,347.83 621.60,347.71 623.90,346.07 C625.87,344.67 628.22,344.04 631.15,344.12 C635.19,344.23 635.29,344.29 632.50,345.00 L 629.50 345.76 L 632.75 345.88 C634.54,345.95 636.00,345.55 636.00,345.00 C636.00,344.38 642.02,343.94 651.75,343.84 C662.24,343.74 665.83,343.46 662.50,343.00 C657.82,342.36 657.99,342.31 665.00,342.26 C670.10,342.22 671.70,342.46 670.00,343.00 C667.83,343.69 668.03,343.81 671.50,343.89 C674.43,343.95 675.10,343.71 674.00,343.00 C673.01,342.36 685.69,341.94 711.00,341.77 C732.17,341.63 705.62,341.28 652.00,341.00 L 554.50 340.49 L 661.58 340.24 C720.48,340.11 768.88,340.21 769.13,340.46 C769.39,340.72 768.81,348.48 767.85,357.71 C766.89,366.95 765.15,383.73 763.98,395.00 C761.42,419.77 757.11,460.17 756.50,465.00 C756.26,466.92 755.14,477.87 754.00,489.33 C751.73,512.17 750.19,525.15 749.68,525.66 C749.31,526.03 696.01,543.95 659.19,556.08 C645.83,560.49 633.76,564.52 632.38,565.05 C631.00,565.57 628.89,565.96 627.68,565.92 C626.48,565.88 614.47,562.11 601.00,557.55 ZM 598.67 401.54 C598.67,400.74 598.07,399.86 597.33,399.57 C596.60,399.29 596.00,399.69 596.00,400.45 C596.00,401.21 596.56,402.06 597.25,402.34 C597.94,402.62 598.54,402.88 598.58,402.92 C598.63,402.96 598.67,402.34 598.67,401.54 ZM 598.00 396.50 C598.00,395.67 597.55,395.00 597.00,395.00 C596.45,395.00 596.00,395.67 596.00,396.50 C596.00,397.33 596.45,398.00 597.00,398.00 C597.55,398.00 598.00,397.33 598.00,396.50 ZM 655.55 358.09 C655.24,357.58 655.55,356.94 656.24,356.66 C657.81,356.03 654.76,355.83 644.50,355.88 C631.91,355.95 632.30,355.91 633.94,356.94 C634.99,357.61 634.30,357.97 631.44,358.26 C629.27,358.48 633.94,358.74 641.81,358.83 C650.25,358.93 655.89,358.62 655.55,358.09 ZM 628.20 345.80 C627.27,344.87 626.73,344.87 625.80,345.80 C624.87,346.73 625.13,347.00 627.00,347.00 C628.87,347.00 629.13,346.73 628.20,345.80 ZM 569.00 353.47 C569.00,352.63 569.67,351.68 570.49,351.36 C571.32,351.05 571.68,350.28 571.30,349.65 C570.89,348.96 571.26,349.02 572.20,349.78 C573.07,350.49 574.02,351.95 574.30,353.03 C574.72,354.66 574.30,355.00 571.91,355.00 C569.96,355.00 569.00,354.49 569.00,353.47 ZM 774.02 298.00 C773.84,296.20 773.64,295.99 773.31,297.25 C772.94,298.67 771.73,299.00 766.93,299.00 C763.67,299.00 761.00,298.62 761.00,298.17 C761.00,297.71 760.34,297.33 759.54,297.33 C758.74,297.33 758.32,297.71 758.60,298.17 C758.89,298.62 756.28,298.99 752.81,298.98 C748.37,298.97 746.94,298.68 748.00,298.00 C749.04,297.32 747.30,297.03 742.25,297.02 C738.26,297.01 735.00,296.57 735.00,296.04 C735.00,295.20 738.56,292.76 740.00,292.61 C740.28,292.58 740.35,291.90 740.16,291.08 C739.89,289.89 740.11,289.84 741.29,290.83 C742.48,291.81 742.89,291.74 743.39,290.44 C743.73,289.55 743.75,288.41 743.44,287.91 C743.14,287.41 743.56,287.00 744.38,287.00 C745.21,287.00 746.17,287.47 746.53,288.05 C746.98,288.77 747.61,288.74 748.55,287.96 C750.05,286.71 752.37,287.59 751.46,289.07 C751.14,289.58 752.03,290.00 753.44,290.00 C755.17,290.00 756.00,289.46 756.00,288.33 C756.00,287.41 756.64,285.95 757.42,285.08 C758.19,284.21 759.14,281.83 759.52,279.79 C760.15,276.39 760.03,276.11 758.10,276.48 C756.22,276.84 756.01,276.45 756.13,272.69 L 756.26 268.50 L 757.00 272.00 C757.41,273.92 757.80,274.60 757.88,273.50 C758.00,271.95 758.23,271.81 758.91,272.88 C759.94,274.51 760.81,271.14 761.23,263.94 C761.44,260.32 761.86,259.40 763.23,259.50 C764.18,259.57 765.31,260.01 765.73,260.47 C766.15,260.94 765.97,261.02 765.32,260.64 C763.71,259.72 762.73,261.58 763.52,264.07 C764.12,265.94 764.36,265.99 766.40,264.66 C768.39,263.36 768.76,263.38 769.76,264.85 C771.01,266.68 770.96,266.85 771.41,258.50 C771.53,256.30 772.37,253.15 773.28,251.50 L 774.92 248.50 L 775.09 255.50 C775.23,260.98 775.41,261.74 775.93,259.00 C776.52,255.86 776.67,256.20 777.38,262.33 C777.82,266.08 777.91,269.42 777.59,269.75 C777.26,270.07 776.95,269.02 776.88,267.42 L 776.76 264.50 L 776.00 267.50 C775.46,269.62 775.18,269.91 775.05,268.50 C774.60,263.52 772.99,271.68 772.36,282.19 C771.76,292.06 771.87,293.43 773.42,294.57 C774.51,295.36 774.99,296.71 774.72,298.17 C774.28,300.49 774.27,300.48 774.02,298.00 ZM 717.29 296.38 C717.73,295.93 721.13,295.41 725.72,295.09 C727.24,294.98 726.21,291.96 724.06,290.27 C722.68,289.18 722.67,288.92 724.00,288.03 C726.21,286.55 727.15,286.78 726.95,288.75 C726.40,294.17 728.29,295.75 730.94,292.09 C732.14,290.42 732.50,290.36 733.76,291.61 C734.82,292.68 734.91,293.40 734.11,294.37 C733.51,295.09 733.29,295.96 733.63,296.29 C733.96,296.63 730.30,296.90 725.50,296.90 C720.70,296.90 717.00,296.67 717.29,296.38 ZM 773.23 291.00 C773.23,289.08 773.44,288.29 773.69,289.25 C773.94,290.21 773.94,291.79 773.69,292.75 C773.44,293.71 773.23,292.92 773.23,291.00 ZM 773.00 246.00 C773.00,244.05 774.06,243.39 775.26,244.60 C776.07,245.40 775.02,248.00 773.89,248.00 C773.40,248.00 773.00,247.10 773.00,246.00 ZM 810.50 160.00 C810.84,159.45 811.54,159.00 812.06,159.00 C812.58,159.00 813.00,159.45 813.00,160.00 C813.00,160.55 812.30,161.00 811.44,161.00 C810.58,161.00 810.16,160.55 810.50,160.00 Z" fill="rgba(229,210,243,1)"/>
</g>
</svg>