<svg xmlns="http://www.w3.org/2000/svg" width="1024" height="1024" viewBox="0 0 1024 1024">
<g>
<path d="M 484.00 852.05 C477.12,849.94 463.62,845.72 454.00,842.69 C445.59,840.04 434.23,836.55 426.91,834.36 C427.96,834.57 428.71,834.62 428.88,834.46 C429.17,834.16 428.42,833.66 427.21,833.34 C425.99,833.03 425.00,832.34 425.00,831.82 C425.00,831.31 424.58,831.14 424.07,831.46 C423.56,831.77 422.83,831.53 422.44,830.91 C421.94,830.09 422.96,830.00 426.12,830.58 C428.53,831.02 431.51,831.41 432.75,831.44 C433.99,831.47 435.00,831.91 435.00,832.40 C435.00,833.88 439.08,829.74 440.68,826.66 C442.10,823.90 442.21,823.87 443.92,825.65 C444.90,826.67 445.66,828.85 445.62,830.50 C445.57,832.15 445.93,833.35 446.41,833.16 C446.89,832.98 447.59,833.34 447.98,833.96 C448.36,834.59 449.65,835.17 450.84,835.26 C452.03,835.35 453.00,835.85 453.00,836.38 C453.00,836.90 453.27,837.07 453.59,836.74 C453.92,836.42 453.71,835.33 453.12,834.33 C452.39,833.06 452.05,832.94 452.03,833.92 C452.01,834.70 451.70,835.03 451.32,834.66 C450.95,834.28 451.92,832.65 453.48,831.02 C455.84,828.56 456.05,827.96 454.74,827.45 C453.87,827.12 452.90,826.18 452.58,825.36 C452.16,824.24 452.51,824.03 454.00,824.50 C455.52,824.98 455.85,824.77 455.39,823.57 C455.06,822.70 455.21,822.00 455.73,822.00 C457.04,822.00 456.91,819.37 455.58,819.15 C454.99,819.05 453.38,818.86 452.00,818.73 C449.35,818.49 444.27,815.39 445.13,814.54 C445.40,814.26 447.18,814.48 449.07,815.03 C450.95,815.58 453.85,816.27 455.50,816.56 C457.15,816.85 461.28,818.01 464.67,819.15 C468.07,820.29 471.35,821.05 471.96,820.85 C472.58,820.64 465.08,818.05 455.29,815.09 C450.31,813.58 442.47,811.19 433.90,808.57 C438.23,809.89 441.65,810.92 443.50,811.47 C448.45,812.93 458.80,816.11 466.50,818.52 C474.20,820.93 484.10,824.03 488.50,825.41 C497.14,828.11 501.60,828.54 505.20,827.05 C507.26,826.20 556.54,811.08 613.00,793.98 C624.28,790.57 650.15,782.68 670.50,776.46 C690.85,770.23 715.15,762.83 724.50,760.00 C733.85,757.16 741.81,754.54 742.19,754.17 C742.57,753.80 743.61,743.60 744.49,731.50 C748.95,670.63 769.58,427.57 783.51,272.00 C791.91,178.09 795.00,143.00 795.00,141.52 C795.00,140.83 755.80,140.57 675.25,140.71 C631.90,140.78 559.25,140.86 486.91,140.91 C528.24,140.83 554.90,140.70 554.90,140.57 L 554.90 140.57 C554.66,140.33 550.31,140.04 545.24,139.93 C536.02,139.73 526.74,138.23 527.46,137.06 C527.67,136.72 530.91,136.53 534.67,136.63 C538.42,136.73 541.95,136.52 542.50,136.16 C543.05,135.80 545.08,135.40 547.00,135.28 C548.92,135.16 552.21,134.49 554.30,133.78 C557.19,132.81 557.98,132.07 557.63,130.69 C557.37,129.69 557.70,128.67 558.38,128.41 C559.05,128.15 559.70,126.32 559.84,124.33 C559.97,122.34 560.53,119.87 561.08,118.84 C562.37,116.43 561.92,116.31 549.57,115.60 C544.11,115.29 539.38,114.64 539.07,114.16 C538.76,113.68 537.71,113.40 536.75,113.55 C535.79,113.70 535.00,113.43 535.00,112.94 C535.00,112.46 540.06,111.92 546.25,111.75 C546.49,111.74 546.60,111.73 546.60,111.73 C546.60,111.55 472.46,111.33 376.93,111.21 C347.34,111.18 322.43,111.14 301.44,111.13 C347.07,111.09 411.06,111.17 501.03,111.24 L 805.50 111.50 L 809.57 113.68 C815.09,116.64 820.66,123.03 821.98,127.94 C822.81,130.99 822.69,136.45 821.49,150.24 C819.48,173.57 812.38,253.77 806.03,325.00 C800.74,384.39 795.84,440.83 791.02,498.00 C783.37,588.66 772.89,715.12 770.95,740.00 C768.68,769.13 768.18,771.36 763.00,775.09 C760.54,776.87 750.64,780.03 685.50,799.82 C667.35,805.33 632.25,816.01 607.50,823.53 C582.75,831.06 559.80,838.02 556.50,839.00 C553.20,839.98 539.34,844.21 525.69,848.39 C512.05,852.58 499.90,855.98 498.69,855.95 C497.49,855.92 490.88,854.17 484.00,852.05 ZM 517.36 690.58 C525.14,688.16 543.88,682.50 559.00,678.03 C574.12,673.55 589.42,669.01 593.00,667.95 C596.58,666.88 610.91,662.66 624.85,658.57 C638.80,654.48 650.45,650.89 650.74,650.59 C651.04,650.29 652.14,638.90 653.18,625.28 C654.23,611.65 658.00,564.50 661.56,520.50 C665.11,476.50 670.28,412.60 673.03,378.50 C675.78,344.40 678.70,308.25 679.52,298.17 C680.33,288.09 681.00,278.30 681.00,276.42 L 681.00 273.00 L 313.91 273.00 L 410.70 272.88 C463.94,272.82 510.42,272.44 514.00,272.04 L 520.50 271.30 L 513.50 270.98 C506.70,270.67 506.81,270.64 517.00,269.95 C522.78,269.56 529.14,269.19 531.13,269.12 C533.87,269.03 534.90,268.50 535.29,267.00 C535.58,265.90 535.40,265.00 534.91,265.00 C534.41,265.00 534.00,264.33 534.00,263.50 C534.00,262.67 534.43,262.00 534.96,262.00 C535.50,262.00 536.39,261.13 536.96,260.07 C537.74,258.62 537.62,257.76 536.50,256.64 C534.59,254.74 534.59,253.37 536.50,252.64 C540.18,251.23 537.27,250.14 528.25,249.55 C517.21,248.82 510.01,247.88 511.51,247.35 C512.07,247.15 515.89,246.60 520.01,246.13 C524.61,245.59 482.53,245.21 411.00,245.13 C303.47,245.02 295.06,245.05 291.84,246.66 L 294.29 245.00 L 497.19 245.00 C694.33,245.01 705.39,244.70 707.64,249.00 C707.93,249.55 708.07,250.17 708.43,250.87 C709.30,252.54 710.00,255.84 710.00,258.20 C710.00,261.96 683.19,587.02 678.07,645.30 C675.99,668.99 675.42,670.91 669.70,673.56 C667.94,674.37 658.85,677.24 649.50,679.94 C640.15,682.64 607.97,692.12 578.00,701.02 C507.60,721.92 504.12,722.96 500.65,722.92 C500.44,722.92 500.23,722.91 500.00,722.90 C499.57,722.89 498.38,722.65 496.60,722.23 C496.40,722.08 496.14,721.91 495.90,721.72 C494.39,720.57 492.48,719.90 477.56,715.23 C470.85,713.13 468.55,710.66 474.57,712.02 C476.95,712.55 479.17,712.44 480.87,711.68 C484.14,710.24 486.10,708.43 485.29,707.62 C484.95,707.28 485.14,707.00 485.72,707.00 C486.30,707.00 487.04,705.54 487.38,703.75 C488.29,698.84 488.68,697.06 487.96,696.18 C487.51,695.62 486.61,695.42 485.11,695.00 C483.13,694.45 480.83,693.55 480.00,692.99 C478.04,691.67 485.56,692.50 489.62,694.05 C491.20,694.66 494.52,695.35 497.00,695.59 C499.49,695.83 487.98,692.07 472.39,687.37 C472.43,687.38 472.46,687.39 472.50,687.40 C486.25,691.48 498.79,694.86 500.36,694.91 C501.94,694.96 509.59,693.01 517.36,690.58 ZM 508.82 608.09 C509.79,607.58 514.91,606.03 520.19,604.66 C525.48,603.28 533.79,600.80 538.65,599.13 C543.52,597.47 555.15,593.91 564.50,591.22 L 581.50 586.34 L 582.15 579.92 C582.50,576.39 583.30,566.75 583.91,558.50 C584.53,550.25 585.70,534.79 586.52,524.15 C587.33,513.51 587.76,504.42 587.47,503.96 C587.18,503.49 526.38,503.08 452.36,503.05 C439.64,503.04 428.08,503.04 417.56,503.03 C432.21,502.98 449.46,502.92 467.50,502.87 C516.76,502.74 547.09,502.35 538.50,501.95 C530.25,501.57 517.46,501.20 510.08,501.13 C502.70,501.06 496.90,500.77 497.18,500.49 C497.46,500.21 501.92,499.70 507.10,499.37 C515.39,498.84 516.79,498.48 519.00,496.25 C520.38,494.86 520.87,494.08 520.10,494.52 C519.15,495.05 518.93,494.93 519.42,494.13 C519.82,493.48 519.06,491.68 517.70,490.06 C515.41,487.34 515.16,487.26 513.49,488.83 C512.52,489.75 512.01,489.98 512.37,489.34 C512.72,488.69 512.45,487.96 511.76,487.71 C510.85,487.37 511.03,486.72 512.39,485.37 C513.74,484.04 514.14,483.93 513.77,485.00 C513.36,486.19 514.17,486.48 517.71,486.42 C522.46,486.33 524.68,484.53 522.82,482.28 C521.62,480.83 516.17,480.85 514.25,482.30 C513.43,482.92 513.00,482.86 513.00,482.12 C513.00,481.51 511.88,481.00 510.50,481.00 C507.79,481.00 507.12,479.55 509.43,478.66 C512.20,477.60 522.78,477.05 551.48,476.46 C566.98,476.14 579.92,475.69 580.85,475.45 L 608.85 475.50 L 611.68 477.60 C613.23,478.76 614.93,480.90 615.45,482.36 C616.39,485.00 615.00,506.68 609.55,574.70 C607.17,604.49 606.61,606.90 601.70,609.05 C600.49,609.58 583.30,614.72 563.50,620.48 C531.62,629.75 517.42,633.97 507.60,637.08 C506.01,637.59 503.62,638.00 502.29,638.00 C501.09,638.00 488.35,634.59 473.12,630.29 C488.72,634.67 501.27,637.97 502.69,637.93 C504.24,637.89 506.40,637.49 507.50,637.04 C508.87,636.48 507.76,636.24 504.00,636.31 C500.66,636.36 497.16,635.73 495.10,634.70 C493.22,633.76 490.97,632.98 490.10,632.96 C489.22,632.95 487.38,632.24 486.00,631.40 C484.60,630.54 484.31,630.11 485.34,630.44 C490.50,632.04 492.36,632.15 494.58,630.96 C497.46,629.42 497.58,628.20 495.25,624.03 C493.93,621.67 492.95,621.00 491.25,621.31 C489.75,621.59 489.00,621.23 489.00,620.24 C489.00,619.26 489.67,618.94 491.00,619.29 C492.10,619.58 492.75,619.41 492.44,618.91 C492.13,618.41 492.36,618.00 492.94,618.00 C493.52,618.00 494.00,617.07 494.00,615.93 C494.00,613.71 491.84,611.00 490.07,611.00 C489.48,611.00 489.00,610.50 489.00,609.88 C489.00,609.19 489.86,609.02 491.25,609.44 C496.04,610.86 500.84,611.19 502.58,610.22 C504.09,609.37 503.81,609.19 500.95,609.17 C499.61,609.16 495.29,608.23 490.16,606.88 C499.92,609.35 505.79,609.72 508.82,608.09 ZM 452.32 401.00 L 596.83 401.00 L 597.45 393.25 C597.80,388.99 598.58,381.00 599.20,375.50 C599.82,370.00 600.48,362.24 600.67,358.26 L 601.01 351.02 L 473.16 350.80 C523.12,350.66 559.91,350.35 561.00,350.00 C562.45,349.54 554.01,349.11 541.00,348.98 C518.58,348.77 516.76,348.02 534.83,346.47 C539.72,346.05 543.35,345.26 543.61,344.56 C543.86,343.91 545.91,343.34 548.16,343.30 C553.36,343.21 554.64,341.32 551.49,338.41 C550.19,337.20 549.32,336.01 549.56,335.77 C549.80,335.53 548.99,335.42 547.75,335.52 C546.34,335.64 545.55,336.32 545.64,337.35 C545.72,338.26 545.38,339.00 544.89,339.00 C544.40,339.00 544.00,338.55 544.00,338.00 C544.00,337.45 543.52,337.00 542.94,337.00 C542.36,337.00 542.20,337.51 542.58,338.13 C543.00,338.82 542.73,339.08 541.89,338.80 C541.13,338.54 540.34,337.52 540.15,336.52 C539.89,335.21 540.24,334.88 541.40,335.32 C542.39,335.70 543.00,335.41 543.00,334.56 C543.00,333.68 543.72,333.37 545.01,333.71 C546.52,334.11 546.88,333.86 546.44,332.71 C546.06,331.71 546.60,330.94 548.00,330.50 C549.85,329.91 550.31,328.61 548.55,328.95 C548.21,329.02 547.24,328.38 546.39,327.54 C544.31,325.45 542.92,325.61 542.29,327.99 C542.01,329.08 541.34,329.71 540.82,329.39 C540.30,329.06 539.95,329.41 540.05,330.15 C540.50,333.39 539.98,333.98 538.21,332.25 C536.36,330.43 536.96,328.94 540.02,327.74 C540.84,327.42 540.17,327.12 538.50,327.06 C536.85,327.01 534.83,326.53 534.00,326.00 C532.35,324.94 537.63,324.47 546.14,324.92 C548.69,325.05 551.08,324.68 551.45,324.08 C551.93,323.31 519.07,323.00 436.15,323.00 L 471.45 323.00 C622.29,323.00 622.74,323.01 625.33,325.04 C626.76,326.17 628.19,328.53 628.52,330.29 C629.34,334.71 622.42,421.35 621.04,423.92 C620.71,424.55 620.53,425.10 620.24,425.58 C618.03,429.28 609.22,429.04 471.65,429.01 C398.54,429.00 337.73,429.21 329.06,429.50 C336.48,429.22 382.04,429.00 436.67,429.00 C496.28,429.00 544.87,428.79 544.87,428.54 C544.87,428.54 544.87,428.54 544.87,428.54 C544.62,428.28 534.75,427.87 522.95,427.62 C494.88,427.02 488.88,426.90 488.86,426.48 C488.86,426.35 489.38,426.20 490.00,426.00 C491.38,425.56 498.37,425.15 505.55,425.10 C512.73,425.04 519.03,424.58 519.55,424.06 C520.07,423.55 521.72,422.96 523.21,422.77 C524.70,422.57 526.21,422.12 526.56,421.77 C526.91,421.42 527.94,421.37 528.85,421.66 C530.22,422.10 530.26,422.02 529.05,421.16 C528.25,420.59 527.27,420.33 526.87,420.58 C526.47,420.83 525.86,420.58 525.51,420.02 C525.16,419.46 525.25,418.99 525.69,418.98 C526.14,418.97 527.62,418.03 529.00,416.89 C530.38,415.76 530.83,415.18 530.00,415.61 C528.71,416.27 528.69,416.15 529.86,414.70 C530.61,413.78 531.58,413.24 532.01,413.51 C532.70,413.93 533.66,412.43 534.09,410.24 C534.17,409.83 534.62,408.49 535.10,407.25 C535.93,405.06 535.78,405.00 529.23,404.98 C525.53,404.98 521.83,404.53 521.00,404.00 C520.00,403.35 526.68,402.96 541.00,402.82 C560.70,402.63 559.65,402.56 528.50,401.95 C509.80,401.58 452.49,401.22 401.15,401.14 C379.20,401.11 362.19,401.06 348.98,401.08 C371.13,400.95 403.84,401.00 452.32,401.00 ZM 546.23 262.69 C549.25,264.04 550.88,262.26 550.41,258.14 C550.15,255.96 550.51,254.74 551.52,254.36 C554.26,253.30 553.20,250.95 550.10,251.19 C547.25,251.41 546.69,253.08 548.50,256.00 C548.84,256.55 548.42,257.00 547.56,257.00 C546.70,257.00 546.00,257.67 546.00,258.50 C546.00,259.33 545.55,260.00 545.00,260.00 C543.19,260.00 543.96,261.67 546.23,262.69 ZM 476.00 627.00 C479.86,629.11 479.45,629.25 473.52,627.87 C468.68,626.73 466.53,624.98 470.05,625.04 C471.40,625.06 474.08,625.95 476.00,627.00 ZM 415.00 828.20 C415.00,829.28 413.19,829.10 409.06,827.60 C406.86,826.81 406.05,826.09 406.81,825.62 C408.15,824.79 415.00,826.95 415.00,828.20 ZM 522.75 494.81 C520.30,497.25 521.54,497.78 524.56,495.58 C525.62,494.80 526.15,493.81 525.72,493.39 C525.29,492.96 523.96,493.60 522.75,494.81 ZM 289.10 290.40 C292.81,324.63 294.19,338.12 295.92,343.95 C295.67,343.43 295.46,342.90 295.31,342.41 C294.66,340.26 292.95,327.25 291.51,313.50 C290.58,304.59 289.77,296.95 289.10,290.40 ZM 301.33 349.54 C302.40,350.01 306.62,350.32 318.38,350.53 L 302.15 350.50 L 300.22 349.08 C300.57,349.22 300.93,349.37 301.33,349.54 ZM 473.50 690.00 C473.84,690.55 473.42,691.00 472.56,691.00 C471.70,691.00 471.00,690.55 471.00,690.00 C471.00,689.45 471.42,689.00 471.94,689.00 C472.46,689.00 473.16,689.45 473.50,690.00 ZM 418.76 831.96 C411.04,829.68 404.48,827.68 381.84,820.73 C390.17,823.27 398.62,825.84 404.00,827.47 C409.31,829.07 414.80,830.74 418.76,831.96 ZM 310.67 499.01 C310.29,498.35 310.09,497.59 309.67,496.70 C310.57,498.59 311.29,499.85 312.93,500.73 C311.68,500.26 311.07,499.69 310.67,499.01 ZM 300.70 407.51 C301.18,406.50 301.34,405.65 301.74,404.92 C302.07,404.33 302.56,403.83 303.51,403.40 C302.80,403.79 302.35,404.23 302.01,404.75 C301.50,405.51 301.22,406.41 300.70,407.51 ZM 444.00 679.05 C444.94,679.31 448.50,680.34 453.50,681.80 C447.75,680.14 441.96,678.50 436.50,677.00 C435.88,676.83 433.94,676.26 431.13,675.43 C436.63,677.05 439.67,677.89 444.00,679.05 ZM 183.56 116.13 C184.12,115.68 184.51,115.28 184.93,114.90 C185.62,114.30 186.39,113.78 188.13,113.35 C186.73,113.77 185.90,114.26 185.14,114.85 C184.63,115.23 184.15,115.66 183.56,116.13 ZM 308.55 491.54 C307.40,484.47 305.68,470.69 303.66,452.11 C305.59,469.89 307.39,484.29 308.55,491.54 ZM 288.75 248.75 C287.74,249.67 287.05,250.78 286.65,252.55 C286.95,250.93 287.46,249.98 288.19,249.25 C288.36,249.07 288.55,248.91 288.75,248.75 ZM 394.13 796.37 C381.51,792.51 368.29,788.50 360.50,786.18 C349.50,782.90 333.08,777.95 324.00,775.18 C333.08,777.95 349.50,782.90 360.50,786.18 C368.47,788.55 381.76,792.58 394.13,796.37 ZM 333.40 474.73 C333.58,474.76 337.52,474.81 344.48,474.85 C337.41,474.82 333.44,474.78 333.40,474.74 C333.40,474.73 333.40,474.73 333.40,474.73 Z" fill="rgba(219,180,249,1)"/>
<path d="M 419.48 564.40 C420.93,577.09 422.24,586.58 422.63,586.93 C423.11,587.35 433.85,590.68 446.50,594.31 C459.15,597.95 475.80,602.78 483.50,605.03 C491.20,607.29 499.05,609.15 500.95,609.17 C503.81,609.19 504.09,609.37 502.58,610.22 C500.84,611.19 496.04,610.86 491.25,609.44 C489.86,609.02 489.00,609.19 489.00,609.88 C489.00,610.50 489.48,611.00 490.07,611.00 C491.84,611.00 494.00,613.71 494.00,615.93 C494.00,617.07 493.52,618.00 492.94,618.00 C492.36,618.00 492.13,618.41 492.44,618.91 C492.75,619.41 492.10,619.58 491.00,619.29 C489.67,618.94 489.00,619.26 489.00,620.24 C489.00,621.23 489.75,621.59 491.25,621.31 C492.95,621.00 493.93,621.67 495.25,624.03 C497.58,628.20 497.46,629.42 494.58,630.96 C492.36,632.15 490.50,632.04 485.34,630.44 C484.31,630.11 484.60,630.54 486.00,631.40 C487.38,632.24 489.22,632.95 490.10,632.96 C490.97,632.98 493.22,633.76 495.10,634.70 C497.16,635.73 500.66,636.36 504.00,636.31 C507.76,636.24 508.87,636.48 507.50,637.04 C506.40,637.49 504.24,637.89 502.69,637.93 C500.30,637.99 466.44,628.64 439.50,620.48 C437.51,619.87 434.39,618.96 430.85,617.94 C430.94,617.82 430.57,617.42 429.77,616.63 C428.88,615.73 427.44,615.00 426.57,615.00 C425.71,615.00 425.00,614.40 425.00,613.67 C425.00,612.77 424.05,612.49 422.01,612.78 C420.02,613.08 418.84,612.74 418.47,611.79 C418.12,610.86 416.93,610.50 415.08,610.77 C413.47,611.01 411.90,610.65 411.47,609.95 C410.90,609.02 411.39,608.88 413.43,609.39 C415.12,609.82 415.94,609.71 415.57,609.11 C415.23,608.57 416.54,606.93 418.47,605.45 C420.40,603.98 421.72,602.36 421.40,601.84 C421.09,601.33 421.36,600.28 422.00,599.50 C423.52,597.67 422.43,595.93 420.22,596.64 C418.90,597.06 418.82,596.96 419.86,596.22 C420.81,595.54 420.88,595.04 420.11,594.57 C419.50,594.19 419.00,593.43 419.00,592.88 C419.00,592.33 419.45,592.16 420.00,592.50 C420.55,592.84 421.92,592.47 423.05,591.68 C424.58,590.60 426.05,590.46 428.80,591.12 C430.84,591.61 434.52,592.20 437.00,592.45 C440.33,592.78 439.16,592.24 432.50,590.36 C427.55,588.96 423.11,587.44 422.63,586.98 C422.24,586.61 420.93,577.10 419.48,564.40 ZM 463.00 712.92 C446.73,708.11 430.62,703.42 424.42,701.67 C424.38,701.44 423.25,700.78 421.00,699.69 C418.52,698.48 416.35,697.16 416.17,696.75 C415.98,696.34 415.08,695.96 414.17,695.92 C413.13,695.87 412.97,695.65 413.75,695.34 C414.44,695.06 415.00,694.43 415.00,693.95 C415.00,693.46 414.37,693.30 413.60,693.60 C412.83,693.89 411.93,693.69 411.59,693.14 C410.75,691.79 413.87,690.92 417.27,691.54 C420.45,692.12 422.00,689.82 420.27,687.07 C419.46,685.77 419.75,684.94 421.57,683.32 C422.85,682.17 424.15,681.48 424.45,681.79 C424.75,682.09 425.00,682.01 425.00,681.61 C425.00,681.22 423.64,680.42 421.98,679.84 C420.32,679.26 418.47,677.87 417.86,676.75 C416.84,674.83 416.97,674.75 420.14,675.43 C425.17,676.52 432.00,676.95 432.00,676.17 C432.00,675.98 431.14,675.55 429.76,675.02 C433.31,676.08 435.78,676.80 436.50,677.00 C464.50,684.70 501.26,696.00 497.00,695.59 C494.52,695.35 491.20,694.66 489.62,694.05 C485.56,692.50 478.04,691.67 480.00,692.99 C480.83,693.55 483.13,694.45 485.11,695.00 C486.61,695.42 487.51,695.62 487.96,696.18 C488.68,697.06 488.29,698.84 487.38,703.75 C487.04,705.54 486.30,707.00 485.72,707.00 C485.14,707.00 484.95,707.28 485.29,707.62 C486.10,708.43 484.14,710.24 480.87,711.68 C479.17,712.44 476.95,712.55 474.57,712.02 C468.55,710.66 470.85,713.13 477.56,715.23 C492.48,719.90 494.39,720.57 495.90,721.72 C496.43,722.13 497.01,722.48 496.97,722.60 C496.84,722.95 491.25,721.26 463.00,712.92 ZM 453.00 836.38 C453.00,835.85 452.03,835.35 450.84,835.26 C449.65,835.17 448.36,834.59 447.98,833.96 C447.59,833.34 446.89,832.98 446.41,833.16 C445.93,833.35 445.57,832.15 445.62,830.50 C445.66,828.85 444.90,826.67 443.92,825.65 C442.21,823.87 442.10,823.90 440.68,826.66 C439.08,829.74 435.00,833.88 435.00,832.40 C435.00,831.91 433.99,831.47 432.75,831.44 C431.51,831.41 428.53,831.02 426.12,830.58 C422.96,830.00 421.94,830.09 422.44,830.91 C422.83,831.53 423.56,831.77 424.07,831.46 C424.58,831.14 425.00,831.31 425.00,831.82 C425.00,832.34 425.99,833.03 427.21,833.34 C428.42,833.66 429.17,834.16 428.88,834.46 C428.58,834.75 426.35,834.35 423.92,833.57 C421.49,832.78 412.52,830.04 404.00,827.47 C398.00,825.65 388.19,822.67 378.97,819.85 C379.11,819.88 379.20,819.90 379.25,819.91 C380.75,820.09 379.45,817.48 377.69,816.76 C375.21,815.75 376.52,814.00 379.76,814.00 C381.81,814.00 382.13,813.73 381.20,812.80 C379.90,811.50 379.52,808.59 380.75,809.35 C381.16,809.60 381.57,808.70 381.65,807.35 C381.73,805.99 382.63,803.93 383.65,802.77 C384.67,801.61 384.99,800.95 384.36,801.32 C383.71,801.70 383.00,801.09 382.68,799.89 C382.38,798.74 381.65,798.10 381.07,798.46 C379.56,799.39 379.74,798.12 381.35,796.51 C382.09,795.77 384.00,795.01 385.60,794.83 C387.12,794.66 383.01,793.05 373.22,790.01 C384.34,793.37 398.14,797.58 409.00,800.93 C424.67,805.76 445.51,812.13 455.29,815.09 C465.08,818.05 472.58,820.64 471.96,820.85 C471.35,821.05 468.07,820.29 464.67,819.15 C461.28,818.01 457.15,816.85 455.50,816.56 C453.85,816.27 450.95,815.58 449.07,815.03 C447.18,814.48 445.40,814.26 445.13,814.54 C444.27,815.39 449.35,818.49 452.00,818.73 C453.38,818.86 454.99,819.05 455.58,819.15 C456.91,819.37 457.04,822.00 455.73,822.00 C455.21,822.00 455.06,822.70 455.39,823.57 C455.85,824.77 455.52,824.98 454.00,824.50 C452.51,824.03 452.16,824.24 452.58,825.36 C452.90,826.18 453.87,827.12 454.74,827.45 C456.05,827.96 455.84,828.56 453.48,831.02 C451.92,832.65 450.95,834.28 451.32,834.66 C451.70,835.03 452.01,834.70 452.03,833.92 C452.05,832.94 452.39,833.06 453.12,834.33 C453.71,835.33 453.92,836.42 453.59,836.74 C453.27,837.07 453.00,836.90 453.00,836.38 ZM 374.50 503.30 C378.35,503.19 402.42,503.00 428.00,502.87 C453.58,502.75 472.48,502.51 470.00,502.34 C449.60,500.93 448.62,500.79 450.56,499.71 C453.34,498.16 455.00,496.34 454.29,495.62 C453.95,495.28 454.42,495.00 455.33,495.00 C456.25,495.00 457.00,494.30 457.00,493.44 C457.00,492.52 457.47,492.17 458.15,492.60 C458.83,493.02 459.04,492.87 458.65,492.24 C457.78,490.84 458.96,487.86 460.11,488.57 C460.60,488.87 461.45,487.94 462.00,486.49 C463.19,483.37 461.60,479.56 459.46,480.38 C458.69,480.67 457.84,480.55 457.56,480.10 C456.64,478.62 464.65,477.00 473.62,476.87 C478.50,476.80 485.88,476.42 490.00,476.03 C494.12,475.64 460.64,475.26 415.60,475.17 C370.55,475.09 333.56,474.90 333.41,474.74 L 333.40 474.74 C333.76,474.89 389.53,475.02 457.52,475.01 C525.47,475.00 580.91,475.19 580.91,475.43 L 580.90 475.43 C580.66,475.67 567.43,476.13 551.48,476.46 C522.78,477.05 512.20,477.60 509.43,478.66 C507.12,479.55 507.79,481.00 510.50,481.00 C511.88,481.00 513.00,481.51 513.00,482.12 C513.00,482.86 513.43,482.92 514.25,482.30 C516.17,480.85 521.62,480.83 522.82,482.28 C524.68,484.53 522.46,486.33 517.71,486.42 C514.17,486.48 513.36,486.19 513.77,485.00 C514.14,483.93 513.74,484.04 512.39,485.37 C511.03,486.72 510.85,487.37 511.76,487.71 C512.45,487.96 512.72,488.69 512.37,489.34 C512.01,489.98 512.52,489.75 513.49,488.83 C515.16,487.26 515.41,487.34 517.70,490.06 C519.06,491.68 519.82,493.48 519.42,494.13 C518.93,494.93 519.15,495.05 520.10,494.52 C520.87,494.08 520.38,494.86 519.00,496.25 C516.79,498.48 515.39,498.84 507.10,499.37 C501.92,499.70 497.46,500.21 497.18,500.49 C496.90,500.77 502.70,501.06 510.08,501.13 C517.46,501.20 530.25,501.57 538.50,501.95 C547.09,502.35 516.76,502.74 467.50,502.87 C420.20,503.00 378.35,503.19 374.50,503.30 ZM 328.00 429.58 C328.00,429.26 362.54,428.99 404.75,428.97 C458.24,428.95 480.96,428.62 479.72,427.90 C478.74,427.33 476.94,426.97 475.72,427.09 C472.45,427.42 466.00,425.92 466.00,424.83 C466.00,424.31 466.41,424.14 466.92,424.45 C467.42,424.76 469.03,424.56 470.48,424.01 C472.42,423.27 472.98,422.51 472.55,421.17 C472.19,420.03 472.74,418.64 473.99,417.51 C475.34,416.29 476.00,416.11 476.00,416.97 C476.00,417.98 476.31,417.99 477.47,417.03 C478.28,416.36 478.86,415.51 478.76,415.15 C478.45,414.04 481.42,410.00 482.55,410.00 C483.96,410.00 490.66,405.03 489.44,404.88 C485.74,404.42 496.65,403.19 506.50,402.96 L 518.50 402.68 L 509.00 401.95 C506.71,401.77 496.30,401.60 480.89,401.46 C502.24,401.60 519.67,401.78 528.50,401.95 C559.65,402.56 560.70,402.63 541.00,402.82 C526.68,402.96 520.00,403.35 521.00,404.00 C521.83,404.53 525.53,404.98 529.23,404.98 C535.78,405.00 535.93,405.06 535.10,407.25 C534.62,408.49 534.17,409.83 534.09,410.24 C533.66,412.43 532.70,413.93 532.01,413.51 C531.58,413.24 530.61,413.78 529.86,414.70 C528.69,416.15 528.71,416.27 530.00,415.61 C530.83,415.18 530.38,415.76 529.00,416.89 C527.62,418.03 526.14,418.97 525.69,418.98 C525.25,418.99 525.16,419.46 525.51,420.02 C525.86,420.58 526.47,420.83 526.87,420.58 C527.27,420.33 528.25,420.59 529.05,421.16 C530.26,422.02 530.22,422.10 528.85,421.66 C527.94,421.37 526.91,421.42 526.56,421.77 C526.21,422.12 524.70,422.57 523.21,422.77 C521.72,422.96 520.07,423.55 519.55,424.06 C519.03,424.58 512.73,425.04 505.55,425.10 C498.37,425.15 491.38,425.56 490.00,426.00 C489.38,426.20 488.86,426.35 488.86,426.48 C488.88,426.90 494.88,427.02 522.95,427.62 C534.75,427.87 544.62,428.28 544.87,428.54 C544.87,428.54 544.87,428.54 544.87,428.54 C544.87,428.79 496.28,429.00 436.67,429.00 C376.90,429.00 328.00,429.26 328.00,429.58 ZM 484.64 350.76 C507.83,350.61 521.56,350.37 521.11,350.09 C520.34,349.60 517.20,349.17 514.13,349.14 C506.59,349.05 499.04,347.03 498.85,345.06 C498.68,343.36 498.69,340.49 498.88,337.75 C498.95,336.79 499.52,336.00 500.15,336.00 C500.79,336.00 502.97,334.20 505.00,332.00 C508.15,328.59 509.29,328.00 512.79,328.00 C515.04,328.00 517.12,327.62 517.40,327.16 C517.69,326.70 520.97,326.22 524.69,326.10 C528.41,325.98 531.70,325.49 531.99,325.01 C532.29,324.54 534.32,323.97 536.51,323.74 C536.56,323.74 536.59,323.73 536.59,323.73 C536.59,323.51 489.59,323.26 430.34,323.17 L 320.18 323.00 L 436.15 323.00 C519.07,323.00 551.93,323.31 551.45,324.08 C551.08,324.68 548.69,325.05 546.14,324.92 C537.63,324.47 532.35,324.94 534.00,326.00 C534.83,326.53 536.85,327.01 538.50,327.06 C540.17,327.12 540.84,327.42 540.02,327.74 C536.96,328.94 536.36,330.43 538.21,332.25 C539.98,333.98 540.50,333.39 540.05,330.15 C539.95,329.41 540.30,329.06 540.82,329.39 C541.34,329.71 542.01,329.08 542.29,327.99 C542.92,325.61 544.31,325.45 546.39,327.54 C547.24,328.38 548.21,329.02 548.55,328.95 C550.31,328.61 549.85,329.91 548.00,330.50 C546.60,330.94 546.06,331.71 546.44,332.71 C546.88,333.86 546.52,334.11 545.01,333.71 C543.72,333.37 543.00,333.68 543.00,334.56 C543.00,335.41 542.39,335.70 541.40,335.32 C540.24,334.88 539.89,335.21 540.15,336.52 C540.34,337.52 541.13,338.54 541.89,338.80 C542.73,339.08 543.00,338.82 542.58,338.13 C542.20,337.51 542.36,337.00 542.94,337.00 C543.52,337.00 544.00,337.45 544.00,338.00 C544.00,338.55 544.40,339.00 544.89,339.00 C545.38,339.00 545.72,338.26 545.64,337.35 C545.55,336.32 546.34,335.64 547.75,335.52 C548.99,335.42 549.80,335.53 549.56,335.77 C549.32,336.01 550.19,337.20 551.49,338.41 C554.64,341.32 553.36,343.21 548.16,343.30 C545.91,343.34 543.86,343.91 543.61,344.56 C543.35,345.26 539.72,346.05 534.83,346.47 C516.76,348.02 518.58,348.77 541.00,348.98 C554.01,349.11 562.45,349.54 561.00,350.00 C560.00,350.32 528.67,350.61 484.64,350.76 ZM 512.90 248.02 C515.48,248.51 521.05,249.07 528.25,249.55 C537.27,250.14 540.18,251.23 536.50,252.64 C534.59,253.37 534.59,254.74 536.50,256.64 C537.62,257.76 537.74,258.62 536.96,260.07 C536.39,261.13 535.50,262.00 534.96,262.00 C534.43,262.00 534.00,262.67 534.00,263.50 C534.00,264.33 534.41,265.00 534.91,265.00 C535.40,265.00 535.58,265.90 535.29,267.00 C534.90,268.50 533.87,269.03 531.13,269.12 C529.14,269.19 522.78,269.56 517.00,269.95 C506.81,270.64 506.70,270.67 513.50,270.98 L 520.50 271.30 L 513.50 271.05 C508.32,270.87 507.15,270.59 509.00,270.00 C511.33,269.25 511.35,269.19 509.31,269.10 C506.58,268.98 505.28,267.07 507.12,265.90 C507.95,265.38 508.04,265.02 507.36,265.02 C506.73,265.01 505.93,264.27 505.59,263.38 C505.12,262.15 505.44,261.88 506.87,262.26 C507.92,262.53 509.39,262.37 510.14,261.89 C511.25,261.19 511.23,261.03 510.00,261.00 C508.71,260.97 508.70,260.84 509.94,260.06 C511.14,259.30 511.16,258.90 510.03,257.53 C509.29,256.64 508.10,256.13 507.39,256.40 C506.54,256.73 506.31,256.35 506.72,255.29 C507.11,254.28 506.94,253.92 506.27,254.33 C505.69,254.69 504.95,254.32 504.64,253.49 C504.22,252.42 504.75,252.00 506.53,252.00 C507.89,252.00 509.00,251.52 509.00,250.94 C509.00,250.36 509.45,250.16 510.00,250.50 C510.55,250.84 511.00,250.64 511.00,250.06 C511.00,249.48 512.01,248.96 513.25,248.90 C515.40,248.81 515.39,248.77 513.00,248.05 C512.96,248.04 512.93,248.03 512.90,248.02 ZM 544.76 115.22 C546.22,115.37 547.86,115.50 549.57,115.60 C561.92,116.31 562.37,116.43 561.08,118.84 C560.53,119.87 559.97,122.34 559.84,124.33 C559.70,126.32 559.05,128.15 558.38,128.41 C557.70,128.67 557.37,129.69 557.63,130.69 C557.98,132.07 557.19,132.81 554.30,133.78 C552.21,134.49 548.92,135.16 547.00,135.28 C545.08,135.40 543.05,135.80 542.50,136.16 C541.95,136.52 538.42,136.73 534.67,136.63 C531.26,136.54 528.28,136.69 527.60,136.97 C527.67,136.73 527.95,136.45 528.39,136.09 C529.32,135.32 529.80,133.95 529.49,132.98 C529.13,131.82 529.59,131.08 530.88,130.74 C533.15,130.15 536.21,121.21 534.79,119.34 C533.85,118.11 535.65,116.32 536.73,117.40 C537.06,117.73 536.78,118.00 536.10,118.00 C535.28,118.00 535.43,118.57 536.52,119.66 C537.89,121.03 538.33,121.08 539.02,119.96 C539.49,119.21 539.60,118.17 539.28,117.64 C538.96,117.12 539.21,117.01 539.84,117.40 C540.48,117.80 542.00,117.41 543.22,116.56 C544.28,115.81 544.84,115.42 544.76,115.22 ZM 546.23 262.69 C543.96,261.67 543.19,260.00 545.00,260.00 C545.55,260.00 546.00,259.33 546.00,258.50 C546.00,257.67 546.70,257.00 547.56,257.00 C548.42,257.00 548.84,256.55 548.50,256.00 C546.69,253.08 547.25,251.41 550.10,251.19 C553.20,250.95 554.26,253.30 551.52,254.36 C550.51,254.74 550.15,255.96 550.41,258.14 C550.88,262.26 549.25,264.04 546.23,262.69 ZM 476.00 627.00 C474.08,625.95 471.40,625.06 470.05,625.04 C466.53,624.98 468.68,626.73 473.52,627.87 C479.45,629.25 479.86,629.11 476.00,627.00 ZM 415.00 828.20 C415.00,826.95 408.15,824.79 406.81,825.62 C406.05,826.09 406.86,826.81 409.06,827.60 C413.19,829.10 415.00,829.28 415.00,828.20 ZM 522.75 494.81 C523.96,493.60 525.29,492.96 525.72,493.39 C526.15,493.81 525.62,494.80 524.56,495.58 C521.54,497.78 520.30,497.25 522.75,494.81 ZM 473.50 690.00 C473.16,689.45 472.46,689.00 471.94,689.00 C471.42,689.00 471.00,689.45 471.00,690.00 C471.00,690.55 471.70,691.00 472.56,691.00 C473.42,691.00 473.84,690.55 473.50,690.00 ZM 359.58 654.33 C362.74,655.25 366.49,656.33 370.50,657.48 C378.83,659.87 391.55,663.60 402.37,666.82 C396.64,665.15 390.33,663.31 384.00,661.47 C374.43,658.68 365.74,656.14 359.58,654.33 ZM 262.63 784.31 C261.22,783.88 259.90,783.48 258.65,783.10 C248.03,779.89 238.26,776.57 236.48,775.57 C238.12,776.47 249.11,780.13 262.63,784.31 ZM 407.70 696.98 C396.35,693.73 381.43,689.39 367.88,685.41 C375.06,687.50 383.15,689.85 392.00,692.41 C397.57,694.02 403.09,695.62 407.70,696.98 ZM 539.00 114.07 C539.03,114.10 539.05,114.13 539.07,114.16 C539.24,114.42 540.69,114.72 542.84,115.00 C542.65,115.00 542.44,115.00 542.22,115.00 C540.46,115.00 539.02,114.58 539.00,114.07 ZM 554.89 140.56 C554.89,140.56 554.90,140.56 554.90,140.57 L 554.90 140.57 C554.90,140.78 494.29,140.95 414.16,140.99 C494.16,140.95 554.70,140.77 554.89,140.56 ZM 272.58 759.63 C275.50,760.52 278.68,761.48 282.00,762.48 C295.33,766.48 313.07,771.85 322.59,774.75 C314.01,772.14 299.57,767.78 286.50,763.84 C281.49,762.34 276.75,760.90 272.58,759.63 ZM 328.25 401.20 C311.69,401.44 305.87,402.05 303.38,403.48 C305.87,402.03 311.68,401.43 328.25,401.20 ZM 531.63 138.69 C532.97,138.93 534.55,139.16 536.29,139.35 C534.40,139.15 532.75,138.92 531.63,138.69 ZM 327.77 776.33 C331.74,777.53 336.50,778.97 341.40,780.45 C335.70,778.73 330.85,777.27 328.00,776.40 C327.92,776.37 327.85,776.35 327.77,776.33 ZM 535.00 112.97 C535.01,113.18 535.18,113.36 535.46,113.47 C535.17,113.36 535.00,113.19 535.00,112.98 C535.00,112.97 535.00,112.97 535.00,112.97 Z" fill="rgba(228,191,250,1)"/>
<path d="M 419.00 700.35 C416.52,699.56 404.38,695.98 392.00,692.41 C358.57,682.76 335.85,676.01 332.73,674.81 C328.60,673.22 324.74,668.19 325.45,665.34 C325.77,664.05 325.67,663.00 325.22,663.00 C324.77,663.00 323.87,657.71 323.21,651.25 C322.85,647.66 322.48,644.04 322.03,639.80 C322.44,643.64 322.83,647.31 323.20,650.84 C324.16,659.97 324.62,661.88 325.56,660.58 C326.26,659.63 326.61,656.47 326.43,652.89 C326.26,649.55 326.56,645.65 327.11,644.22 C327.87,642.21 327.75,641.44 326.58,640.79 C325.41,640.13 325.14,638.31 325.36,632.49 C325.52,628.40 325.30,624.49 324.88,623.81 C324.46,623.12 324.59,621.99 325.18,621.28 C325.96,620.34 325.88,620.00 324.87,620.00 C323.95,620.00 323.40,618.49 323.20,615.41 C323.01,612.41 323.27,611.05 323.95,611.47 C324.53,611.83 325.00,611.64 325.00,611.06 C325.00,610.48 324.60,610.00 324.11,610.00 C322.84,610.00 321.96,607.28 322.64,605.50 C322.95,604.67 324.18,603.99 325.36,603.98 C326.61,603.98 327.04,603.66 326.39,603.23 C325.78,602.83 325.40,601.77 325.53,600.88 C325.67,600.00 325.42,598.67 324.97,597.95 C324.29,596.86 323.88,596.86 322.55,597.96 C321.67,598.69 320.66,599.00 320.31,598.64 C319.96,598.29 320.18,598.00 320.81,598.00 C321.57,598.00 321.67,597.26 321.11,595.75 C320.65,594.51 320.60,591.47 321.01,589.00 C321.42,586.53 321.81,585.06 321.87,585.75 C321.94,586.44 322.48,587.00 323.06,587.00 C323.64,587.00 323.86,586.59 323.55,586.08 C323.24,585.57 324.15,584.24 325.57,583.12 C327.12,581.90 327.87,580.60 327.43,579.89 C327.02,579.22 327.11,578.95 327.64,579.28 C328.17,579.60 329.25,579.45 330.05,578.93 C331.31,578.12 331.31,577.87 330.00,577.02 C328.82,576.24 328.79,576.03 329.87,576.02 C331.00,576.00 331.01,575.72 329.96,574.45 C328.87,573.14 329.00,572.81 330.75,572.35 C332.93,571.78 334.46,568.06 334.08,564.25 C333.76,561.04 335.84,561.46 336.56,564.75 C337.62,569.58 337.88,569.98 339.57,569.33 C340.79,568.87 341.06,567.97 340.74,564.97 C341.74,574.02 343.97,594.58 346.00,613.46 C348.24,634.33 350.17,651.48 350.29,651.56 C350.41,651.64 365.58,656.10 384.00,661.47 C402.42,666.83 420.76,672.18 424.75,673.36 C428.74,674.53 432.00,675.80 432.00,676.17 C432.00,676.95 425.17,676.52 420.14,675.43 C416.97,674.75 416.84,674.83 417.86,676.75 C418.47,677.87 420.32,679.26 421.98,679.84 C423.64,680.42 425.00,681.22 425.00,681.61 C425.00,682.01 424.75,682.09 424.45,681.79 C424.15,681.48 422.85,682.17 421.57,683.32 C419.75,684.94 419.46,685.77 420.27,687.07 C422.00,689.82 420.45,692.12 417.27,691.54 C413.87,690.92 410.75,691.79 411.59,693.14 C411.93,693.69 412.83,693.89 413.60,693.60 C414.37,693.30 415.00,693.46 415.00,693.95 C415.00,694.43 414.44,695.06 413.75,695.34 C412.97,695.65 413.13,695.87 414.17,695.92 C415.08,695.96 415.98,696.34 416.17,696.75 C416.35,697.16 418.52,698.48 421.00,699.69 C426.17,702.20 425.47,702.44 419.00,700.35 ZM 425.77 113.61 C450.45,112.03 440.70,111.43 370.94,111.21 C372.91,111.21 374.91,111.21 376.93,111.21 C472.46,111.33 546.60,111.55 546.60,111.73 C546.60,111.73 546.49,111.74 546.25,111.75 C540.06,111.92 535.00,112.47 535.00,112.98 C535.00,113.48 535.90,113.71 537.00,113.50 C538.10,113.29 539.00,113.54 539.00,114.06 C539.00,114.58 540.45,115.00 542.22,115.00 C545.43,115.00 545.43,115.01 543.22,116.56 C542.00,117.41 540.48,117.80 539.84,117.40 C539.21,117.01 538.96,117.12 539.28,117.64 C539.60,118.17 539.49,119.21 539.02,119.96 C538.33,121.08 537.89,121.03 536.52,119.66 C535.43,118.57 535.28,118.00 536.10,118.00 C536.78,118.00 537.06,117.73 536.73,117.40 C535.65,116.32 533.85,118.11 534.79,119.34 C536.21,121.21 533.15,130.15 530.88,130.74 C529.59,131.08 529.13,131.82 529.49,132.98 C529.80,133.95 529.32,135.32 528.39,136.09 C526.92,137.31 527.22,137.58 531.12,138.57 C533.53,139.18 539.76,139.77 544.97,139.89 C550.18,140.01 554.64,140.31 554.89,140.55 L 554.89 140.56 C554.89,140.77 496.42,140.94 418.40,140.99 L 414.50 139.00 C410.14,136.77 407.45,136.46 406.46,138.07 C406.01,138.79 405.27,138.68 404.15,137.74 C403.24,136.97 400.59,135.80 398.25,135.13 C393.79,133.86 392.97,132.68 395.54,131.24 C396.87,130.49 396.81,130.13 395.04,128.53 C393.92,127.52 393.00,126.08 393.00,125.35 C393.00,123.79 396.58,123.51 397.50,125.00 C398.54,126.68 402.30,126.22 401.64,124.50 C401.32,123.68 401.61,122.99 402.28,122.98 C403.06,122.97 402.96,122.63 402.01,122.03 C400.74,121.23 400.84,120.80 402.64,119.12 C404.26,117.61 405.03,117.43 405.95,118.33 C406.87,119.23 407.07,119.15 406.82,118.00 C406.61,117.00 407.44,116.39 409.32,116.18 C411.88,115.88 412.05,116.05 411.07,117.86 C410.48,118.96 410.00,120.19 410.00,120.59 C410.00,121.82 413.92,117.83 414.49,116.02 C414.94,114.60 416.89,114.18 425.77,113.61 ZM 340.07 543.98 L 344.61 543.90 C348.94,543.83 349.84,543.60 348.00,543.04 C345.74,542.35 345.89,542.23 349.50,541.80 C352.86,541.40 353.15,541.20 351.30,540.56 C349.16,539.82 349.15,539.71 350.80,537.18 C351.77,535.70 351.96,534.91 351.23,535.36 C349.85,536.21 343.38,534.42 342.46,532.94 C342.15,532.43 342.70,532.31 343.70,532.67 C344.69,533.03 345.19,532.97 344.81,532.55 C343.72,531.34 347.71,527.68 349.41,528.33 C350.25,528.65 351.20,528.48 351.53,527.96 C351.85,527.43 351.08,526.99 349.81,526.98 C348.52,526.98 347.97,526.65 348.57,526.23 C349.16,525.83 349.95,524.67 350.33,523.65 C350.74,522.53 351.61,522.02 352.51,522.36 C353.33,522.68 354.00,522.50 354.00,521.97 C354.00,521.44 353.44,520.99 352.75,520.98 C349.25,520.94 355.07,519.02 359.00,518.92 C361.48,518.85 364.62,518.43 366.00,517.97 C367.17,517.59 360.45,517.33 349.77,517.31 C353.26,517.28 357.11,517.26 361.35,517.23 C392.87,517.05 407.32,517.31 409.20,518.09 C414.49,520.27 414.98,522.25 418.47,555.19 C420.28,572.22 422.15,586.53 422.63,586.98 C423.11,587.44 427.55,588.96 432.50,590.36 C439.16,592.24 440.33,592.78 437.00,592.45 C434.52,592.20 430.84,591.61 428.80,591.12 C426.05,590.46 424.58,590.60 423.05,591.68 C421.92,592.47 420.55,592.84 420.00,592.50 C419.45,592.16 419.00,592.33 419.00,592.88 C419.00,593.43 419.50,594.19 420.11,594.57 C420.88,595.04 420.81,595.54 419.86,596.22 C418.82,596.96 418.90,597.06 420.22,596.64 C422.43,595.93 423.52,597.67 422.00,599.50 C421.36,600.28 421.09,601.33 421.40,601.84 C421.72,602.36 420.40,603.98 418.47,605.45 C416.54,606.93 415.23,608.57 415.57,609.11 C415.94,609.71 415.12,609.82 413.43,609.39 C411.39,608.88 410.90,609.02 411.47,609.95 C411.90,610.65 413.47,611.01 415.08,610.77 C416.93,610.50 418.12,610.86 418.47,611.79 C418.84,612.74 420.02,613.08 422.01,612.78 C424.05,612.49 425.00,612.77 425.00,613.67 C425.00,614.40 425.71,615.00 426.57,615.00 C427.44,615.00 428.88,615.73 429.77,616.63 C431.28,618.14 431.26,618.22 429.45,617.65 C428.38,617.31 422.05,615.49 415.39,613.61 C408.73,611.73 402.31,609.59 401.14,608.85 C397.66,606.68 396.30,602.23 395.07,589.00 C394.43,582.12 393.13,569.30 392.17,560.50 L 390.44 544.50 L 364.72 544.23 L 340.07 543.98 ZM 357.46 350.88 C358.30,350.88 359.14,350.88 360.00,350.87 C391.83,350.85 414.30,350.47 412.69,349.98 C411.14,349.52 409.33,348.69 408.67,348.14 C408.01,347.60 405.68,347.00 403.49,346.82 C401.29,346.65 399.65,346.11 399.83,345.62 C400.02,345.14 398.89,343.91 397.33,342.88 C394.83,341.23 394.82,340.47 397.33,340.91 C397.78,340.99 399.35,340.03 400.83,338.78 C402.76,337.13 403.41,335.74 403.18,333.76 C402.94,331.66 403.22,331.15 404.36,331.58 C405.23,331.92 406.27,331.36 406.87,330.24 C407.59,328.89 409.09,328.29 412.00,328.17 C414.26,328.08 416.96,327.56 417.99,327.00 C419.02,326.45 422.12,326.00 424.88,326.00 C427.63,326.00 430.11,325.63 430.39,325.18 C430.67,324.73 433.27,324.25 436.17,324.12 C439.08,323.99 441.65,323.68 441.89,323.44 C442.00,323.34 437.06,323.24 428.74,323.17 L 430.34 323.17 C489.59,323.26 536.59,323.51 536.59,323.73 C536.59,323.73 536.56,323.74 536.51,323.74 C534.32,323.97 532.29,324.54 531.99,325.01 C531.70,325.49 528.41,325.98 524.69,326.10 C520.97,326.22 517.69,326.70 517.40,327.16 C517.12,327.62 515.04,328.00 512.79,328.00 C509.29,328.00 508.15,328.59 505.00,332.00 C502.97,334.20 500.79,336.00 500.15,336.00 C499.52,336.00 498.95,336.79 498.88,337.75 C498.69,340.49 498.68,343.36 498.85,345.06 C499.04,347.03 506.59,349.05 514.13,349.14 C517.20,349.17 520.34,349.60 521.11,350.09 C521.92,350.60 476.91,350.96 413.50,350.95 C390.51,350.94 372.13,350.92 357.46,350.88 ZM 313.91 273.00 L 370.20 272.81 C401.17,272.70 422.00,272.36 416.50,272.04 C409.74,271.66 407.64,271.28 410.00,270.90 C412.81,270.43 412.34,270.29 407.60,270.16 C401.83,270.00 401.73,269.96 403.44,268.07 C404.40,267.00 405.71,266.33 406.35,266.58 C408.14,267.27 410.35,263.13 409.04,261.55 C408.45,260.84 408.21,259.61 408.51,258.82 C408.82,258.04 408.37,255.73 407.52,253.70 L 405.97 250.00 L 410.24 249.96 C412.58,249.95 415.62,249.29 417.00,248.50 C418.38,247.71 422.42,247.01 426.00,246.94 C429.58,246.86 433.62,246.44 435.00,246.00 C436.38,245.56 405.33,245.16 366.00,245.10 C361.22,245.10 356.76,245.09 352.59,245.09 C367.79,245.08 386.90,245.10 411.00,245.12 C474.57,245.18 526.01,245.37 526.01,245.55 C525.17,245.73 521.35,246.20 517.50,246.59 C512.14,247.14 511.08,247.48 513.00,248.05 C515.39,248.77 515.40,248.81 513.25,248.90 C512.01,248.96 511.00,249.48 511.00,250.06 C511.00,250.64 510.55,250.84 510.00,250.50 C509.45,250.16 509.00,250.36 509.00,250.94 C509.00,251.52 507.89,252.00 506.53,252.00 C504.75,252.00 504.22,252.42 504.64,253.49 C504.95,254.32 505.69,254.69 506.27,254.33 C506.94,253.92 507.11,254.28 506.72,255.29 C506.31,256.35 506.54,256.73 507.39,256.40 C508.10,256.13 509.29,256.64 510.03,257.53 C511.16,258.90 511.14,259.30 509.94,260.06 C508.70,260.84 508.71,260.97 510.00,261.00 C511.23,261.03 511.25,261.19 510.14,261.89 C509.39,262.37 507.92,262.53 506.87,262.26 C505.44,261.88 505.12,262.15 505.59,263.38 C505.93,264.27 506.73,265.01 507.36,265.02 C508.04,265.02 507.95,265.38 507.12,265.90 C505.28,267.07 506.58,268.98 509.31,269.10 C511.35,269.19 511.33,269.25 509.00,270.00 C507.15,270.59 508.32,270.87 513.50,271.05 L 520.50 271.30 L 514.00 272.04 C510.42,272.44 463.94,272.82 410.70,272.88 L 313.91 273.00 ZM 335.51 401.13 C350.37,401.01 372.01,401.07 403.65,401.11 C456.37,401.17 503.77,401.55 509.00,401.95 L 518.50 402.68 L 506.50 402.96 C496.65,403.19 485.74,404.42 489.44,404.88 C490.66,405.03 483.96,410.00 482.55,410.00 C481.42,410.00 478.45,414.04 478.76,415.15 C478.86,415.51 478.28,416.36 477.47,417.03 C476.31,417.99 476.00,417.98 476.00,416.97 C476.00,416.11 475.34,416.29 473.99,417.51 C472.74,418.64 472.19,420.03 472.55,421.17 C472.98,422.51 472.42,423.27 470.48,424.01 C469.03,424.56 467.42,424.76 466.92,424.45 C466.41,424.14 466.00,424.31 466.00,424.83 C466.00,425.92 472.45,427.42 475.72,427.09 C476.94,426.97 478.74,427.33 479.72,427.90 C480.96,428.62 458.24,428.95 404.75,428.97 C368.77,428.98 338.37,429.19 330.17,429.44 C334.02,429.18 342.60,429.00 352.50,429.00 C373.61,429.00 377.00,428.79 377.00,427.50 C377.00,426.67 376.66,426.05 376.25,426.12 C375.84,426.18 374.19,426.18 372.58,426.12 C369.44,425.99 369.43,425.26 372.56,424.69 C380.80,423.18 383.57,421.62 383.12,418.75 C383.05,418.34 383.45,418.00 384.00,418.00 C384.55,418.00 384.92,417.66 384.83,417.25 C384.74,416.84 385.02,414.76 385.46,412.64 C386.06,409.77 385.91,408.56 384.89,407.93 C382.94,406.72 384.95,404.97 388.59,404.71 C390.19,404.59 391.95,403.95 392.50,403.28 C393.09,402.56 396.80,401.92 401.50,401.73 C405.90,401.55 386.62,401.31 358.65,401.20 C349.50,401.17 341.87,401.13 335.51,401.13 ZM 341.50 503.00 C339.16,502.95 337.01,502.91 335.02,502.87 C335.97,502.87 336.96,502.86 338.00,502.86 C349.27,502.81 359.85,502.42 361.50,502.00 C364.02,501.36 363.63,501.22 359.00,501.10 C353.23,500.96 347.95,499.04 353.25,499.02 C354.76,499.01 356.00,498.58 356.00,498.07 C356.00,497.18 359.34,495.66 361.50,495.55 C362.05,495.52 362.50,494.60 362.50,493.50 C362.50,491.15 364.91,488.00 366.70,488.00 C367.96,488.00 369.33,484.25 369.44,480.50 C369.48,479.23 370.29,478.39 371.67,478.19 C372.86,478.02 374.08,477.23 374.38,476.44 C374.85,475.21 371.82,475.00 353.97,475.00 C350.22,475.00 346.69,474.96 343.64,474.90 C357.70,475.01 384.76,475.12 415.60,475.17 C460.64,475.26 494.12,475.64 490.00,476.03 C485.88,476.42 478.50,476.80 473.62,476.87 C464.65,477.00 456.64,478.62 457.56,480.10 C457.84,480.55 458.69,480.67 459.46,480.38 C461.60,479.56 463.19,483.37 462.00,486.49 C461.45,487.94 460.60,488.87 460.11,488.57 C458.96,487.86 457.78,490.84 458.65,492.24 C459.04,492.87 458.83,493.02 458.15,492.60 C457.47,492.17 457.00,492.52 457.00,493.44 C457.00,494.30 456.25,495.00 455.33,495.00 C454.42,495.00 453.95,495.28 454.29,495.62 C455.00,496.34 453.34,498.16 450.56,499.71 C448.62,500.79 449.60,500.93 470.00,502.34 C472.48,502.51 453.58,502.75 428.00,502.87 C402.42,503.00 378.35,503.19 374.50,503.30 C370.65,503.41 355.80,503.27 341.50,503.00 ZM 369.50 817.02 C353.86,812.15 314.28,800.02 284.42,790.94 C290.26,792.64 294.08,793.69 294.33,793.64 C296.13,793.23 294.85,791.46 292.25,790.77 C288.51,789.78 284.00,785.70 284.00,783.30 C284.00,782.22 283.71,781.04 283.35,780.68 C282.99,780.32 282.56,778.20 282.39,775.96 C282.16,772.87 282.49,771.76 283.79,771.28 C284.73,770.93 285.87,770.03 286.32,769.28 C286.84,768.43 287.93,768.16 289.23,768.57 C290.81,769.07 291.17,768.88 290.73,767.73 C290.31,766.63 290.67,766.36 292.06,766.73 C293.12,767.00 293.76,767.58 293.49,768.02 C293.22,768.46 293.88,768.58 294.97,768.30 C296.05,768.01 298.40,768.29 300.20,768.92 C301.99,769.54 303.01,769.64 302.48,769.14 C302.13,768.82 297.50,767.24 290.89,765.16 C306.18,769.77 322.23,774.63 328.00,776.40 C334.33,778.33 350.52,783.20 364.00,787.21 C380.36,792.08 387.54,794.61 385.60,794.83 C384.00,795.01 382.09,795.77 381.35,796.51 C379.74,798.12 379.56,799.39 381.07,798.46 C381.65,798.10 382.38,798.74 382.68,799.89 C383.00,801.09 383.71,801.70 384.36,801.32 C384.99,800.95 384.67,801.61 383.65,802.77 C382.63,803.93 381.73,805.99 381.65,807.35 C381.57,808.70 381.16,809.60 380.75,809.35 C379.52,808.59 379.90,811.50 381.20,812.80 C382.13,813.73 381.81,814.00 379.76,814.00 C376.52,814.00 375.21,815.75 377.69,816.76 C379.45,817.48 380.75,820.09 379.25,819.91 C378.84,819.86 374.45,818.56 369.50,817.02 ZM 404.50 268.00 C404.16,268.55 404.36,269.00 404.94,269.00 C405.52,269.00 406.00,268.55 406.00,268.00 C406.00,267.45 405.80,267.00 405.56,267.00 C405.32,267.00 404.84,267.45 404.50,268.00 ZM 330.17 449.04 C331.48,460.04 332.95,472.02 333.32,474.34 C333.11,474.29 333.00,474.25 333.00,474.20 C333.00,473.76 331.88,463.75 330.51,451.95 C330.39,450.97 330.28,450.00 330.17,449.04 ZM 313.90 501.16 C311.53,500.28 310.72,498.91 309.65,496.66 C309.63,496.61 309.60,496.56 309.58,496.51 C309.35,496.02 309.00,494.29 308.55,491.53 C309.01,494.35 309.38,496.10 309.65,496.66 C310.41,498.26 312.25,500.19 313.90,501.16 ZM 339.06 547.94 L 338.72 544.00 L 339.00 544.00 L 339.01 546.73 C339.01,546.99 339.03,547.40 339.06,547.94 ZM 300.70 407.51 C301.22,406.42 301.49,405.52 301.99,404.76 C302.36,404.21 302.85,403.73 303.65,403.33 C303.13,403.65 302.73,404.02 302.39,404.43 C301.72,405.25 301.29,406.26 300.70,407.51 ZM 183.50 116.18 C184.12,115.69 184.61,115.25 185.14,114.85 C185.94,114.23 186.82,113.71 188.37,113.28 C187.02,113.70 186.11,114.20 185.28,114.80 C184.70,115.21 184.15,115.67 183.50,116.18 ZM 265.60 757.51 C260.02,755.81 256.34,754.67 256.26,754.59 C256.14,754.48 254.58,737.98 252.20,712.17 C254.58,737.98 256.14,754.47 256.26,754.58 C256.33,754.65 259.91,755.77 265.60,757.51 ZM 340.71 564.70 C340.69,564.51 340.67,564.31 340.64,564.10 C340.44,562.48 340.13,559.61 339.84,556.64 C340.03,558.51 340.25,560.50 340.47,562.50 C340.54,563.12 340.62,563.86 340.71,564.70 Z" fill="rgba(240,192,243,1)"/>
<path d="M 266.17 785.47 C251.14,780.88 237.73,776.40 236.37,775.51 C232.29,772.83 230.19,768.26 229.54,760.60 C228.80,751.94 225.22,711.61 224.51,704.00 C223.97,698.17 218.74,639.40 212.07,564.00 C207.21,509.09 200.46,432.03 194.99,369.00 C190.46,316.84 189.43,304.93 188.02,288.75 C187.48,282.56 185.00,253.65 182.49,224.50 C179.99,195.35 177.29,164.07 176.49,155.00 C174.34,130.79 174.45,128.26 177.86,122.88 C179.44,120.39 181.98,117.38 183.50,116.18 C190.28,110.85 186.41,110.99 320.43,111.11 C435.27,111.22 455.49,111.70 425.77,113.61 C416.89,114.18 414.94,114.60 414.49,116.02 C413.92,117.83 410.00,121.82 410.00,120.59 C410.00,120.19 410.48,118.96 411.07,117.86 C412.05,116.05 411.88,115.88 409.32,116.18 C407.44,116.39 406.61,117.00 406.82,118.00 C407.07,119.15 406.87,119.23 405.95,118.33 C405.03,117.43 404.26,117.61 402.64,119.12 C400.84,120.80 400.74,121.23 402.01,122.03 C402.96,122.63 403.06,122.97 402.28,122.98 C401.61,122.99 401.32,123.68 401.64,124.50 C402.30,126.22 398.54,126.68 397.50,125.00 C396.58,123.51 393.00,123.79 393.00,125.35 C393.00,126.08 393.92,127.52 395.04,128.53 C396.81,130.13 396.87,130.49 395.54,131.24 C392.97,132.68 393.79,133.86 398.25,135.13 C400.59,135.80 403.24,136.97 404.15,137.74 C405.27,138.68 406.01,138.79 406.46,138.07 C407.45,136.46 410.14,136.77 414.50,139.00 L 418.42 141.00 L 310.08 141.00 L 201.74 141.00 L 202.35 145.75 C202.68,148.36 203.88,161.52 205.01,175.00 C208.65,218.50 217.97,326.71 220.51,355.00 C221.87,370.12 224.34,398.70 226.01,418.50 C232.16,491.64 255.79,754.12 256.26,754.59 C256.39,754.72 266.62,757.85 279.00,761.53 C291.38,765.22 301.94,768.64 302.48,769.14 C303.01,769.64 301.99,769.54 300.20,768.92 C298.40,768.29 296.05,768.01 294.97,768.30 C293.88,768.58 293.22,768.46 293.49,768.02 C293.76,767.58 293.12,767.00 292.06,766.73 C290.67,766.36 290.31,766.63 290.73,767.73 C291.17,768.88 290.81,769.07 289.23,768.57 C287.93,768.16 286.84,768.43 286.32,769.28 C285.87,770.03 284.73,770.93 283.79,771.28 C282.49,771.76 282.16,772.87 282.39,775.96 C282.56,778.20 282.99,780.32 283.35,780.68 C283.71,781.04 284.00,782.22 284.00,783.30 C284.00,785.70 288.51,789.78 292.25,790.77 C294.85,791.46 296.13,793.23 294.33,793.64 C293.87,793.74 281.20,790.07 266.17,785.47 ZM 323.20 650.84 C321.44,634.13 319.34,614.44 316.48,588.00 C309.37,522.22 309.42,523.62 313.99,519.50 C316.08,517.62 317.75,517.49 342.35,517.32 C357.19,517.23 367.42,517.51 366.00,517.97 C364.62,518.43 361.48,518.85 359.00,518.92 C355.07,519.02 349.25,520.94 352.75,520.98 C353.44,520.99 354.00,521.44 354.00,521.97 C354.00,522.50 353.33,522.68 352.51,522.36 C351.61,522.02 350.74,522.53 350.33,523.65 C349.95,524.67 349.16,525.83 348.57,526.23 C347.97,526.65 348.52,526.98 349.81,526.98 C351.08,526.99 351.85,527.43 351.53,527.96 C351.20,528.48 350.25,528.65 349.41,528.33 C347.71,527.68 343.72,531.34 344.81,532.55 C345.19,532.97 344.69,533.03 343.70,532.67 C342.70,532.31 342.15,532.43 342.46,532.94 C343.38,534.42 349.85,536.21 351.23,535.36 C351.96,534.91 351.77,535.70 350.80,537.18 C349.15,539.71 349.16,539.82 351.30,540.56 C353.15,541.20 352.86,541.40 349.50,541.80 C345.89,542.23 345.74,542.35 348.00,543.04 C349.84,543.60 348.94,543.83 344.61,543.90 L 338.72 544.00 L 339.39 551.75 C339.76,556.01 340.32,561.57 340.64,564.10 C341.11,567.80 340.90,568.83 339.57,569.33 C337.88,569.98 337.62,569.58 336.56,564.75 C335.84,561.46 333.76,561.04 334.08,564.25 C334.46,568.06 332.93,571.78 330.75,572.35 C329.00,572.81 328.87,573.14 329.96,574.45 C331.01,575.72 331.00,576.00 329.87,576.02 C328.79,576.03 328.82,576.24 330.00,577.02 C331.31,577.87 331.31,578.12 330.05,578.93 C329.25,579.45 328.17,579.60 327.64,579.28 C327.11,578.95 327.02,579.22 327.43,579.89 C327.87,580.60 327.12,581.90 325.57,583.12 C324.15,584.24 323.24,585.57 323.55,586.08 C323.86,586.59 323.64,587.00 323.06,587.00 C322.48,587.00 321.94,586.44 321.87,585.75 C321.81,585.06 321.42,586.53 321.01,589.00 C320.60,591.47 320.65,594.51 321.11,595.75 C321.67,597.26 321.57,598.00 320.81,598.00 C320.18,598.00 319.96,598.29 320.31,598.64 C320.66,599.00 321.67,598.69 322.55,597.96 C323.88,596.86 324.29,596.86 324.97,597.95 C325.42,598.67 325.67,600.00 325.53,600.88 C325.40,601.77 325.78,602.83 326.39,603.23 C327.04,603.66 326.61,603.98 325.36,603.98 C324.18,603.99 322.95,604.67 322.64,605.50 C321.96,607.28 322.84,610.00 324.11,610.00 C324.60,610.00 325.00,610.48 325.00,611.06 C325.00,611.64 324.53,611.83 323.95,611.47 C323.27,611.05 323.01,612.41 323.20,615.41 C323.40,618.49 323.95,620.00 324.87,620.00 C325.88,620.00 325.96,620.34 325.18,621.28 C324.59,621.99 324.46,623.12 324.88,623.81 C325.30,624.49 325.52,628.40 325.36,632.49 C325.14,638.31 325.41,640.13 326.58,640.79 C327.75,641.44 327.87,642.21 327.11,644.22 C326.56,645.65 326.26,649.55 326.43,652.89 C326.61,656.47 326.26,659.63 325.56,660.58 C324.62,661.88 324.16,659.97 323.20,650.84 ZM 314.32 501.39 C312.57,500.52 310.47,498.40 309.65,496.66 C308.72,494.68 306.47,477.98 303.66,452.11 C299.50,413.79 299.28,410.48 300.70,407.51 C303.90,400.80 302.27,400.98 358.65,401.20 C386.62,401.31 405.90,401.55 401.50,401.73 C396.80,401.92 393.09,402.56 392.50,403.28 C391.95,403.95 390.19,404.59 388.59,404.71 C384.95,404.97 382.94,406.72 384.89,407.93 C385.91,408.56 386.06,409.77 385.46,412.64 C385.02,414.76 384.74,416.84 384.83,417.25 C384.92,417.66 384.55,418.00 384.00,418.00 C383.45,418.00 383.05,418.34 383.12,418.75 C383.57,421.62 380.80,423.18 372.56,424.69 C369.43,425.26 369.44,425.99 372.58,426.12 C374.19,426.18 375.84,426.18 376.25,426.12 C376.66,426.05 377.00,426.67 377.00,427.50 C377.00,428.79 373.61,429.00 352.50,429.00 C339.02,429.00 328.00,429.34 328.01,429.75 C328.01,430.16 329.14,440.15 330.51,451.95 C331.88,463.75 333.00,473.76 333.00,474.20 C333.00,474.64 342.44,475.00 353.97,475.00 C371.82,475.00 374.85,475.21 374.38,476.44 C374.08,477.23 372.86,478.02 371.67,478.19 C370.29,478.39 369.48,479.23 369.44,480.50 C369.33,484.25 367.96,488.00 366.70,488.00 C364.91,488.00 362.50,491.15 362.50,493.50 C362.50,494.60 362.05,495.52 361.50,495.55 C359.34,495.66 356.00,497.18 356.00,498.07 C356.00,498.58 354.76,499.01 353.25,499.02 C347.95,499.04 353.23,500.96 359.00,501.10 C363.63,501.22 364.02,501.36 361.50,502.00 C359.85,502.42 349.27,502.81 338.00,502.86 C321.26,502.94 316.92,502.67 314.32,501.39 ZM 301.33 349.54 C294.93,346.76 295.52,349.61 289.00,289.54 C284.93,251.95 284.99,250.81 291.31,246.95 C294.39,245.07 296.87,245.01 366.00,245.10 C405.33,245.16 436.38,245.56 435.00,246.00 C433.62,246.44 429.58,246.86 426.00,246.94 C422.42,247.01 418.38,247.71 417.00,248.50 C415.62,249.29 412.58,249.95 410.24,249.96 L 405.97 250.00 L 407.52 253.70 C408.37,255.73 408.82,258.04 408.51,258.82 C408.21,259.61 408.45,260.84 409.04,261.55 C410.35,263.13 408.14,267.27 406.35,266.58 C405.71,266.33 404.40,267.00 403.44,268.07 C401.73,269.96 401.83,270.00 407.60,270.16 C412.34,270.29 412.81,270.43 410.00,270.90 C407.64,271.28 409.74,271.66 416.50,272.04 C422.00,272.36 401.17,272.70 370.20,272.81 L 313.91 273.00 L 314.44 276.25 C314.73,278.04 315.89,287.60 317.01,297.50 C318.13,307.40 319.30,317.19 319.61,319.25 L 320.18 323.00 L 381.25 323.00 C414.85,323.00 442.14,323.20 441.89,323.44 C441.65,323.68 439.08,323.99 436.17,324.12 C433.27,324.25 430.67,324.73 430.39,325.18 C430.11,325.63 427.63,326.00 424.88,326.00 C422.12,326.00 419.02,326.45 417.99,327.00 C416.96,327.56 414.26,328.08 412.00,328.17 C409.09,328.29 407.59,328.89 406.87,330.24 C406.27,331.36 405.23,331.92 404.36,331.58 C403.22,331.15 402.94,331.66 403.18,333.76 C403.41,335.74 402.76,337.13 400.83,338.78 C399.35,340.03 397.78,340.99 397.33,340.91 C394.82,340.47 394.83,341.23 397.33,342.88 C398.89,343.91 400.02,345.14 399.83,345.62 C399.65,346.11 401.29,346.65 403.49,346.82 C405.68,347.00 408.01,347.60 408.67,348.14 C409.33,348.69 411.14,349.52 412.69,349.98 C414.30,350.47 391.83,350.85 360.00,350.87 C314.92,350.91 303.90,350.66 301.33,349.54 ZM 404.50 268.00 C404.84,267.45 405.32,267.00 405.56,267.00 C405.80,267.00 406.00,267.45 406.00,268.00 C406.00,268.55 405.52,269.00 404.94,269.00 C404.36,269.00 404.16,268.55 404.50,268.00 Z" fill="rgba(247,193,230,1)"/>
</g>
</svg>